<?xml version="1.0" encoding="UTF-8" standalone="no"?>
<svg
   width="128"
   height="128"
   viewBox="0 0 128 128"
   fill="none"
   version="1.1"
   id="svg2"
   sodipodi:docname="multimedia-photo-viewer.svg"
   inkscape:version="1.4.2 (ebf0e940d0, 2025-05-08)"
   xmlns:inkscape="http://www.inkscape.org/namespaces/inkscape"
   xmlns:sodipodi="http://sodipodi.sourceforge.net/DTD/sodipodi-0.dtd"
   xmlns="http://www.w3.org/2000/svg"
   xmlns:svg="http://www.w3.org/2000/svg">
  <sodipodi:namedview
     id="namedview2"
     pagecolor="#ffffff"
     bordercolor="#000000"
     borderopacity="0.25"
     inkscape:showpageshadow="2"
     inkscape:pageopacity="0.0"
     inkscape:pagecheckerboard="0"
     inkscape:deskcolor="#d1d1d1"
     inkscape:zoom="4.109375"
     inkscape:cx="63.878327"
     inkscape:cy="64"
     inkscape:window-width="1366"
     inkscape:window-height="713"
     inkscape:window-x="0"
     inkscape:window-y="16"
     inkscape:window-maximized="0"
     inkscape:current-layer="svg2" />
  <path
     fill-rule="evenodd"
     clip-rule="evenodd"
     d="M78 40.0001C78 34.5928 82.3914 30.2014 87.8013 30.2014C93.2086 30.2014 97.6 34.5928 97.6 40.0001C97.6 45.41 93.2086 49.8014 87.8013 49.8014C82.3914 49.8014 78 45.41 78 40.0001ZM19.2 74.7227L44.5354 53.5886C49.2811 49.6269 56.6835 49.9655 61.0515 54.3387L72.1656 65.4684C74.3509 67.6537 78.3021 68.185 80.9849 66.6509L106.37 52.143C107.711 51.3772 108.8 49.4993 108.8 47.9547V31.6027C108.8 26.9663 105.036 23.2 100.4 23.2H27.6C22.9637 23.2 19.2 26.9663 19.2 31.6027V74.7227ZM108.8 76.4027C108.8 73.311 111.308 70.8027 114.4 70.8027C117.492 70.8027 120 73.311 120 76.4027V101.603C120 109.328 113.728 115.603 106 115.603H22C14.272 115.603 8 109.328 8 101.603V26C8 18.2746 14.272 12 22 12H106C113.728 12 120 18.2746 120 26V51.6481C120 54.7398 117.823 58.4931 115.137 60.0273L84.0011 77.817C78.6329 80.8827 70.7252 79.8278 66.352 75.4598L56.4257 65.5465C54.2404 63.3638 50.5366 63.1945 48.1611 65.1741L22.784 86.3134L19.2 89.2801V96.0027C19.2 100.636 22.9637 104.403 27.6 104.403H100.4C105.036 104.403 108.8 100.636 108.8 96.0027V76.4027Z"
     fill="url(#paint0_linear_616_337)"
     id="path1" />
  <defs
     id="defs2">
    <linearGradient
       id="paint0_linear_616_337"
       x1="64"
       y1="115.603"
       x2="64"
       y2="12"
       gradientUnits="userSpaceOnUse">
      <stop
         stop-color="#FD0079"
         id="stop1"
         offset="0"
         style="stop-color:#89dceb;stop-opacity:1;" />
      <stop
         offset="1"
         stop-color="#FFF733"
         id="stop2"
         style="stop-color:#89dceb;stop-opacity:1;" />
    </linearGradient>
  </defs>
</svg>
