<?xml version="1.0" encoding="UTF-8" standalone="no"?>
<!-- Generator: Gravit.io -->

<svg
   style="isolation:isolate"
   viewBox="0 0 48 48"
   width="48pt"
   height="48pt"
   version="1.1"
   id="svg4"
   sodipodi:docname="vscodium.svg"
   inkscape:version="1.4.3 (0d15f75042, 2025-12-25)"
   xmlns:inkscape="http://www.inkscape.org/namespaces/inkscape"
   xmlns:sodipodi="http://sodipodi.sourceforge.net/DTD/sodipodi-0.dtd"
   xmlns="http://www.w3.org/2000/svg"
   xmlns:svg="http://www.w3.org/2000/svg">
  <defs
     id="defs4" />
  <sodipodi:namedview
     id="namedview4"
     pagecolor="#ffffff"
     bordercolor="#000000"
     borderopacity="0.25"
     inkscape:showpageshadow="2"
     inkscape:pageopacity="0.0"
     inkscape:pagecheckerboard="0"
     inkscape:deskcolor="#d1d1d1"
     inkscape:document-units="pt"
     inkscape:zoom="5.53125"
     inkscape:cx="31.909605"
     inkscape:cy="32"
     inkscape:window-width="1360"
     inkscape:window-height="669"
     inkscape:window-x="20"
     inkscape:window-y="20"
     inkscape:window-maximized="0"
     inkscape:current-layer="svg4" />
  <linearGradient
     id="_lgradient_0"
     x1="0"
     y1="0.5"
     x2="0.9074880558539661"
     y2="0.9200778838291643"
     gradientTransform="matrix(44.756484,0,0,47.407529,1.6212061,0.29701742)"
     gradientUnits="userSpaceOnUse">
    <stop
       offset="0"
       stop-opacity="1"
       style="stop-color:#89b4fa;stop-opacity:1;"
       id="stop1" />
    <stop
       offset="0.838884"
       stop-opacity="1"
       style="stop-color:#89b4fa;stop-opacity:1;"
       id="stop2" />
  </linearGradient>
  <path
     d="m 30.509361,1.1169767 c 0.311217,-0.49134447 0.86893,-0.81837802 1.453493,-0.81995988 0.819941,-0.003214 1.598824,0.45816601 2.074381,1.11381718 0.447109,0.6256335 0.584556,1.418734 0.586131,2.1755002 -0.0071,1.0632591 -0.252774,2.1091438 -0.545061,3.1265891 -0.729903,2.4014197 -1.720486,4.7143777 -2.46145,7.1142047 -0.815229,2.722133 -1.205452,5.757087 -0.110547,8.460263 0.571908,-1.598828 1.139092,-3.200847 1.709429,-4.80127 0.162731,-0.423403 0.376016,-0.903686 0.829427,-1.077465 0.630382,-0.224352 1.27339,0.434466 1.256019,1.044295 -0.172214,0.887891 -0.507144,1.733126 -0.770991,2.59732 -2.134416,6.417501 -4.526368,12.744925 -6.828241,19.103957 3.061801,-2.797979 6.133099,-5.588059 9.198069,-8.381286 0.883147,-0.804146 1.838985,-1.679414 2.109143,-2.89276 0.270161,-1.191232 -0.23066,-2.372993 -0.799426,-3.396742 -0.657221,-1.221252 -1.494568,-2.380893 -1.802637,-3.755392 -0.156405,-0.71095 -0.109014,-1.530887 0.371275,-2.113879 0.345992,-0.437615 0.97478,-0.665121 1.507199,-0.450271 0.52453,0.200644 0.842074,0.704631 1.090129,1.180184 0.832592,1.671512 1.352369,3.497851 1.530899,5.355786 0.568758,-1.146984 1.143839,-2.290817 1.714174,-3.436228 0.342827,-0.676199 0.647747,-1.401357 1.207025,-1.93537 0.336518,-0.331772 0.827859,-0.541896 1.303413,-0.432883 0.595608,0.131161 1.014271,0.673037 1.173848,1.237056 0.181685,0.597184 -0.0086,1.221253 -0.202233,1.788417 -0.575073,1.590943 -1.47719,3.028641 -2.347699,4.467912 -1.211763,1.905333 -2.50096,3.766441 -3.907053,5.53591 0.804159,-0.53716 1.650984,-1.10277 2.635248,-1.214923 0.930549,-0.124764 1.959052,0.420233 2.267129,1.330256 0.206966,0.617728 -0.126407,1.317611 -0.687245,1.620947 -0.821538,0.458182 -1.794747,0.451846 -2.709506,0.492931 -3.314594,0.09006 -6.545445,1.723656 -8.60245,4.320979 -1.62255,2.0728 -2.451981,4.646428 -4.099791,6.701862 -1.039561,1.252848 -2.507278,2.824831 -4.121916,2.477255 -2.150244,-0.461327 -2.150244,-3.823313 -2.687403,-5.49009 -0.276482,-0.8405 -0.794687,-1.606747 -1.515104,-2.131257 -0.628801,-0.464491 -1.382389,-0.731489 -2.143911,-0.87685 -1.747352,-0.336511 -3.54998,-0.157977 -5.29417,-0.518194 C 12.016857,38.459075 11.157415,38.109921 10.490716,37.506405 9.8556019,36.948704 9.4163774,36.203002 9.1130569,35.420966 8.4542341,33.721011 8.3215197,31.875693 7.7369621,30.15204 6.8917321,27.673215 5.2202058,25.481917 3.0415526,24.025258 2.5818077,23.715608 2.0825607,23.412262 1.7855433,22.928825 c -0.2417224,-0.377588 -0.2211842,-0.914744 0.09637,-1.24336 0.5340006,-0.581407 1.4977312,-0.630371 2.1154637,-0.148476 1.2639043,0.895795 1.4455897,2.638411 2.6241883,3.61319 0.00149,-1.609903 -0.00616,-3.21663 -0.00928,-4.824962 0.00463,-0.464481 -0.0474,-0.965298 0.1848477,-1.387137 0.2117123,-0.401275 0.796266,-0.508716 1.1359414,-0.208546 0.4597403,0.383919 0.6003542,1.012709 0.6651273,1.581463 0.2290766,2.21658 0.4486875,4.433167 0.6793508,6.651319 1.1532995,-1.037995 1.6841455,-2.720563 1.3113025,-4.230926 -0.11376,-0.48187 -0.297023,-0.977954 -0.19275,-1.478771 0.08384,-0.418682 0.529253,-0.714116 0.949509,-0.639855 0.470801,0.06487 0.808891,0.469228 0.984258,0.884727 0.282815,0.687256 0.282815,1.453496 0.225931,2.184978 -0.167476,1.665204 -0.872102,3.202425 -1.357116,4.787041 -0.473973,1.398205 -0.799421,2.952809 -0.325467,4.396819 0.423421,1.350796 1.494572,2.418796 2.752163,3.023903 1.553022,0.763069 3.301938,1.00005 5.012954,1.06641 -1.039553,-1.820021 -2.170748,-3.7459 -2.1518,-5.911922 0.0204,-2.18024 1.406094,-4.016044 1.780532,-6.120453 0.63828,-3.491548 -0.93687,-7.286427 -3.869129,-9.289704 -1.303414,-0.894229 -2.867485,-1.292356 -4.205655,-2.123374 -1.2101948,-0.740966 -2.2971504,-2.060155 -2.1075653,-3.5610358 0.91949,-0.357083 1.9464163,-0.129565 2.7758673,0.3491268 1.622529,0.865771 2.655772,2.507282 4.284632,3.35883 0.573499,0.312815 1.229152,0.467657 1.881635,0.426576 0.353912,-0.845243 0,-1.794757 -0.568754,-2.453539 -1.07274,-1.29077 -2.881703,-1.605163 -4.001834,-2.8390614 -0.562456,-0.6445983 -0.875264,-1.5640827 -0.639859,-2.4077412 0.192745,-0.6651323 0.881585,-1.1185586 1.567246,-1.0679972 1.015864,0.063191 1.89111,0.6998803 2.584673,1.3997728 2.298739,2.2971494 3.62111,5.420571 4.139309,8.59455 0.612992,3.745903 0.135886,7.566059 -0.61773,11.253514 -0.140659,0.750442 -0.404458,1.521415 -0.210133,2.287673 0.08383,0.355461 0.341256,0.722005 0.733066,0.753588 0.541896,0.03467 0.989003,-0.333353 1.382399,-0.655652 1.232297,-1.00638 2.211842,-2.361916 2.616286,-3.913366 0.314393,-1.131193 0.323872,-2.316094 0.301758,-3.480479 0.006,-0.582959 -0.03643,-1.225991 0.311236,-1.729974 0.249615,-0.390223 0.714101,-0.69672 1.191235,-0.582972 0.374426,0.0711 0.639842,0.396555 0.755187,0.744125 0.183251,0.571915 0.156403,1.191233 0.04415,1.775789 -0.35231,1.613068 -0.669874,3.248238 -1.308138,4.779133 -0.450264,1.099617 -1.058522,2.145494 -1.883231,3.006525 -0.908416,0.962151 -2.030148,1.734722 -2.761637,2.856432 -0.499249,0.76624 -0.821536,1.718917 -0.605094,2.635245 0.157981,0.7299 0.714105,1.327094 1.383972,1.630433 0.977949,0.447103 2.164446,0.423411 3.115533,-0.07909 0.756763,-0.407611 1.29393,-1.113804 1.7205,-1.840548 0.753594,-1.304989 1.210194,-2.755319 1.589354,-4.20566 0.582971,-2.344535 0.925805,-4.747534 1.060106,-7.158441 0.154841,-2.576794 -0.31283,-5.238883 -1.611503,-7.490207 -0.690386,-1.203883 -1.666766,-2.229234 -2.807437,-3.01441 -1.026918,-0.764666 -2.15496,-1.425062 -2.989128,-2.415661 C 20.739513,9.5503372 20.200759,8.3133097 20.483571,7.0968 c 0.533993,-0.3349364 1.205452,-0.3933884 1.796318,-0.1848459 1.113831,0.3791802 1.98591,1.2733934 2.548362,2.286082 0.763075,1.1912379 1.39976,2.6115499 2.745834,3.2577289 -1.094805,-2.153331 -2.222837,-4.2877632 -3.331913,-6.4332367 -0.360217,-0.7251632 -0.715676,-1.51669 -0.620887,-2.3461235 0.06787,-0.6319492 0.655654,-1.1501579 1.289172,-1.1469946 0.562437,0.00161 1.09013,0.3175569 1.425046,0.7599236 0.382348,0.4960859 0.565598,1.1074988 0.73781,1.7015331 0.883155,3.0728688 1.76473,6.1441581 2.651054,9.2154551 1.113807,-2.120213 1.584619,-4.5784858 1.268642,-6.9593865 -0.13908,-1.2623047 -0.510372,-2.480395 -0.804227,-3.712698 -0.199075,-0.8057444 -0.139,-1.7078581 0.320716,-2.4172237 z"
     fill="url(#_lgradient_0)"
     id="path2"
     style="fill:url(#_lgradient_0);stroke-width:1.57984" />
  <linearGradient
     id="_lgradient_1"
     x1="0"
     y1="0.5"
     x2="0.9074880558539661"
     y2="0.9200778838291643"
     gradientTransform="matrix(48,0,0,47.7,0,0)"
     gradientUnits="userSpaceOnUse">
    <stop
       offset="0%"
       stop-opacity="1"
       style="stop-color:rgb(0,196,255)"
       id="stop3" />
    <stop
       offset="83.88839793817618%"
       stop-opacity="1"
       style="stop-color:rgb(0,114,255)"
       id="stop4" />
  </linearGradient>
</svg>
