<?xml version="1.0" encoding="UTF-8" standalone="no"?>
<!-- Generator: Gravit.io -->

<svg
   style="isolation:isolate"
   viewBox="0 0 48 48"
   width="48pt"
   height="48pt"
   version="1.1"
   id="svg3"
   sodipodi:docname="drive-removable-media.svg"
   inkscape:version="1.3.2 (091e20ef0f, 2023-11-25, custom)"
   xmlns:inkscape="http://www.inkscape.org/namespaces/inkscape"
   xmlns:sodipodi="http://sodipodi.sourceforge.net/DTD/sodipodi-0.dtd"
   xmlns="http://www.w3.org/2000/svg"
   xmlns:svg="http://www.w3.org/2000/svg">
  <defs
     id="defs3" />
  <sodipodi:namedview
     id="namedview3"
     pagecolor="#ffffff"
     bordercolor="#ffffff"
     borderopacity="0.25"
     inkscape:showpageshadow="2"
     inkscape:pageopacity="0.0"
     inkscape:pagecheckerboard="0"
     inkscape:deskcolor="#ffffff"
     inkscape:document-units="pt"
     inkscape:zoom="2"
     inkscape:cx="-47"
     inkscape:cy="15.75"
     inkscape:window-width="1366"
     inkscape:window-height="701"
     inkscape:window-x="0"
     inkscape:window-y="31"
     inkscape:window-maximized="1"
     inkscape:current-layer="svg3" />
  <linearGradient
     id="_lgradient_15"
     x1="0.34027777777777773"
     y1="0.036585365853658625"
     x2="1.0087187958883996"
     y2="1.012732351993124"
     gradientTransform="matrix(32,0,0,44,8,2)"
     gradientUnits="userSpaceOnUse">
    <stop
       offset="0"
       stop-opacity="1"
       style="stop-color:#ffffff;stop-opacity:1;"
       id="stop1" />
    <stop
       offset="0.51304346"
       stop-opacity="1"
       style="stop-color:#ffffff;stop-opacity:1;"
       id="stop2" />
    <stop
       offset="0.98695654"
       stop-opacity="1"
       style="stop-color:#ffffff;stop-opacity:1;"
       id="stop3" />
  </linearGradient>
  <path
     d="m 36,32 v 0 c 0,-1.104 0.896,-2 2,-2 v 0 c 1.104,0 2,0.896 2,2 v 0 9 c 0,2.76 -2.24,5 -5,5 H 13 C 10.24,46 8,43.76 8,41 v -3 0 c 0,-1.104 0.896,-2 2,-2 v 0 c 1.104,0 2,0.896 2,2 v 0 1 c 0,1.656 1.344,3 3,3 h 18 c 1.656,0 3,-1.344 3,-3 z M 20.5,7 h 2 v 4 h -2 z m 5,0 h 2 v 4 h -2 z M 16,12 H 32 V 8 C 32,6.896 31.104,6 30,6 H 18 c -1.104,0 -2,0.896 -2,2 z m -4,0.1 C 9.719,12.564 8,14.583 8,17 v 9 l 0.00865,11.510146 c 0,1.104 0.1449118,-1.486844 1.2489118,-1.486844 l 1.4599532,-0.117431 c 1.104,0 1.250791,2.692362 1.250791,1.588362 l 0.03088,0.511495 L 12,19 c 7.1e-5,-1.656 1.344,-3 3,-3 h 18 c 1.656,0 3,1.344 3,3 v 1 l 0.01275,12.078035 c 0.0012,1.104 -0.133406,-2.272839 0.964786,-2.159748 l 1.814856,0.186891 c 1.104,0 1.205012,2.881309 1.204051,1.77731 L 39.985555,19.367943 40,17 c 0.01474,-2.416955 -1.719,-4.436 -4,-4.9 V 12 7 C 36,4.24 33.76,2 31,2 H 17 c -2.76,0 -5,2.24 -5,5 v 5 z m 12,7.9 -2.812,4.5 h 1.687 v 5.625 H 19.5 v -1.428 c 0.697,-0.405 1.125,-1.148 1.125,-1.947 0,-1.238 -1.012,-2.25 -2.25,-2.25 -1.237,0 -2.25,1.012 -2.25,2.25 0,0.799 0.428,1.542 1.125,1.947 v 1.428 c 0,2.25 2.25,2.25 2.25,2.25 h 3.375 v 1.429 c -0.697,0.405 -1.125,1.147 -1.125,1.946 0,1.238 1.012,2.25 2.25,2.25 1.238,0 2.25,-1.012 2.25,-2.25 0,-0.799 -0.428,-1.541 -1.125,-1.946 V 32.375 H 28.5 c 0,0 2.25,0 2.25,-2.25 V 29 c 0.623,0 1.125,-0.502 1.125,-1.125 v -2.25 C 31.875,25.002 31.373,24.5 30.75,24.5 H 28.5 c -0.623,0 -1.125,0.502 -1.125,1.125 v 2.25 c 0,0.623 0.502,1.125 1.125,1.125 v 1.125 H 25.125 V 24.5 h 1.688 z"
     fill-rule="evenodd"
     fill="url(#_lgradient_15)"
     id="path3"
     sodipodi:nodetypes="csssscsssscsssscssssccsscccccccscccccsssscccccsscsssscsssscsssscsccsssscccccsccccccssscscccssscccsc" />
  <path
     style="fill:#ffffff;fill-opacity:1;stroke:#ffffff;stroke-width:0.03125;stroke-opacity:1"
     d="m 48.172755,41.59375 c -7.03e-4,-0.09938 0.112002,-0.541139 0.203308,-0.796875 0.10764,-0.301486 0.231195,-0.518619 0.380145,-0.668054 0.157251,-0.157764 0.270077,-0.212821 0.443865,-0.216596 0.213698,-0.0046 1.009797,0.07855 0.981038,0.102522 -0.01367,0.0114 -0.100866,0.03921 -0.19376,0.0618 -0.710079,0.172711 -1.362553,0.701534 -1.717731,1.392201 -0.05561,0.108143 -0.09661,0.161047 -0.09687,0.125 z"
     id="path32"
     transform="scale(0.75)" />
  <path
     style="fill:#ffffff;fill-opacity:1;stroke:#ffffff;stroke-width:0.00390625;stroke-opacity:1"
     d="m 48.017578,41.069008 c 0,-0.455112 -0.0012,-1.178451 -0.0026,-1.607422 l -0.0026,-0.779945 h 1.990882 1.990883 v 0.752371 c 0,0.665003 -6.77e-4,0.752111 -0.0058,0.750137 -0.05175,-0.01986 -0.1345,-0.03699 -0.203163,-0.04207 -0.03008,-0.0022 -0.123464,-0.0109 -0.207523,-0.01929 -0.136613,-0.01363 -0.15794,-0.0167 -0.20091,-0.02895 -0.252271,-0.07192 -0.558852,-0.1056 -0.839614,-0.09223 l -0.09961,0.0047 -0.208851,-0.02173 c -0.114868,-0.01195 -0.212427,-0.02156 -0.216797,-0.02134 -0.0044,2.16e-4 0.01816,0.0045 0.05007,0.0095 0.06879,0.01075 0.114615,0.02058 0.124369,0.02667 0.009,0.0056 0.0091,0.01909 2.31e-4,0.02681 -0.008,0.0069 -0.06793,0.03041 -0.07767,0.03041 -0.0036,0 -0.0057,9.81e-4 -0.0045,0.0022 0.0012,0.0012 0.02918,-0.0031 0.06217,-0.0095 0.06926,-0.01349 0.15068,-0.02544 0.22601,-0.03319 l 0.05273,-0.0054 0.489829,0.05035 c 0.554554,0.05701 0.4979,0.04797 0.64689,0.103165 0.136603,0.05061 0.23253,0.09406 0.360328,0.163238 l 0.05173,0.028 10e-4,0.770508 0.001,0.770508 -1.94043,-10e-7 c -1.067236,0 -1.94043,-5.93e-4 -1.94043,-0.0013 0,-7.25e-4 0.01213,-0.0372 0.02696,-0.08106 0.02723,-0.08052 0.06552,-0.178553 0.09218,-0.235986 0.01869,-0.04027 0.02698,-0.06099 0.0205,-0.05126 -0.0027,0.004 -0.01543,0.02323 -0.02832,0.04266 -0.02829,0.04264 -0.04036,0.05295 -0.05447,0.04652 -0.0054,-0.0024 -0.01085,-0.0087 -0.01217,-0.01399 -0.0064,-0.02563 0.01936,-0.161441 0.06464,-0.340339 0.146619,-0.579286 0.304635,-0.923621 0.525321,-1.144731 0.120309,-0.12054 0.212212,-0.177772 0.330187,-0.205622 0.04916,-0.0116 0.185624,-0.01384 0.319673,-0.0052 0.05658,0.0036 0.103563,0.0059 0.104402,0.0051 8.4e-4,-8.39e-4 -0.04809,-0.0067 -0.108735,-0.01301 -0.198125,-0.02063 -0.285502,-0.01297 -0.404683,0.03547 -0.132492,0.05386 -0.260586,0.164868 -0.374746,0.324765 -0.08179,0.114561 -0.170418,0.288922 -0.239929,0.472029 -0.106462,0.280446 -0.198716,0.654575 -0.258621,1.048828 -0.0077,0.05049 -0.0149,0.09751 -0.01607,0.104492 l -0.0021,0.0127 h -0.04084 -0.04084 z m 1.975586,-1.10881 c -0.0038,-9.83e-4 -0.0099,-9.83e-4 -0.01367,0 -0.0038,9.82e-4 -6.83e-4,0.0018 0.0068,0.0018 0.0075,0 0.0106,-8.04e-4 0.0068,-0.0018 z m -0.03313,-0.0038 c -0.0026,-0.0011 -0.0079,-0.0011 -0.01172,-1.45e-4 -0.0038,9.91e-4 -0.0016,0.0019 0.0048,0.0019 0.0064,7.9e-5 0.0096,-7.31e-4 0.0069,-0.0018 z m -0.03726,-0.0037 c -0.0013,-0.0013 -0.0047,-0.0014 -0.0075,-3.08e-4 -0.0031,0.0012 -0.0022,0.0022 0.0024,0.0024 0.0041,1.69e-4 0.0064,-7.54e-4 0.0051,-0.0021 z m -0.304687,-0.03125 c -0.0013,-0.0013 -0.0047,-0.0014 -0.0075,-3.08e-4 -0.0031,0.0012 -0.0022,0.0022 0.0024,0.0024 0.0041,1.69e-4 0.0064,-7.54e-4 0.0051,-0.0021 z m -0.03898,-0.0042 c -0.0038,-9.82e-4 -0.0099,-9.82e-4 -0.01367,0 -0.0038,9.83e-4 -6.84e-4,0.0018 0.0068,0.0018 0.0075,0 0.0106,-8.04e-4 0.0068,-0.0018 z m -0.04102,-0.004 c -0.0048,-9.31e-4 -0.01274,-9.31e-4 -0.01758,0 -0.0048,9.31e-4 -8.79e-4,0.0017 0.0088,0.0017 0.0097,0 0.01362,-7.62e-4 0.0088,-0.0017 z"
     id="path33"
     transform="scale(0.75)" />
  <path
     style="fill:#ffffff;fill-opacity:1;stroke:#ffffff;stroke-width:0.00390625;stroke-opacity:1"
     d="m 48.017574,41.391602 c -3e-6,-0.277686 -0.0012,-1.001026 -0.0026,-1.607422 l -0.0026,-1.102539 h 1.990882 1.990883 v 0.751953 c 0,0.413574 -0.0015,0.751953 -0.0033,0.751953 -0.0018,0 -0.01368,-0.0036 -0.02637,-0.008 -0.05134,-0.01782 -0.128486,-0.03176 -0.204713,-0.03699 -0.02041,-0.0014 -0.103907,-0.0093 -0.185547,-0.01766 -0.139102,-0.01417 -0.15258,-0.01623 -0.21429,-0.03276 -0.261239,-0.07 -0.527315,-0.09885 -0.813867,-0.08824 l -0.120281,0.0045 -0.185436,-0.01955 c -0.10199,-0.01076 -0.186105,-0.01888 -0.186923,-0.01807 -8.17e-4,8.18e-4 0.0053,0.0026 0.01356,0.004 0.107741,0.01813 0.126375,0.02376 0.126375,0.03818 0,0.01256 -0.0093,0.02017 -0.03718,0.03054 -0.03053,0.01134 -0.03445,0.01516 -0.01101,0.01073 0.05335,-0.01008 0.133662,-0.02298 0.177099,-0.02845 0.115244,-0.01451 0.117622,-0.01455 0.217457,-0.0042 0.0512,0.0053 0.230199,0.02374 0.397777,0.04099 0.480564,0.04945 0.483415,0.04979 0.528074,0.06278 0.123383,0.03587 0.315593,0.116953 0.459001,0.193629 l 0.06953,0.03717 9.96e-4,0.771199 9.96e-4,0.771199 -1.940504,-10e-7 h -1.940504 l 0.0026,-0.01074 c 0.01042,-0.04346 0.07781,-0.222684 0.116033,-0.308594 0.0098,-0.02202 0.01726,-0.04004 0.01657,-0.04004 -6.8e-4,0 -0.01051,0.01413 -0.02185,0.0314 -0.03281,0.04998 -0.05293,0.06164 -0.06601,0.03827 -0.005,-0.009 -0.0052,-0.01581 -8.59e-4,-0.05021 0.0027,-0.02189 0.0043,-0.0405 0.0034,-0.04137 -0.0022,-0.0022 -0.03123,0.162745 -0.04782,0.271908 -0.0077,0.05049 -0.01478,0.09575 -0.01581,0.100586 -0.0018,0.0084 -0.0035,0.0088 -0.0428,0.0088 h -0.04094 z m 0.151029,0.105468 c -0.0011,-0.0027 -0.002,-4.88e-4 -0.002,0.0049 0,0.0054 8.87e-4,0.0076 0.002,0.0049 0.0011,-0.0027 0.0011,-0.0071 0,-0.0098 z m 0.0039,-0.01953 c -0.0011,-0.0027 -0.002,-4.88e-4 -0.002,0.0049 0,0.0054 8.86e-4,0.0076 0.002,0.0049 0.0011,-0.0027 0.0011,-0.0071 0,-0.0098 z m 0.004,-0.01929 c -0.0012,-0.0031 -0.0022,-0.0022 -0.0024,0.0024 -1.7e-4,0.0041 7.53e-4,0.0064 0.0021,0.0051 0.0013,-0.0013 0.0014,-0.0047 3.09e-4,-0.0075 z m 0.0038,-0.01978 c -0.0011,-0.0027 -0.002,-4.89e-4 -0.002,0.0049 0,0.0054 8.87e-4,0.0076 0.002,0.0049 0.0011,-0.0027 0.0011,-0.0071 0,-0.0098 z m 0.0039,-0.01953 c -0.0011,-0.0027 -0.002,-4.88e-4 -0.002,0.0049 0,0.0054 8.87e-4,0.0076 0.002,0.0049 0.0011,-0.0027 0.0011,-0.0071 0,-0.0098 z m 0.0084,-0.03223 c 0,-0.0062 -6.51e-4,-0.0058 -0.0031,0.002 -0.0017,0.0054 -0.0031,0.01328 -0.0031,0.01758 0,0.0062 6.51e-4,0.0058 0.0031,-0.002 0.0017,-0.0054 0.0031,-0.01328 0.0031,-0.01758 z m 0.06943,-0.270524 c 0.141135,-0.50802 0.294659,-0.816252 0.508238,-1.020391 0.125386,-0.119843 0.223775,-0.173864 0.348888,-0.191555 0.03578,-0.0051 0.185842,-0.0051 0.257812,-2.2e-5 0.06473,0.0045 0.09571,0.0045 0.06055,-1.13e-4 -0.135122,-0.01767 -0.266996,-0.01943 -0.335938,-0.0045 -0.208193,0.04513 -0.392487,0.198683 -0.547094,0.455841 -0.11786,0.196037 -0.225296,0.472997 -0.309875,0.798828 -0.01937,0.07461 -0.05131,0.211846 -0.05102,0.219193 1.18e-4,0.003 0.01148,-0.03898 0.02524,-0.09323 0.01376,-0.05426 0.03321,-0.128085 0.0432,-0.164063 z"
     id="path34"
     transform="scale(0.75)" />
  <path
     style="fill:#ffffff;fill-opacity:1;stroke:#ffffff;stroke-width:0.00390625;stroke-opacity:1"
     d="m 49.206055,39.893588 c 0.0145,-7.52e-4 0.03823,-7.52e-4 0.05273,0 0.0145,7.51e-4 0.0026,0.0014 -0.02637,0.0014 -0.029,0 -0.04087,-6.15e-4 -0.02637,-0.0014 z"
     id="path35"
     transform="scale(0.75)" />
  <path
     style="fill:#ffffff;fill-opacity:1;stroke:#ffffff;stroke-width:0.75;stroke-opacity:1"
     id="path36"
     d="m 39.364357,31.442789 c 0.0014,0.04675 -0.0039,0.09334 -0.0083,0.139804 -0.0039,0.03734 -0.008,0.07466 -0.01205,0.111986 0,0 0.0021,2.3e-5 0.0021,2.3e-5 v 0 c 0.0039,-0.03733 0.0079,-0.07466 0.01181,-0.111991 0.0046,-0.04648 0.01003,-0.09304 0.0093,-0.139822 z" />
  <path
     style="fill:#ffffff;fill-opacity:1;stroke:#ffffff;stroke-width:0.75;stroke-opacity:1"
     id="path37"
     d="m 39.50541,31.717899 c -0.0038,0.04964 -0.0058,0.09939 -0.0076,0.149128 -3.16e-4,0.0092 -6.31e-4,0.0185 -9.75e-4,0.02775 0,0 0.0022,6e-6 0.0022,6e-6 v 0 c 2.8e-4,-0.0092 5.62e-4,-0.0185 8.25e-4,-0.02775 0.0018,-0.04975 0.0037,-0.09952 0.0083,-0.149105 z" />
  <path
     style="fill:#ffffff;fill-opacity:1;stroke:#ffffff;stroke-width:0.75;stroke-opacity:1"
     id="path38"
     d="m 39.600151,32.190253 c -1.62e-4,-0.01015 -0.0018,-0.02026 -0.0038,-0.03019 -0.0016,-0.007 -8.25e-4,-0.0036 -0.0022,-0.01025 0,0 -0.0027,5.8e-5 -0.0027,5.8e-5 v 0 c 0.0014,0.0067 6.99e-4,0.0032 0.0023,0.01025 0.002,0.0099 0.0037,0.02 0.0037,0.03014 z" />
  <path
     style="fill:#ffffff;fill-opacity:1;stroke:#ffffff;stroke-width:0.75;stroke-opacity:1"
     id="path39"
     d="m 39.591358,32.129709 c 0.0015,-0.01784 0.0019,-0.03575 0.0023,-0.05364 0,0 -0.0025,-6e-6 -0.0025,-6e-6 v 0 c -4.31e-4,0.0179 -8.25e-4,0.03581 -0.0025,0.05365 z" />
  <path
     style="fill:#ffffff;fill-opacity:1;stroke:#ffffff;stroke-width:0.75;stroke-opacity:1"
     id="path40"
     d="m 39.594296,32.03719 c 4.03e-4,-0.01252 0.0016,-0.02497 0.0017,-0.03752 -6.7e-5,-0.0024 -1.35e-4,-0.0049 -2.02e-4,-0.0073 0,0 -0.0027,8e-6 -0.0027,8e-6 v 0 c 7.2e-5,0.0024 1.43e-4,0.0049 2.15e-4,0.0073 -1.3e-5,0.01255 -0.0013,0.025 -0.0019,0.03751 z" />
  <path
     style="fill:#ffffff;fill-opacity:1;stroke:#ffffff;stroke-width:0.015625;stroke-opacity:1"
     d="m 52.633194,40.855993 c -0.213729,-0.249454 -0.638914,-0.544569 -0.965002,-0.669795 -0.06218,-0.02388 -0.110469,-0.04601 -0.107305,-0.04917 0.01458,-0.01458 0.340127,0.03075 0.426464,0.05938 0.236132,0.07832 0.47091,0.299497 0.660127,0.621889 0.02709,0.04616 0.04636,0.08682 0.04281,0.09037 -0.0035,0.0035 -0.02924,-0.02016 -0.0571,-0.05268 z"
     id="path41"
     transform="scale(0.75)" />
  <path
     style="fill:#ffffff;fill-opacity:1;stroke:#ffffff;stroke-width:0.015625;stroke-opacity:1"
     d="m 50.820312,40.039062 c -0.199521,-0.02227 -0.223498,-0.02741 -0.136102,-0.02914 0.11189,-0.0022 0.371899,0.02263 0.464227,0.04437 l 0.05469,0.01288 -0.07031,-5.37e-4 c -0.03867,-2.96e-4 -0.179296,-0.0127 -0.3125,-0.02757 z"
     id="path42"
     transform="scale(0.75)" />
  <path
     style="fill:#ffffff;fill-opacity:1;stroke:#ffffff;stroke-width:0.015625;stroke-opacity:1"
     d="m 50.203125,40.007812 c -0.01165,-0.01885 0.04987,-0.01885 0.09375,0 0.02519,0.01082 0.02006,0.01364 -0.02642,0.01453 -0.03172,6.04e-4 -0.06202,-0.0059 -0.06733,-0.01453 z"
     id="path43"
     transform="scale(0.75)" />
  <path
     style="fill:#ffffff;fill-opacity:1;stroke:#ffffff;stroke-width:0.015625;stroke-opacity:1"
     d=""
     id="path44"
     transform="scale(0.75)" />
  <path
     style="fill:#ffffff;fill-opacity:1;stroke:#ffffff;stroke-width:0.015625;stroke-opacity:1"
     d=""
     id="path45"
     transform="scale(0.75)" />
  <path
     style="fill:#ffffff;fill-opacity:1;stroke:#ffffff;stroke-width:0.015625;stroke-opacity:1"
     d=""
     id="path46"
     transform="scale(0.75)" />
  <path
     style="fill:#ffffff;fill-opacity:1;stroke:#ffffff;stroke-width:0.015625;stroke-opacity:1"
     d=""
     id="path47"
     transform="scale(0.75)" />
  <path
     style="fill:#ffffff;fill-opacity:1;stroke:#ffffff;stroke-width:0.015625;stroke-opacity:1"
     d="m 53.025664,41.675781 c -0.01847,-0.0623 -0.03355,-0.146679 -0.03353,-0.1875 4e-5,-0.06024 -0.0051,-0.07424 -0.02729,-0.07434 -0.01974,-8.7e-5 -0.04121,-0.03583 -0.0772,-0.128528 -0.02742,-0.07062 -0.04735,-0.130918 -0.04428,-0.133987 0.01787,-0.01787 0.235579,0.380125 0.303919,0.555605 l 0.03195,0.08203 h -0.06 -0.06 z"
     id="path48"
     transform="scale(0.75)" />
  <path
     style="fill:#ffffff;fill-opacity:1;stroke:#ffffff;stroke-width:0.015625;stroke-opacity:1"
     d=""
     id="path49"
     transform="scale(0.75)" />
  <path
     style="fill:#ffffff;fill-opacity:1;stroke:#ffffff;stroke-width:0.75;stroke-opacity:1"
     d="m 38.61569,30.000877 c -0.0577,0.12117 0.234378,0.161316 0.234378,0.284904"
     id="path50" />
  <path
     style="fill:#ffffff;fill-opacity:1;stroke:#ffffff;stroke-width:0.75;stroke-opacity:1"
     d="m 37.439683,29.670225 c -0.0017,0.329704 0.140456,0.604751 0.400592,0.803806 0.08462,0.06475 0.217643,0.133159 0.324594,0.07484 0.07769,-0.04237 0.118054,-0.152538 0.150113,-0.226991 0.02258,-0.05243 0.05716,-0.128411 0.07351,-0.182865 0.019,-0.06326 0.0235,-0.31023 0.01172,-0.375 -0.026,-0.14302 -0.166801,-0.28005 -0.272087,-0.366917 -0.02218,-0.01829 -0.05772,-0.0353 -0.08569,-0.04928 -0.02817,-0.01409 -0.05308,-0.03447 -0.08203,-0.04687 -0.06754,-0.02894 -0.163372,-0.01172 -0.234375,-0.01172 -0.04624,0 -0.09949,-0.0074 -0.140625,0.02344 -0.01397,0.01048 -0.01562,0.03125 -0.02344,0.04687 -0.0078,0.01562 -0.0173,0.03052 -0.02344,0.04687 -0.03854,0.102776 -0.02344,0.220265 -0.02344,0.328125 0,0.01953 0,0.03906 0,0.0586 0,0.0073 0.0052,0.01688 0,0.0221 -0.0149,0.0149 -0.09931,-0.04052 -0.103835,-0.07031 -0.004,-0.02633 0.01895,-0.04979 0.02842,-0.07469 z"
     id="path51" />
  <path
     style="fill:#ffffff;fill-opacity:1;stroke:#ffffff;stroke-width:0.75;stroke-opacity:1"
     d="m 36.578962,29.83561 c -0.06212,0.0068 -0.112265,0.04655 -0.139461,0.105469 -0.03932,0.08517 -0.06267,0.261353 -0.01109,0.347925 0.01131,0.01898 0.03125,0.03125 0.04687,0.04687 0.01381,0.01381 0.02605,0.03099 0.04687,0.03515 0.141461,0.02829 0.38976,-0.09087 0.498385,-0.142528 0.108592,-0.05164 0.113766,-0.06709 0.182558,-0.152269 0.01235,-0.01529 0.03351,-0.02758 0.03542,-0.04714 0.0046,-0.04682 -0.06967,-0.13967 -0.08907,-0.162017 -0.07322,-0.08439 -0.173992,-0.178097 -0.267313,-0.242058 -0.03642,-0.02496 -0.178257,0.03662 -0.209017,0.04687"
     id="path52" />
  <path
     style="fill:#ffffff;fill-opacity:1;stroke:#ffffff;stroke-width:0.0078125;stroke-opacity:1"
     d="m 48.113451,41.861471 c -2.61e-4,-0.02081 0.03822,-0.250116 0.04272,-0.254626 0.0022,-0.0022 0.004,5.2e-4 0.004,0.006 0,0.0067 0.0078,0.0089 0.02344,0.0066 0.01289,-0.0019 0.02344,-0.0011 0.02344,0.0017 0,0.0028 -0.0092,0.02769 -0.02053,0.05529 -0.01129,0.0276 -0.03231,0.08357 -0.04671,0.124394 -0.0144,0.04082 -0.02625,0.06813 -0.02634,0.06069 z"
     id="path54"
     transform="scale(0.75)" />
  <path
     style="fill:#ffffff;fill-opacity:1;stroke:#ffffff;stroke-width:0.0078125;stroke-opacity:1"
     d="m 48.003906,43.835937 c 0,-0.507812 0.0027,-0.769531 0.0078,-0.769531 0.005,0 0.0072,-0.04648 0.0062,-0.126953 l -0.0016,-0.126953 -0.0047,0.09375 c -0.0029,0.05828 -0.0046,0.0021 -0.0046,-0.148438 1.01e-4,-0.202529 8.03e-4,-0.21788 0.0043,-0.09375 0.0047,0.168647 0.0063,0.160624 0.02777,-0.140625 0.01855,-0.2606 0.04918,-0.521776 0.07084,-0.604083 0.0216,-0.08209 0.07667,-0.237736 0.111919,-0.316291 0.0129,-0.02875 0.02231,-0.05228 0.02092,-0.05228 -0.0057,0 -0.04697,0.06688 -0.04513,0.07306 0.003,0.01021 -0.07082,0.203232 -0.08115,0.212099 -0.005,0.0043 -0.01349,0.03594 -0.01885,0.07031 -0.0054,0.03437 -0.01795,0.0959 -0.02798,0.136719 -0.01003,0.04082 -0.02514,0.11289 -0.03358,0.160156 l -0.01534,0.08594 -7.53e-4,-0.742187 c -4.15e-4,-0.408203 -0.003,-1.106055 -0.0057,-1.550781 -0.0027,-0.444727 -0.0022,-1.036231 0.001,-1.314453 l 0.0059,-0.50586 h 2.405311 2.405311 l -3.9e-5,1.462891 -3.8e-5,1.46289 -0.01897,-0.02344 c -0.02599,-0.03211 -0.04371,-0.0618 -0.106898,-0.179126 -0.06387,-0.11859 -0.136952,-0.232201 -0.208918,-0.32478 -0.05717,-0.07355 -0.168013,-0.192121 -0.191189,-0.204525 -0.02402,-0.01285 -0.0078,0.0076 0.04414,0.05571 0.0253,0.02343 0.07405,0.07616 0.108332,0.117188 0.10631,0.127233 0.246184,0.349119 0.230173,0.36513 -0.0032,0.0032 -0.04378,-0.03449 -0.09017,-0.08377 -0.07894,-0.08383 -0.159957,-0.157783 -0.256656,-0.234259 -0.02256,-0.01784 -0.04102,-0.03078 -0.04102,-0.02875 0,0.002 0.02549,0.02423 0.05664,0.04934 0.08176,0.06589 0.246964,0.228235 0.328276,0.322585 0.05183,0.06015 0.0795,0.100799 0.106254,0.156139 l 0.03617,0.07482 0.0039,1.720815 0.0039,1.720814 H 50.419666 48.00365 Z m 0.124451,-2.044921 c 3.02e-4,-0.0032 -0.003,-0.0059 -0.0073,-0.0059 -0.0043,0 -0.0076,0.0097 -0.0073,0.02148 4.87e-4,0.01904 0.0013,0.01971 0.0073,0.0059 0.0037,-0.0086 0.007,-0.01826 0.0073,-0.02148 z m 0.01061,-0.07031 c 0.0025,-0.01627 0.0013,-0.0293 -0.0027,-0.0293 -0.004,0 -0.0074,0.0062 -0.0074,0.01367 -4.7e-5,0.0075 -0.0019,0.02773 -0.0041,0.04492 -0.0051,0.03954 0.0076,0.01356 0.01426,-0.0293 z m 0.01283,-0.07031 c 3.02e-4,-0.0032 -0.003,-0.0059 -0.0073,-0.0059 -0.0043,0 -0.0076,0.0097 -0.0073,0.02148 4.86e-4,0.01904 0.0013,0.01971 0.0073,0.0059 0.0037,-0.0086 0.007,-0.01826 0.0073,-0.02148 z m 0.0067,-0.07227 -1.45e-4,-0.02344 -0.006,0.02344 c -0.0033,0.01289 -0.006,0.03223 -0.0061,0.04297 l -1.45e-4,0.01953 0.0063,-0.01953 c 0.0034,-0.01074 0.0062,-0.03008 0.0061,-0.04297 z m 0.07735,-0.372559 c -0.0025,-0.0062 -0.0043,-0.0044 -0.0047,0.0047 -3.39e-4,0.0082 0.0015,0.01285 0.0041,0.01025 0.0026,-0.0026 0.0029,-0.0093 6.17e-4,-0.01497 z m 0.0078,-0.03125 c -0.0025,-0.0062 -0.0043,-0.0044 -0.0047,0.0047 -3.39e-4,0.0082 0.0015,0.01285 0.0041,0.01025 0.0026,-0.0026 0.0029,-0.0093 6.17e-4,-0.01497 z m 0.0078,-0.03125 c -0.0025,-0.0062 -0.0043,-0.0044 -0.0047,0.0047 -3.39e-4,0.0082 0.0015,0.01285 0.0041,0.01025 0.0026,-0.0026 0.0029,-0.0093 6.17e-4,-0.01497 z M 48.296164,41 c 0.01915,-0.06445 0.03686,-0.124219 0.03936,-0.132813 0.0025,-0.0086 -8.52e-4,-0.004 -0.0075,0.01013 -0.01355,0.02906 -0.0745,0.233685 -0.07355,0.24691 8.81e-4,0.01226 0.0028,0.0065 0.04164,-0.124226 z m 3.996805,-0.444356 c 0,-0.0016 -0.0062,-0.0078 -0.01367,-0.01367 -0.01239,-0.0097 -0.01267,-0.0094 -0.0029,0.0029 0.01021,0.01301 0.01662,0.01715 0.01662,0.01072 z m -0.03125,-0.02344 c 0,-0.0016 -0.0062,-0.0078 -0.01367,-0.01367 -0.01239,-0.0097 -0.01267,-0.0094 -0.0029,0.0029 0.01021,0.01301 0.01662,0.01715 0.01662,0.01072 z m -0.03125,-0.02344 c 0,-0.0016 -0.0062,-0.0078 -0.01367,-0.01367 -0.01239,-0.0097 -0.01267,-0.0094 -0.0029,0.0029 0.01021,0.01301 0.01662,0.01715 0.01662,0.01072 z M 52.082031,40.40652 c 0,-0.002 -0.0079,-0.0075 -0.01758,-0.01215 -0.01688,-0.0082 -0.01698,-0.008 -0.0024,0.0036 0.01594,0.01277 0.01999,0.0145 0.01999,0.0085 z m -0.129297,-0.230193 c -0.01016,-0.0099 -0.131068,-0.0337 -0.153414,-0.03014 -0.0099,0.0016 0.01884,0.01024 0.06396,0.01924 0.101218,0.02019 0.09862,0.01988 0.08945,0.0109 z"
     id="path55"
     transform="scale(0.75)" />
  <path
     style="fill:#ffffff;fill-opacity:1;stroke:#ffffff;stroke-width:0.0078125;stroke-opacity:1"
     d="m 48.007063,43.826172 c 0.0019,-0.428613 0.0051,-0.807422 0.0071,-0.841797 0.0026,-0.04465 0.002,-0.05134 -0.0021,-0.02344 -0.0031,0.02148 -0.0055,-0.06992 -0.0053,-0.203125 2.72e-4,-0.165566 0.0017,-0.206348 0.0046,-0.128906 0.0053,0.140787 0.01096,0.116736 0.02777,-0.117187 0.0069,-0.09668 0.02119,-0.250938 0.03166,-0.342796 0.01046,-0.09186 0.01869,-0.172717 0.01828,-0.179687 -0.0012,-0.0196 -0.0356,0.126176 -0.05146,0.217795 l -0.0142,0.08203 -0.0039,-0.507812 c -0.0046,-0.596723 -0.0062,-3.313089 -0.0021,-3.486328 l 0.0028,-0.119141 h 2.405859 2.405858 l -2.1e-4,1.462891 -2.1e-4,1.46289 -0.02292,-0.02734 c -0.01261,-0.01504 -0.04669,-0.07022 -0.07573,-0.122625 -0.02904,-0.05241 -0.05392,-0.09417 -0.05528,-0.09281 -0.0014,0.0014 0.0017,0.01173 0.0069,0.02305 0.01772,0.03889 -0.0015,0.03127 -0.05784,-0.02289 l -0.05642,-0.05426 0.04782,0.05078 c 0.08959,0.09514 0.143095,0.165853 0.176564,0.23336 l 0.03343,0.06742 0.0039,1.72461 0.0039,1.724609 h -2.416162 -2.416163 z m 0.121181,-1.976592 c 0.0082,-0.02687 0.01196,-0.04705 0.0084,-0.04483 -0.0036,0.0022 -0.0088,0.01453 -0.01164,0.02737 -0.0028,0.01284 -0.0078,0.02335 -0.01097,0.02335 -0.0058,0 -0.02489,0.0899 -0.02335,0.110276 4.48e-4,0.0059 0.0057,-0.0068 0.01175,-0.02824 0.006,-0.02148 0.01764,-0.06105 0.02583,-0.08792 z m 0.006,-0.144014 c -0.0025,-0.0062 -0.0043,-0.0044 -0.0047,0.0047 -3.39e-4,0.0082 0.0015,0.01285 0.0041,0.01025 0.0026,-0.0026 0.0029,-0.0093 6.17e-4,-0.01497 z m 0.08745,-0.105013 c 0.01311,-0.02878 0.0068,-0.03052 -0.0097,-0.0027 -0.0075,0.01276 -0.01055,0.0232 -0.0067,0.0232 0.0038,0 0.01121,-0.0092 0.01636,-0.02054 z m 4.329086,-0.823209 c -0.0046,-0.0086 -0.01012,-0.01563 -0.01227,-0.01563 -0.0021,0 -1.43e-4,0.007 0.0045,0.01563 0.0046,0.0086 0.01012,0.01563 0.01227,0.01563 0.0021,0 1.43e-4,-0.007 -0.0045,-0.01563 z m -0.02344,-0.01787 c 0,-0.0012 -0.01846,-0.01969 -0.04102,-0.04102 l -0.04102,-0.03877 0.03877,0.04102 c 0.03602,0.03811 0.04326,0.0446 0.04326,0.03877 z m 0.07813,-0.029 c -0.0046,-0.0086 -0.01012,-0.01563 -0.01227,-0.01563 -0.0021,0 -1.43e-4,0.007 0.0045,0.01563 0.0046,0.0086 0.01012,0.01563 0.01227,0.01563 0.0021,0 1.43e-4,-0.007 -0.0045,-0.01563 z m -0.03906,-0.05859 c -0.0133,-0.01934 -0.02595,-0.03516 -0.02809,-0.03516 -0.0021,0 0.007,0.01582 0.02028,0.03516 0.0133,0.01934 0.02595,0.03516 0.02809,0.03516 0.0021,0 -0.007,-0.01582 -0.02028,-0.03516 z m -0.03125,-0.04592 c 0,-0.0016 -0.0062,-0.0078 -0.01367,-0.01367 -0.01239,-0.0097 -0.01267,-0.0094 -0.0029,0.0029 0.01021,0.01301 0.01662,0.01715 0.01662,0.01072 z m -0.05156,-0.06541 c -0.05186,-0.06415 -0.138822,-0.157408 -0.163254,-0.175079 -0.01291,-0.0093 0.01,0.01789 0.05087,0.0605 0.04089,0.04261 0.08789,0.09417 0.104457,0.114582 0.01656,0.02041 0.03187,0.03711 0.03402,0.03711 0.0021,0 -0.0096,-0.0167 -0.02609,-0.03711 z m -0.57735,-0.396663 c -0.02148,-0.0055 -0.04961,-0.01 -0.0625,-0.0099 -0.01612,8.8e-5 -0.01002,0.0032 0.01953,0.01009 0.05622,0.01304 0.09378,0.01288 0.04297,-1.78e-4 z"
     id="path56"
     transform="scale(0.75)" />
  <path
     style="fill:#ffffff;fill-opacity:1;stroke:#ffffff;stroke-width:0.0078125;stroke-opacity:1"
     d="m 48.023377,42.457031 c 0.0024,-0.132427 0.0063,-0.175711 0.02208,-0.25 0.02152,-0.101078 0.02494,-0.09722 0.01238,0.01398 -0.0047,0.04172 -0.01506,0.147934 -0.02299,0.23602 l -0.01442,0.160156 z"
     id="path57"
     transform="scale(0.75)" />
  <path
     style="fill:#ffffff;fill-opacity:1;stroke:#ffffff;stroke-width:0.0078125;stroke-opacity:1"
     d="m 48.005637,43.560547 c 10e-4,-0.574707 0.003,-1.009804 0.0043,-0.966882 0.0013,0.04292 0.0058,0.08142 0.0099,0.08555 0.0048,0.0048 0.0075,-0.0022 0.0076,-0.01945 2.5e-5,-0.01482 0.0014,-0.05508 0.003,-0.08945 0.0024,-0.05088 0.0019,-0.05451 -0.0026,-0.01953 l -0.0056,0.04297 -0.0013,-0.04787 c -9.41e-4,-0.03428 0.002,-0.05063 0.0104,-0.0576 0.0072,-0.006 0.01142,-0.02202 0.01093,-0.04197 l -7.85e-4,-0.03225 -0.0072,0.03079 c -0.01091,0.04655 -0.01673,0.04482 -0.01156,-0.0034 0.0025,-0.02363 0.0063,-0.07159 0.0085,-0.106576 0.0021,-0.03498 0.0063,-0.06984 0.0092,-0.07745 0.0036,-0.0095 0.0024,-0.01206 -0.0038,-0.0082 -0.005,0.0031 -0.0098,0.01335 -0.01065,0.02277 -0.0073,0.0823 -0.01183,-0.714023 -0.01294,-2.258273 l -0.0013,-1.837891 h 2.410234 2.410233 v 1.466255 1.466255 l -0.03169,-0.04243 c -0.01743,-0.02333 -0.04819,-0.07335 -0.06836,-0.111147 -0.02017,-0.0378 -0.0378,-0.06329 -0.03919,-0.05664 -0.0031,0.01463 -0.01022,0.01529 -0.025,0.0023 -0.01301,-0.01142 -0.0048,-6.59e-4 0.05391,0.07107 0.02234,0.02727 0.05542,0.07825 0.07352,0.113281 l 0.03291,0.06369 0.0039,1.728516 0.0039,1.728516 h -2.416084 -2.416083 z m 0.04367,-1.201172 -3.75e-4,-0.02344 -0.006,0.02344 c -0.0033,0.01289 -0.0061,0.03047 -0.0063,0.03906 l -3.76e-4,0.01563 0.0067,-0.01563 c 0.0037,-0.0086 0.0065,-0.02617 0.0063,-0.03906 z m 0.0076,-0.08203 c -1.31e-4,-0.01754 -7.53e-4,-0.01715 -0.0061,0.0039 -0.0033,0.01289 -0.006,0.03047 -0.0061,0.03906 -1.14e-4,0.01224 0.0012,0.0114 0.0061,-0.0039 0.0034,-0.01074 0.0062,-0.02832 0.0061,-0.03906 z m 0.0056,-0.105457 c -0.003,-0.02451 -0.0022,-0.03522 0.0023,-0.02872 0.0047,0.0069 0.009,-0.0098 0.01258,-0.04972 0.003,-0.03304 0.004,-0.06153 0.0022,-0.06332 -0.0033,-0.0033 -0.03366,0.135359 -0.04042,0.184723 l -0.0037,0.02734 0.01164,-0.03125 0.01164,-0.03125 -0.0037,0.03516 c -0.0031,0.0294 -0.0024,0.03196 0.0043,0.01564 0.0044,-0.01073 0.0058,-0.0371 0.0032,-0.05859 z m 0.054,-0.292981 c 0.0036,-0.01857 0.0029,-0.02358 -0.0022,-0.01563 -0.0041,0.0064 -0.0096,0.02578 -0.0122,0.04297 -0.0057,0.03765 0.0063,0.01481 0.01438,-0.02734 z"
     id="path58"
     transform="scale(0.75)" />
  <path
     style="fill:#ffffff;fill-opacity:1;stroke:#ffffff;stroke-width:0.00390625;stroke-opacity:1"
     d="m 48.003456,42.983398 c 0.0011,-0.268017 0.0036,-0.500488 0.0055,-0.516601 0.0029,-0.02424 0.0036,-0.01405 0.0041,0.05898 6.9e-4,0.09643 0.0038,0.14805 0.009,0.14805 0.0018,0 0.0033,-0.01538 0.0033,-0.03418 -4.3e-5,-0.02458 -0.0012,-0.03253 -0.0041,-0.02832 -0.0048,0.0071 -0.002,-0.177762 0.0042,-0.269092 0.0043,-0.06344 0.0031,-0.08005 -0.0029,-0.0388 -0.004,0.02783 -0.0077,-0.47578 -0.01059,-1.443085 l -0.0018,-0.604493 h 1.234147 1.234146 l 9.86e-4,1.607422 9.86e-4,1.607422 H 49.240915 48.0014 Z m 0.03632,-0.532959 c -0.0012,-0.0031 -0.0022,-0.0022 -0.0024,0.0024 -1.7e-4,0.0041 7.53e-4,0.0064 0.0021,0.0051 0.0013,-0.0013 0.0014,-0.0047 3.09e-4,-0.0075 z m -0.0078,-0.183593 c -0.0012,-0.0031 -0.0022,-0.0022 -0.0024,0.0024 -1.69e-4,0.0041 7.54e-4,0.0064 0.0021,0.0051 0.0013,-0.0013 0.0014,-0.0047 3.08e-4,-0.0075 z m 0.01953,-0.101563 c -0.0012,-0.0031 -0.0022,-0.0022 -0.0024,0.0024 -1.7e-4,0.0041 7.53e-4,0.0064 0.0021,0.0051 0.0013,-0.0013 0.0014,-0.0047 3.09e-4,-0.0075 z m 0.01458,-0.03187 c 0.0044,-0.0033 0.0065,-0.01479 0.0081,-0.04357 l 0.0021,-0.03906 -0.0096,0.03901 c -0.0103,0.04191 -0.0168,0.07995 -0.01012,0.05925 0.002,-0.0061 0.0063,-0.01314 0.0096,-0.01563 z m 0.04686,-0.246049 c 0.0015,-0.0065 0.0011,-0.01014 -9.98e-4,-0.0088 -0.002,0.0012 -0.0044,0.0076 -0.0054,0.01412 -0.0021,0.01429 0.0027,0.01033 0.0064,-0.0053 z"
     id="path59"
     transform="scale(0.75)" />
  <path
     style="fill:#ffffff;fill-opacity:1;stroke:#ffffff;stroke-width:0.00390625;stroke-opacity:1"
     d=""
     id="path60"
     transform="scale(0.75)" />
  <path
     style="fill:#ffffff;fill-opacity:1;stroke:#ffffff;stroke-width:0.00390625;stroke-opacity:1"
     d="m 48.06507,42.115234 c 0,-0.0054 8.87e-4,-0.0076 0.002,-0.0049 0.0011,0.0027 0.0011,0.0071 0,0.0098 -0.0011,0.0027 -0.002,4.88e-4 -0.002,-0.0049 z"
     id="path61"
     transform="scale(0.75)" />
  <path
     style="fill:#ffffff;fill-opacity:1;stroke:#ffffff;stroke-width:0.00390625;stroke-opacity:1"
     d="m 48.003373,42.977539 c 0.0011,-0.27124 0.0036,-0.503711 0.0056,-0.516602 0.0029,-0.01903 0.0038,-0.0073 0.0048,0.0625 l 0.0012,0.08594 0.0027,-0.09766 c 0.0015,-0.05371 0.0037,-0.123145 0.005,-0.154297 0.0013,-0.03172 8.78e-4,-0.05063 -8.89e-4,-0.04297 -0.0018,0.0077 -0.0035,-0.06693 -0.004,-0.171875 -4.47e-4,-0.102051 -0.0013,-0.188183 -0.0019,-0.191406 -6.22e-4,-0.0032 -0.0024,-0.385986 -0.004,-0.850586 l -0.0029,-0.844727 h 1.234764 1.234764 l 9.86e-4,1.607422 9.86e-4,1.607422 h -1.239547 -1.239548 z m 0.02202,-0.336914 c 0,-0.01432 -0.0017,-0.02539 -0.0039,-0.02539 -0.0022,0 -0.0039,0.01107 -0.0039,0.02539 0,0.01432 0.0017,0.02539 0.0039,0.02539 0.0022,0 0.0039,-0.01107 0.0039,-0.02539 z m 0.04693,-0.534612 c 2.9e-5,-0.0089 0.0011,-0.02056 0.0025,-0.02593 0.0017,-0.0067 0.0012,-0.0085 -0.0016,-0.0059 -0.0022,0.0021 -0.006,0.01354 -0.0085,0.02532 -0.0025,0.01178 -0.0054,0.02584 -0.0065,0.03125 l -0.0021,0.0098 0.0081,-0.0092 c 0.0054,-0.0061 0.0081,-0.01467 0.0081,-0.02539 z"
     id="path62"
     transform="scale(0.75)" />
  <path
     style="fill:#ffffff;fill-opacity:1;stroke:#ffffff;stroke-width:0.00390625;stroke-opacity:1"
     d="m 48.003176,42.969727 c 0.0012,-0.310015 0.0034,-0.506933 0.0057,-0.516602 0.0036,-0.01452 0.0039,-0.01327 0.0049,0.01758 l 0.0011,0.0332 0.0028,-0.04492 c 0.0015,-0.02471 0.0013,-0.153906 -4.55e-4,-0.287109 -0.0018,-0.133203 -0.0045,-0.618799 -0.006,-1.079102 l -0.0028,-0.836914 h 1.234996 1.234996 l 9.86e-4,1.607422 9.86e-4,1.607422 h -1.239587 -1.239586 z m 0.02221,-0.331055 c 0,-0.0083 -0.0018,-0.01625 -0.0039,-0.01758 -0.0024,-0.0015 -0.0039,0.0052 -0.0039,0.01758 0,0.01233 0.0015,0.01907 0.0039,0.01758 0.0021,-0.0013 0.0039,-0.0092 0.0039,-0.01758 z m 0.03984,-0.520313 c -0.0036,-0.0036 -0.0047,-0.0026 -0.0047,0.0047 0,0.0073 10e-4,0.0083 0.0047,0.0047 0.0036,-0.0036 0.0036,-0.0057 0,-0.0094 z m 0.0067,-0.02168 -3.52e-4,-0.01855 -0.0038,0.01317 c -0.0021,0.0072 -0.0029,0.01559 -0.0017,0.01855 0.004,0.01032 0.0062,0.0053 0.0059,-0.01317 z"
     id="path63"
     transform="scale(0.75)" />
  <path
     style="fill:#ffffff;fill-opacity:1;stroke:#ffffff;stroke-width:0.00390625;stroke-opacity:1"
     d="m 48.00071,43.235352 c 0.0028,-0.539884 0.0051,-0.771286 0.0078,-0.78418 l 0.0028,-0.01367 0.0027,0.01172 c 0.0018,0.0078 0.003,7.1e-5 0.0037,-0.02344 0.0013,-0.04596 -5.83e-4,-0.310392 -0.0023,-0.319654 -7.44e-4,-0.0039 -0.0023,-0.388896 -0.0035,-0.855469 -0.0012,-0.466573 -0.003,-0.881273 -0.0041,-0.921556 l -0.002,-0.07324 h 1.236368 1.236368 l 9.86e-4,1.607422 9.86e-4,1.607422 h -1.240494 -1.240493 z m 0.02462,-0.595934 c -3.3e-5,-0.0036 -0.0018,-0.0092 -0.0038,-0.01246 -0.0028,-0.0043 -0.0038,-0.002 -0.0038,0.009 -3.6e-5,0.0089 0.0015,0.01391 0.0038,0.01246 0.0021,-0.0013 0.0039,-0.0054 0.0038,-0.009 z m 0.04303,-0.514187 c 0,-9.48e-4 -0.0018,-0.0028 -0.0039,-0.0041 -0.0021,-0.0013 -0.0039,-5.53e-4 -0.0039,0.0017 0,0.0023 0.0018,0.0041 0.0039,0.0041 0.0021,0 0.0039,-7.75e-4 0.0039,-0.0017 z m 0.0038,-0.02464 c -1.02e-4,-0.0092 -6.88e-4,-0.0098 -0.0041,-0.0039 -0.0022,0.0038 -0.0029,0.0086 -0.0016,0.01074 0.004,0.0065 0.0058,0.0044 0.0057,-0.0069 z"
     id="path64"
     transform="scale(0.75)" />
  <path
     style="fill:#ffffff;fill-opacity:1;stroke:#ffffff;stroke-width:0.00390625;stroke-opacity:1"
     d="m 47.999889,43.09082 c 0.0023,-0.421996 0.005,-0.626211 0.0085,-0.643596 0.0013,-0.0066 0.004,-0.01048 0.0064,-0.009 0.0028,0.0017 0.0033,-0.06313 0.0015,-0.210025 -0.0014,-0.116895 -0.0035,-0.478846 -0.0046,-0.804334 -0.0011,-0.325488 -0.0029,-0.721435 -0.004,-0.879883 l -0.0021,-0.288086 h 1.236444 1.236445 l 9.86e-4,1.607422 9.86e-4,1.607422 h -1.241343 -1.241342 z m 0.02028,-0.457031 c -0.0011,-0.0027 -0.002,-4.88e-4 -0.002,0.0049 0,0.0054 8.87e-4,0.0076 0.002,0.0049 0.0011,-0.0027 0.0011,-0.0071 0,-0.0098 z"
     id="path65"
     transform="scale(0.75)" />
  <path
     style="fill:#ffffff;fill-opacity:1;stroke:#ffffff;stroke-width:0.00552427;stroke-opacity:1"
     d=""
     id="path66"
     transform="scale(0.75)" />
  <path
     style="fill:#ffffff;fill-opacity:1;stroke:#ffffff;stroke-width:0.00552427;stroke-opacity:1"
     d=""
     id="path67"
     transform="scale(0.75)" />
  <path
     style="fill:#ffffff;fill-opacity:1;stroke:#ffffff;stroke-width:0.00552427;stroke-opacity:1"
     d=""
     id="path68"
     transform="scale(0.75)" />
  <path
     style="fill:#ffffff;fill-opacity:1;stroke:#ffffff;stroke-width:0.00552427;stroke-opacity:1"
     d="m 49.141159,41.91265 v -2.273238 h 2.090937 2.090937 l 1.7e-5,1.302347 c 9e-6,0.716291 0.0011,1.345851 0.0025,1.399022 0.002,0.07968 0.0016,0.08891 -0.0028,0.05248 -0.01048,-0.0879 -0.02845,-0.200409 -0.04385,-0.27463 -0.01717,-0.08275 -0.05437,-0.225546 -0.06053,-0.232336 -0.0021,-0.0023 -0.0082,0.04489 -0.01343,0.104962 -0.0053,0.06007 -0.01102,0.122269 -0.0128,0.13822 l -0.0032,0.029 h 0.04496 0.04495 v 0.05524 c 0,0.05261 5.59e-4,0.05524 0.01171,0.05524 0.01152,0 0.01166,0.0012 0.0084,0.0732 -0.0018,0.04026 -0.0049,0.156681 -0.0069,0.258718 -0.0031,0.163673 -0.0024,0.189253 0.0057,0.217201 0.01053,0.03623 0.02077,0.03846 0.02585,0.0056 0.0018,-0.01192 0.0037,0.289696 0.0041,0.670249 l 7.84e-4,0.691915 h -2.093699 -2.093699 z m 4.049304,-0.117391 c 7e-6,-0.0023 -0.02175,-0.0035 -0.04834,-0.0027 -0.08582,0.0026 -0.09425,0.0049 -0.02211,0.0058 0.03874,5.31e-4 0.07044,-8.99e-4 0.07045,-0.0032 z m -0.13987,-0.01899 c -0.0018,-0.0044 -0.0031,-0.0031 -0.0033,0.0033 -2.39e-4,0.0058 0.0011,0.0091 0.0029,0.0072 0.0018,-0.0018 0.002,-0.0066 4.36e-4,-0.01059 z m 0.123959,-0.02479 c -0.0065,-0.0112 -0.0081,-0.0076 -0.0028,0.0063 0.0019,0.0049 0.0046,0.0078 0.006,0.0064 0.0014,-0.0014 -5.2e-5,-0.0071 -0.0033,-0.01267 z m -0.03421,-0.08824 c -0.03955,-0.09774 -0.105458,-0.23326 -0.156781,-0.322354 -0.04934,-0.08565 -0.128619,-0.207378 -0.149955,-0.230248 -0.02406,-0.02579 -0.0595,-0.07837 -0.09616,-0.14264 -0.04084,-0.07161 -0.03806,-0.0679 -0.04386,-0.05852 -0.0028,0.0046 -0.0075,0.0057 -0.01202,0.0029 -0.0041,-0.0025 -0.0025,0.0018 0.0035,0.0096 0.006,0.0078 0.02658,0.0344 0.04569,0.05908 0.036,0.0465 0.100597,0.162456 0.100597,0.180587 0,0.01021 0.03893,0.109015 0.04181,0.10613 8.19e-4,-8.19e-4 -0.0073,-0.02705 -0.01814,-0.05828 -0.01079,-0.03124 -0.01816,-0.05826 -0.01636,-0.06005 0.01232,-0.01232 0.04918,0.03966 0.128291,0.180877 0.05468,0.09761 0.152797,0.295621 0.179689,0.362631 0.01003,0.025 0.01918,0.04452 0.02032,0.04338 0.0011,-0.0011 -0.01085,-0.03403 -0.02665,-0.07308 z m -0.10632,0.05779 c -0.0018,-0.0044 -0.0031,-0.0031 -0.0033,0.0033 -2.4e-4,0.0058 0.0011,0.0091 0.0029,0.0073 0.0018,-0.0018 0.002,-0.0066 4.36e-4,-0.01059 z m -0.02245,-0.07984 c -0.01295,-0.05086 -0.02086,-0.09982 -0.02532,-0.156671 l -0.0041,-0.05248 -8.03e-4,0.06545 c -7.25e-4,0.05904 9.12e-4,0.07108 0.0167,0.122903 0.0187,0.06138 0.02719,0.07442 0.01354,0.0208 z m -0.04555,-0.221247 c -0.01705,-0.0033 -0.0326,-0.02212 -0.05434,-0.06557 -0.02342,-0.04682 -0.02424,-0.04496 -0.0039,0.0087 0.0086,0.02272 0.01725,0.04566 0.01916,0.05097 0.0026,0.0073 0.0092,0.0095 0.02713,0.0089 0.01301,-4.14e-4 0.01837,-0.0018 0.01191,-0.0031 z m -0.07873,-0.121454 c -0.0065,-0.0112 -0.0081,-0.0076 -0.0028,0.0063 0.0019,0.0049 0.0046,0.0078 0.006,0.0064 0.0014,-0.0014 -5.2e-5,-0.0071 -0.0033,-0.01267 z"
     id="path69"
     transform="scale(0.75)" />
  <path
     style="fill:#ffffff;fill-opacity:1;stroke:#ffffff;stroke-width:0.00552427;stroke-opacity:1"
     d=""
     id="path70"
     transform="scale(0.75)" />
  <path
     style="fill:#ffffff;fill-opacity:1;stroke:#ffffff;stroke-width:0.00552427;stroke-opacity:1"
     d=""
     id="path71"
     transform="scale(0.75)" />
  <path
     style="fill:#ffffff;fill-opacity:1;stroke:#ffffff;stroke-width:0.00390625;stroke-opacity:1"
     d="m 50.189453,41.660156 v -1.607422 h 1.568359 1.56836 l -3.53e-4,1.186524 -3.54e-4,1.186523 -0.0092,-0.07068 c -0.01829,-0.140015 -0.03881,-0.24677 -0.07232,-0.376243 -0.023,-0.08887 -0.02539,-0.09471 -0.02894,-0.0705 -0.0049,0.03315 -0.02382,0.246329 -0.02207,0.248083 9.68e-4,9.68e-4 0.0208,0.0018 0.04408,0.0018 h 0.04232 l 4.3e-5,0.04004 c 5.9e-5,0.05463 0.0027,0.06861 0.01313,0.0701 0.0097,0.0014 0.0093,-0.03324 0.0027,0.293516 -0.0027,0.13308 -0.0029,0.219687 -6.26e-4,0.233439 0.0036,0.02156 0.01366,0.0504 0.01759,0.0504 0.0063,0 0.01161,-0.02223 0.01401,-0.05846 0.0015,-0.02263 0.003,0.07619 0.0033,0.219598 l 5.9e-4,0.260742 H 51.75976 50.189447 Z m 2.814511,-0.04562 c -0.0036,-0.01573 -0.0099,-0.04969 -0.01395,-0.07547 l -0.0074,-0.04687 0.0012,0.03906 c 8.44e-4,0.02855 0.0041,0.04933 0.01218,0.07724 0.0061,0.021 0.01182,0.03738 0.01279,0.03641 9.74e-4,-9.73e-4 -0.0012,-0.01464 -0.0048,-0.03036 z m 0.101424,-0.02914 C 53.056624,41.476128 52.953095,41.282827 52.925756,41.25 c -0.0043,-0.0052 -0.0039,-0.0032 0.0013,0.0059 0.04715,0.08237 0.08567,0.155174 0.138691,0.262118 0.03473,0.07004 0.06368,0.126929 0.06433,0.12641 6.57e-4,-5.18e-4 -0.01046,-0.02707 -0.02471,-0.05899 z m -0.15031,-0.163106 c 0,-8.47e-4 -0.0053,-0.0072 -0.01167,-0.01404 -0.0064,-0.0069 -0.01637,-0.02113 -0.02212,-0.03168 -0.0057,-0.01055 -0.01101,-0.01862 -0.01169,-0.01794 -0.0037,0.0037 0.02178,0.05918 0.02829,0.06173 0.0083,0.0033 0.01719,0.0043 0.01719,0.0019 z m -0.10758,-0.230222 c -0.0053,-0.01664 -0.0096,-0.0337 -0.0096,-0.03792 0,-0.01256 0.01369,-0.0091 0.02725,0.007 l 0.01239,0.01465 -0.0126,-0.01953 c -0.0069,-0.01074 -0.02258,-0.03184 -0.03478,-0.04687 -0.02571,-0.03169 -0.0613,-0.08258 -0.07432,-0.106264 -0.005,-0.009 -0.01138,-0.01733 -0.01426,-0.01843 -0.008,-0.0031 -0.0065,2.77e-4 0.01,0.02233 0.0204,0.02727 0.07378,0.125801 0.07874,0.14534 0.0054,0.0214 0.02385,0.07294 0.02549,0.07131 7.32e-4,-7.32e-4 -0.003,-0.01495 -0.0083,-0.03159 z m -0.115076,-0.219179 c 0,-9.48e-4 -0.0018,-0.0028 -0.0039,-0.0041 -0.0021,-0.0013 -0.0039,-5.53e-4 -0.0039,0.0017 0,0.0023 0.0018,0.0041 0.0039,0.0041 0.0021,0 0.0039,-7.75e-4 0.0039,-0.0017 z m -0.02734,-0.03516 c 0,-9.48e-4 -0.0018,-0.0028 -0.0039,-0.0041 -0.0021,-0.0013 -0.0039,-5.53e-4 -0.0039,0.0017 0,0.0023 0.0018,0.0041 0.0039,0.0041 0.0021,0 0.0039,-7.75e-4 0.0039,-0.0017 z"
     id="path72"
     transform="scale(0.75)" />
  <path
     style="fill:#ffffff;fill-opacity:1;stroke:#ffffff;stroke-width:0.00390625;stroke-opacity:1"
     d="m 50.189453,41.660156 v -1.607422 h 1.568359 1.56836 l -3.7e-4,1.188477 c -3.67e-4,1.177966 -4.34e-4,1.187993 -0.0077,1.133789 -0.01412,-0.105872 -0.01368,-0.105017 -0.01709,-0.0332 -0.0017,0.03545 -0.0033,0.15498 -0.0036,0.265625 -5.13e-4,0.186577 -3.3e-5,0.20252 0.0066,0.219751 0.0039,0.01022 0.0086,0.01768 0.01039,0.01659 0.0038,-0.0023 0.01115,-0.04562 0.01294,-0.07618 6.92e-4,-0.01182 0.0016,0.09585 0.002,0.239258 l 7.22e-4,0.260742 h -1.570312 -1.570313 z m 3.103463,0.546184 c -0.01847,-0.104024 -0.06384,-0.295105 -0.07204,-0.303394 -0.0018,-0.0018 -0.0043,0.0035 -0.0057,0.01172 -0.0024,0.01521 -0.02185,0.222955 -0.02185,0.233767 0,0.0049 0.0074,0.0059 0.04297,0.0059 h 0.04297 l 2.8e-5,0.02832 c 1.5e-5,0.01558 0.0012,0.04034 0.0025,0.05503 0.0021,0.02226 0.0039,0.02723 0.01071,0.0298 0.0045,0.0017 0.0087,0.0017 0.0094,-6.2e-5 6.64e-4,-0.0017 -0.0034,-0.0292 -0.0091,-0.06105 z m -0.296918,-0.629456 c -0.0049,-0.02646 -0.01009,-0.04931 -0.01155,-0.05077 -0.0015,-0.0015 -0.0017,0.0017 -6.33e-4,0.0071 0.0011,0.0054 0.003,0.01943 0.0041,0.03124 0.002,0.02063 0.01324,0.06473 0.01573,0.06191 6.62e-4,-7.49e-4 -0.0028,-0.02301 -0.0077,-0.04948 z m 0.101518,-0.0066 c -0.03789,-0.08315 -0.139257,-0.274445 -0.15108,-0.28512 -0.0024,-0.0021 -6.78e-4,0.0022 0.0038,0.0098 0.01793,0.03024 0.08544,0.15871 0.12059,0.229492 0.03827,0.07706 0.05049,0.09805 0.02671,0.04586 z m -0.153069,-0.159143 c -0.0044,-0.0048 -0.01371,-0.01758 -0.02059,-0.02832 -0.01379,-0.02154 -0.01238,-0.01105 0.0025,0.01855 0.0068,0.01352 0.01161,0.01855 0.01775,0.01855 h 0.0084 z M 52.839238,41.16407 c -0.0021,-0.01561 -0.0016,-0.01758 0.0052,-0.01758 0.0042,0 0.0099,0.0022 0.01282,0.0049 0.0092,0.0086 5.97e-4,-0.0041 -0.03676,-0.05391 -0.05434,-0.07246 -0.05441,-0.07255 -0.04105,-0.04863 0.02658,0.0476 0.05063,0.0979 0.0549,0.114867 0.0058,0.02285 0.008,0.02302 0.0049,3.67e-4 z m -0.08626,-0.163877 c -0.0058,-0.0096 -0.01127,-0.01663 -0.01219,-0.0157 -0.0018,0.0018 0.01792,0.0331 0.0209,0.0331 9.91e-4,0 -0.0029,-0.0078 -0.0087,-0.01739 z"
     id="path73"
     transform="scale(0.75)" />
  <path
     style="fill:#ffffff;fill-opacity:1;stroke:#ffffff;stroke-width:0.00390625;stroke-opacity:1"
     d="m 53.307269,42.82239 c -0.0051,-0.01472 -0.0062,-0.469179 -0.0011,-0.482089 0.003,-0.0077 0.0091,0.03187 0.01607,0.105011 0.0084,0.08792 0.0034,0.352742 -0.0072,0.381397 -0.003,0.0082 -0.0035,0.008 -0.0078,-0.0043 z"
     id="path93"
     transform="scale(0.75)" />
  <path
     style="fill:#ffffff;fill-opacity:1;stroke:#ffffff;stroke-width:0.00390625;stroke-opacity:1"
     d="m 53.198532,42.12793 c 0.0013,-0.01235 0.0062,-0.0651 0.01103,-0.117209 0.0048,-0.05211 0.01014,-0.09337 0.01183,-0.09167 0.0039,0.0039 0.02263,0.0758 0.03844,0.14736 0.0066,0.03008 0.01356,0.06128 0.01536,0.06934 l 0.0033,0.01465 h -0.04111 -0.0411 z"
     id="path94"
     transform="scale(0.75)" />
  <path
     style="fill:#ffffff;fill-opacity:1;stroke:#ffffff;stroke-width:0.00390625;stroke-opacity:1"
     d="m 50.564453,42.75 v -1.607422 h 1.132248 1.132247 l 0.0041,0.0127 c 0.0039,0.01205 0.0041,0.01217 0.0045,0.0024 3.2e-4,-0.0082 0.0028,-0.01074 0.01261,-0.0127 0.0067,-0.0013 0.116577,-0.0024 0.24414,-0.0024 h 0.231934 v 0.642253 c 0,0.43283 -0.0013,0.642685 -0.004,0.64358 -0.0026,8.7e-4 -0.0028,0.0096 -6.9e-4,0.0254 0.0058,0.04206 0.0021,0.304991 -0.005,0.35869 -8.5e-4,0.0064 -0.0018,0.01348 -0.0021,0.01563 -2.85e-4,0.0021 -0.0023,-4.88e-4 -0.0045,-0.0059 -0.0026,-0.0063 -0.004,-0.09 -0.0041,-0.234375 -2.8e-5,-0.127754 -0.0015,-0.219795 -0.0033,-0.213445 -0.0018,0.0061 -0.0038,0.106336 -0.0045,0.222656 -0.0011,0.186644 -4.66e-4,0.213327 0.0051,0.227117 0.0034,0.0086 0.0077,0.01563 0.0095,0.01563 0.0047,0 0.0088,-0.01848 0.01282,-0.05859 0.0023,-0.02231 0.0038,0.259163 0.0041,0.770508 l 5.26e-4,0.805664 h -1.382812 -1.382813 z m 2.756059,-0.352452 c -0.0043,-0.0111 -0.0066,-0.0021 -0.0035,0.01319 0.0029,0.01402 0.0032,0.01429 0.0044,0.004 7.39e-4,-0.0061 2.93e-4,-0.01381 -9.92e-4,-0.01716 z m -0.0076,-0.05377 c -0.0032,-0.02303 -0.0068,-0.04285 -0.008,-0.04406 -0.0012,-0.0012 -0.0022,0.01173 -0.0021,0.02874 3.6e-5,0.01836 0.0014,0.02881 0.0034,0.02572 0.0022,-0.0034 0.0042,0.0018 0.006,0.0151 0.0015,0.01117 0.0036,0.01942 0.0047,0.01834 0.0011,-0.0011 -6.55e-4,-0.02081 -0.0039,-0.04384 z m -0.01161,-0.08303 c -0.0011,-0.0038 -0.0049,-0.02529 -0.0086,-0.04785 -0.0098,-0.06062 -0.0136,-0.06332 -0.0109,-0.0078 0.0025,0.05081 0.0054,0.0625 0.01542,0.0625 0.0038,0 0.0053,-0.0025 0.0041,-0.0068 z m -0.06027,-0.109363 -0.0441,-0.0012 0.0021,-0.01452 c 0.002,-0.01375 0.0019,-0.01394 -0.0022,-0.0036 -0.0081,0.02058 -0.0043,0.02242 0.04418,0.0215 l 0.04407,-8.35e-4 z m 0.02648,-0.06589 c -0.01449,-0.06545 -0.03849,-0.159909 -0.04405,-0.173379 l -0.004,-0.0098 -0.0028,0.01172 c -0.0034,0.01404 -0.0046,0.04709 -0.0016,0.04413 0.0012,-0.0012 0.0028,-0.0089 0.0037,-0.01725 8.73e-4,-0.0083 0.0018,-0.01692 0.002,-0.01906 6.51e-4,-0.0062 0.01874,0.06412 0.03567,0.138672 0.01768,0.07785 0.01912,0.08327 0.02149,0.0809 9.46e-4,-9.46e-4 -0.0037,-0.02613 -0.01029,-0.05596 z m -0.06475,0.01217 c 0.0019,-0.01387 0.0015,-0.01783 -0.0014,-0.01367 -0.0036,0.0053 -0.0062,0.03875 -0.0027,0.03483 7.99e-4,-8.95e-4 0.0026,-0.01042 0.0041,-0.02116 z m 0.0057,-0.05004 c 2.54e-4,-0.0039 -0.0013,-0.006 -0.0034,-0.0047 -0.0021,0.0013 -0.0037,0.0098 -0.0034,0.01879 4.37e-4,0.01546 6.28e-4,0.01572 0.0034,0.0047 0.0016,-0.0064 0.0032,-0.0149 0.0034,-0.01879 z m 0.0022,-0.03144 c 0.0019,-0.01318 0.0015,-0.01818 -0.0015,-0.01637 -0.0023,0.0014 -0.0042,0.0107 -0.0042,0.0206 0,0.02222 0.002,0.0207 0.0057,-0.0042 z m 0.0038,-0.03865 c 0.0017,-0.0093 0.0012,-0.01465 -0.0014,-0.01465 -0.0022,0 -0.0041,0.0073 -0.0041,0.01628 0,0.01919 0.0019,0.01864 0.0055,-0.0016 z M 52.9941,41.574215 c -0.0027,-0.01416 -0.0056,-0.02499 -0.0065,-0.02407 -9.2e-4,9.19e-4 3.7e-4,0.0134 0.0029,0.02773 0.0025,0.01433 0.0054,0.02517 0.0065,0.02407 0.0011,-0.0011 -1.95e-4,-0.01357 -0.0029,-0.02773 z m 0.06465,-0.0836 c -0.0056,-0.01096 -0.01093,-0.01992 -0.01194,-0.01992 -10e-4,0 0.0029,0.0096 0.0086,0.02137 0.0058,0.01176 0.01114,0.02072 0.01194,0.01992 8.01e-4,-8.01e-4 -0.0031,-0.01042 -0.0086,-0.02137 z m -0.111525,-0.07262 c 0,-0.0011 -0.0064,-0.01028 -0.01422,-0.02051 -0.01001,-0.01308 -0.01333,-0.01569 -0.01121,-0.0088 0.0038,0.01234 0.01699,0.03125 0.02179,0.03125 0.002,0 0.0036,-8.64e-4 0.0036,-0.0019 z m 0.06445,-0.01761 c -0.0033,-0.0064 -0.0069,-0.01172 -0.008,-0.01172 -0.0011,0 7.73e-4,0.0053 0.0041,0.01172 0.0033,0.0064 0.0069,0.01172 0.008,0.01172 0.0011,0 -7.74e-4,-0.0053 -0.0041,-0.01172 z"
     id="path95"
     transform="scale(0.75)" />
  <path
     style="fill:#ffffff;fill-opacity:1;stroke:#ffffff;stroke-width:0.00390625;stroke-opacity:1"
     d="m 50.564453,42.75 v -1.607422 h 1.132395 c 1.074863,0 1.132528,3.47e-4 1.135028,0.0068 0.0025,0.0064 0.0029,0.0064 0.0064,1.7e-4 0.0035,-0.0062 0.02186,-0.0067 0.246019,-0.0069 l 0.242276,-2.52e-4 -0.0012,0.821371 c -6.4e-4,0.451754 -1.22e-4,0.812582 0.0012,0.80184 0.0013,-0.01074 0.0026,0.343018 0.0029,0.786133 l 6.14e-4,0.805664 H 51.947273 50.56446 Z m 2.753906,0.07985 c 0,-0.002 -0.0022,-0.0032 -0.0049,-0.0027 -0.0074,0.0015 -0.0094,-0.04132 -0.0103,-0.22546 -4.63e-4,-0.09017 -0.0017,-0.164789 -0.0027,-0.165831 -10e-4,-10e-4 -0.0014,0.08503 -7.77e-4,0.19128 8.66e-4,0.149682 0.0023,0.195179 0.0062,0.202074 0.0048,0.0084 0.0125,0.0088 0.0125,6.37e-4 z m 0.0028,-0.03586 c -9.34e-4,-0.0049 -0.0017,-0.0018 -0.0018,0.0068 -4.3e-5,0.0086 7.22e-4,0.01257 0.0017,0.0088 9.78e-4,-0.0037 0.001,-0.01077 7.9e-5,-0.01563 z m -0.009,-0.445042 c -0.0017,-0.0028 -0.0028,-0.01038 -0.0023,-0.01686 4.75e-4,-0.0065 -8.96e-4,-0.01441 -0.003,-0.01763 -0.0059,-0.0088 -0.0052,0.02556 7.04e-4,0.03503 0.0026,0.0042 0.0054,0.0069 0.0063,0.0061 8.33e-4,-8.34e-4 1.01e-4,-0.0038 -0.0016,-0.0066 z m -0.02089,-0.138012 -0.0078,-0.03906 0.0012,0.04428 c 8.75e-4,0.03306 0.0026,0.04516 0.0067,0.04775 0.0087,0.0054 0.0086,-0.009 -1.19e-4,-0.05296 z m -0.08346,-0.197998 c -0.0012,-0.0031 -0.0022,-0.0022 -0.0024,0.0024 -1.7e-4,0.0041 7.53e-4,0.0064 0.0021,0.0051 0.0013,-0.0013 0.0014,-0.0047 3.09e-4,-0.0075 z m 0.0039,-0.03906 c -0.0012,-0.0031 -0.0022,-0.0022 -0.0024,0.0024 -1.7e-4,0.0041 7.53e-4,0.0064 0.0021,0.0051 0.0013,-0.0013 0.0014,-0.0047 3.09e-4,-0.0075 z m 0.0038,-0.03931 c -0.0011,-0.0027 -0.002,-4.88e-4 -0.002,0.0049 0,0.0054 8.87e-4,0.0076 0.002,0.0049 0.0011,-0.0027 0.0011,-0.0071 0,-0.0098 z m 0.0056,-0.02362 c -0.0031,-0.0031 -0.0043,-0.0012 -0.0042,0.0072 1.04e-4,0.0101 6.36e-4,0.01063 0.0043,0.0043 0.003,-0.0052 0.003,-0.0084 -1.19e-4,-0.01152 z m -0.273842,-0.492446 c 0,-7.79e-4 -0.0053,-0.0081 -0.01172,-0.01616 -0.01354,-0.01704 -0.01542,-0.01472 -0.0036,0.0044 0.0067,0.01088 0.01531,0.01746 0.01531,0.01174 z"
     id="path96"
     transform="scale(0.75)" />
  <path
     style="fill:#ffffff;fill-opacity:1;stroke:#ffffff;stroke-width:0.00390625;stroke-opacity:1"
     d="m 50.564453,42.75 v -1.607422 h 1.132031 c 0.809967,0 1.13324,0.0012 1.136278,0.0042 0.0031,0.0031 0.005,0.0031 0.0069,0 0.0018,-0.003 0.0744,-0.0042 0.243999,-0.0042 h 0.241374 l 0.0024,1.03418 c 0.0013,0.568799 0.0028,1.046484 0.0033,1.061523 4.92e-4,0.01504 5.47e-4,0.272998 1.23e-4,0.573242 l -7.72e-4,0.545899 h -1.382812 -1.382813 z m 2.740868,0.05957 c -0.0011,-0.0027 -0.002,-4.88e-4 -0.002,0.0049 0,0.0054 8.87e-4,0.0076 0.002,0.0049 0.0011,-0.0027 0.0011,-0.0071 0,-0.0098 z m 0.0016,-0.488536 c -0.003,-0.003 -0.0042,-0.0015 -0.0042,0.0057 0,0.01288 0.0055,0.01839 0.0072,0.0072 7.19e-4,-0.0047 -5.99e-4,-0.01054 -0.0029,-0.01287 z m -0.0094,-0.06853 c -0.0012,-0.0061 -0.0034,-0.02025 -0.0049,-0.03134 -0.0042,-0.03202 -0.01037,-0.02873 -0.0075,0.004 0.003,0.03408 0.0042,0.03849 0.01011,0.03849 0.0029,0 0.0037,-0.004 0.0023,-0.01117 z m -0.36038,-0.846254 c -0.0035,-0.0054 -0.0072,-0.0098 -0.0081,-0.0098 -0.0019,0 0.0018,0.0071 0.0076,0.01465 0.0067,0.0087 0.0071,0.0052 5.08e-4,-0.0049 z"
     id="path97"
     transform="scale(0.75)" />
  <path
     style="fill:#ffffff;fill-opacity:1;stroke:#ffffff;stroke-width:0.00390625;stroke-opacity:1"
     d="m 50.564453,42.74999 v -1.607432 l 1.380859,4.2e-5 1.38086,4.2e-5 -9.1e-5,0.01071 c -4.9e-5,0.0059 7.52e-4,0.238347 0.0018,0.51657 0.001,0.278223 0.0031,0.996728 0.0046,1.59668 l 0.0027,1.09082 h -1.385326 -1.385326 z m 2.742664,-0.422549 c -0.0034,-0.0059 -0.0042,-0.006 -0.0043,-9.44e-4 -1.26e-4,0.0066 0.004,0.0125 0.0068,0.0097 9.13e-4,-9.13e-4 -2.05e-4,-0.0049 -0.0025,-0.0088 z m -0.0139,-0.09578 c -0.0039,-0.02676 -0.0042,-0.02745 -0.0054,-0.01105 -0.0015,0.02047 0.0023,0.04408 0.0066,0.04143 0.0016,-0.001 0.0011,-0.01469 -0.0012,-0.03038 z"
     id="path98"
     transform="scale(0.75)" />
  <path
     style="fill:#ffffff;fill-opacity:1;stroke:#ffffff;stroke-width:0.00390625;stroke-opacity:1"
     d="m 52.820116,41.118752 c -0.0056,-0.01096 -0.0093,-0.02067 -0.0084,-0.02159 9.17e-4,-9.17e-4 0.009,0.008 0.01797,0.01992 0.01424,0.01886 0.0153,0.02159 0.0084,0.02159 -0.0055,0 -0.01086,-0.0059 -0.01797,-0.01992 z"
     id="path99"
     transform="scale(0.75)" />
  <path
     style="fill:#ffffff;fill-opacity:1;stroke:#ffffff;stroke-width:0.00390625;stroke-opacity:1"
     d="m 50.677734,41.148437 v -1.607421 h 1.324219 1.324219 l 2.9e-5,0.481445 c 4.9e-5,0.802532 0.0038,2.461168 0.0058,2.601562 l 0.0019,0.131836 h -1.328102 -1.328103 z m 2.613557,1.083834 c -0.0034,-0.0081 -0.0037,-0.0068 -0.0024,0.008 0.0019,0.02186 0.0029,0.02417 0.0049,0.01157 8.51e-4,-0.0055 -2.48e-4,-0.01424 -0.0024,-0.01953 z m -0.441682,-1.091834 c 0,-0.0021 -0.05647,-0.07841 -0.06349,-0.08575 -0.0021,-0.0021 0.0017,0.0071 0.0084,0.02051 0.0068,0.01352 0.01478,0.02441 0.01799,0.02441 0.0032,0 0.0058,0.0013 0.0058,0.0029 5e-6,0.0016 0.0053,0.0091 0.01171,0.0166 0.01298,0.01517 0.01476,0.02045 0.0057,0.01698 -0.0033,-0.0013 -0.0086,-0.0074 -0.01182,-0.01355 -0.0032,-0.0062 -0.0066,-0.01125 -0.0076,-0.01125 -0.0022,0 0.006,0.01965 0.01102,0.02637 0.0035,0.0047 0.0222,0.007 0.0222,0.0027 z"
     id="path100"
     transform="scale(0.75)" />
  <path
     style="fill:#ffffff;fill-opacity:1;stroke:#ffffff;stroke-width:0.00390625;stroke-opacity:1"
     d="m 50.677734,41.148437 v -1.607421 h 1.324401 1.324401 l -3.32e-4,0.338867 c -4.81e-4,0.490653 0.0037,2.360045 0.0059,2.638672 l 0.0019,0.237304 h -1.328136 -1.328137 z m 2.17058,-0.0085 c -0.0014,-0.0014 -0.0074,-0.0031 -0.01331,-0.0037 -0.008,-8.48e-4 -0.0092,-1.96e-4 -0.0049,0.0025 0.0066,0.0042 0.02219,0.0052 0.0182,0.0012 z m -0.03115,-0.04525 c -0.0048,-0.0048 -0.01268,-0.01406 -0.01759,-0.02051 l -0.0089,-0.01172 0.0066,0.01367 c 0.0076,0.0159 0.01723,0.02678 0.02392,0.02711 0.0026,1.28e-4 8.1e-4,-0.0037 -0.0039,-0.0086 z"
     id="path101"
     transform="scale(0.75)" />
  <path
     style="fill:#ffffff;fill-opacity:1;stroke:#ffffff;stroke-width:0.0110485;stroke-opacity:1"
     d="M 15.473811,49.069684 C 15.342734,48.889412 15.128297,48.674 14.937631,48.531067 14.59914,48.277318 14.21739,48.112087 13.784578,48.031999 c -0.152724,-0.02826 -0.574308,-0.0404 -0.742196,-0.02138 -0.485113,0.05497 -0.928866,0.23194 -1.319877,0.526372 -0.201796,0.151952 -0.404405,0.355605 -0.535099,0.53786 -0.02069,0.02885 -0.03957,0.05051 -0.04195,0.04813 -0.0073,-0.0073 0.138241,-0.29031 0.203517,-0.395835 0.193847,-0.313378 0.42992,-0.53548 0.665885,-0.626477 0.04961,-0.01913 0.138369,-0.04184 0.197237,-0.05047 0.05887,-0.0086 0.560846,-0.05131 1.115506,-0.09486 l 1.008473,-0.07918 0.101438,0.01856 c 0.36978,0.06765 0.684174,0.364477 0.951854,0.898661 0.0763,0.152261 0.164053,0.355006 0.158973,0.367285 -0.0017,0.004 -0.03521,-0.03691 -0.07453,-0.09098 z"
     id="path102"
     transform="scale(0.75)" />
  <path
     style="fill:#ffffff;fill-opacity:1;stroke:#ffffff;stroke-width:0.0110485;stroke-opacity:1"
     d="m 15.906354,50.263858 c -0.01252,-0.03868 -0.04821,-0.16479 -0.07931,-0.280247 -0.0311,-0.115458 -0.08387,-0.298722 -0.117282,-0.407255 -0.03341,-0.108533 -0.05824,-0.19984 -0.05517,-0.202904 0.0084,-0.0084 0.130895,0.252435 0.177578,0.378139 0.06194,0.166778 0.116433,0.39104 0.116233,0.478325 -2.45e-4,0.10762 -0.01448,0.119106 -0.04205,0.03394 z"
     id="path103"
     transform="scale(0.75)" />
  <path
     style="fill:#ffffff;fill-opacity:1;stroke:#ffffff;stroke-width:0.0110485;stroke-opacity:1"
     d=""
     id="path104"
     transform="scale(0.75)" />
  <path
     style="fill:#ffffff;fill-opacity:1;stroke:#ffffff;stroke-width:0.0110485;stroke-opacity:1"
     d=""
     id="path105"
     transform="scale(0.75)" />
  <path
     style="fill:#ffffff;fill-opacity:1;stroke:#ffffff;stroke-width:0.0110485;stroke-opacity:1"
     d="m 10.696907,50.356839 c -0.01791,-0.02898 0.05696,-0.37399 0.121243,-0.558672 0.05607,-0.161088 0.21271,-0.494643 0.21357,-0.454787 1.38e-4,0.0064 -0.01958,0.06606 -0.04381,0.132583 -0.05182,0.142257 -0.132891,0.40166 -0.205258,0.656803 -0.05381,0.189724 -0.07414,0.242847 -0.08574,0.224073 z"
     id="path106"
     transform="scale(0.75)" />
  <path
     style="fill:#ffffff;fill-opacity:1;stroke:#ffffff;stroke-width:0.00390625;stroke-opacity:1"
     d="m 11.111328,49.183457 c 0,-0.0011 0.0056,-0.01504 0.01238,-0.03087 0.01078,-0.02506 0.01325,-0.02824 0.01911,-0.02458 0.0061,0.0038 0.005,0.0068 -0.011,0.03087 -0.01664,0.02503 -0.02049,0.02965 -0.02049,0.02458 z"
     id="path107"
     transform="scale(0.75)" />
  <path
     style="fill:#ffffff;fill-opacity:1;stroke:#ffffff;stroke-width:0.00390625;stroke-opacity:1"
     d="m 11.037215,49.342773 c -6.1e-5,-0.005 -0.0025,-0.0088 -0.0058,-0.0088 -0.0039,0 8.04e-4,-0.01085 0.01447,-0.03373 0.01109,-0.01855 0.02067,-0.03217 0.02129,-0.03027 6.24e-4,0.0019 -0.0058,0.02103 -0.01437,0.04251 -0.0085,0.02148 -0.01555,0.03511 -0.01561,0.03027 z"
     id="path108"
     transform="scale(0.75)" />
  <path
     style="fill:#ffffff;fill-opacity:1;stroke:#ffffff;stroke-width:0.75;stroke-opacity:1"
     id="path109"
     d="m 10.542724,36.988315 c 0.09066,-0.112888 0.156403,-0.242042 0.221672,-0.370501 0.05134,-0.112414 0.09843,-0.227553 0.127559,-0.34801 0.01715,-0.07093 0.02845,-0.137149 0.02443,-0.210382 -0.0019,-0.03443 -0.01012,-0.06822 -0.01518,-0.102326 -0.01154,-0.03325 -0.02042,-0.06755 -0.03463,-0.09976 -0.05953,-0.135025 -0.163543,-0.252644 -0.278026,-0.344039 -0.02596,-0.02072 -0.05423,-0.03836 -0.08135,-0.05754 -0.02818,-0.01402 -0.05516,-0.03076 -0.08453,-0.04208 -0.08969,-0.03458 -0.187302,-0.04028 -0.281905,-0.02877 -0.08701,0.01059 -0.138572,0.02819 -0.2236773,0.05143 -0.2229502,0.06881 -0.4443937,0.143756 -0.6579059,0.238175 -0.078224,0.0386 -0.1536653,0.08264 -0.2249168,0.132991 -0.042967,0.03036 -0.093255,0.06727 -0.127962,0.107581 -0.017865,0.02075 -0.031313,0.04494 -0.046965,0.06742 -0.00984,0.0275 -0.023707,0.05388 -0.02952,0.0825 -0.038723,0.190692 0.070755,0.390531 0.1725262,0.542157 0.040463,0.06029 0.087371,0.115988 0.1310565,0.173982 0.05064,0.05432 0.098963,0.110895 0.1519275,0.162951 0.157854,0.155145 0.344952,0.298059 0.5371538,0.408625 0.027443,0.01579 0.05595,0.02965 0.083929,0.04447 0.043133,0.01601 0.096025,0.04991 0.145572,0.03663 0.0317,-0.0085 0.06684,-0.0478 0.08977,-0.06938 0.04426,-0.04234 0.09308,-0.08046 0.146934,-0.109925 0.03523,-0.01928 0.05298,-0.0255 0.09007,-0.04095 0.03966,-0.01612 0.08104,-0.0265 0.122598,-0.03617 0,0 -0.0026,-3.5e-4 -0.0026,-3.5e-4 v 0 c -0.04154,0.0097 -0.0829,0.02009 -0.122538,0.03622 -0.0371,0.01546 -0.05485,0.02169 -0.09009,0.04099 -0.05387,0.02949 -0.10269,0.06764 -0.146973,0.109976 -0.02379,0.02236 -0.0572,0.05974 -0.0898,0.06919 -0.04704,0.01364 -0.099946,-0.02258 -0.140684,-0.03647 C 9.880642,37.38214 9.852082,37.36829 9.824583,37.35251 9.6321345,37.242058 9.444822,37.099201 9.2868502,36.943974 9.2338852,36.891931 9.1855852,36.835349 9.134952,36.781037 9.0913095,36.723047 9.0444292,36.667356 9.0040177,36.607068 8.9023988,36.455468 8.793288,36.255606 8.8321147,36.065082 c 0.00585,-0.0286 0.019703,-0.05496 0.02955,-0.08244 0.015653,-0.02246 0.0291,-0.04663 0.046965,-0.06737 0.034718,-0.04032 0.084968,-0.07718 0.1279411,-0.107543 0.071235,-0.05034 0.1466595,-0.09437 0.2248597,-0.132957 0.213456,-0.09443 0.4348223,-0.169458 0.6577605,-0.238159 0.08707,-0.02375 0.134972,-0.04033 0.22379,-0.05137 0.09311,-0.01156 0.189124,-0.0053 0.277378,0.02868 0.02938,0.01131 0.05637,0.02803 0.08456,0.04205 0.02713,0.01917 0.05542,0.03679 0.0814,0.05751 0.114507,0.09133 0.218491,0.208921 0.278004,0.343928 0.01419,0.0322 0.02308,0.06648 0.03461,0.09972 0.005,0.03409 0.01328,0.06787 0.01518,0.102284 0.004,0.07322 -0.0072,0.139405 -0.02435,0.210328 -0.02908,0.120455 -0.07612,0.2356 -0.127529,0.347972 -0.06539,0.128509 -0.131273,0.257725 -0.22234,0.370438 z" />
  <path
     style="fill:#ffffff;fill-opacity:1;stroke:#ffffff;stroke-width:0.75;stroke-opacity:1"
     id="path110"
     d="m 9.4355708,36.408856 c -0.00645,-0.100204 -0.012803,-0.201885 0.00352,-0.301581 0.00435,-0.02644 0.012105,-0.05219 0.018157,-0.07829 0.011625,-0.02185 0.01911,-0.04648 0.034882,-0.06555 0.065168,-0.07883 0.1823438,-0.09975 0.2761546,-0.116379 0.09348,-0.01657 0.1705852,-0.02135 0.2648066,-0.02968 0.112356,-0.0015 0.254514,-0.02184 0.354502,0.04566 0.04561,0.03079 0.04717,0.05006 0.07035,0.09759 0.0043,0.0229 0.01055,0.0455 0.01283,0.06869 0.0079,0.08019 -0.0046,0.188731 -0.03978,0.262261 -0.0074,0.01546 -0.01804,0.02914 -0.02706,0.0437 -0.01393,0.01166 -0.02608,0.02584 -0.04178,0.03496 -0.05232,0.03037 -0.110349,0.03731 -0.16937,0.04541 -0.04746,0.0065 -0.09519,0.01103 -0.142924,0.01507 -0.1291421,0.01094 -0.2200054,0.01357 -0.3504244,0.01935 -0.22821,0.0071 -0.1176052,0.0041 -0.3318105,0.009 0,0 0.00195,3e-4 0.00195,3e-4 v 0 c 0.2140755,-0.0049 0.103521,-0.002 0.3316598,-0.009 0.1304557,-0.0058 0.2214547,-0.0084 0.3506421,-0.01933 0.0478,-0.004 0.0956,-0.0085 0.143134,-0.01505 0.05917,-0.0081 0.117257,-0.01502 0.169682,-0.0455 0.01572,-0.0091 0.02787,-0.02336 0.04181,-0.03504 0.009,-0.01459 0.01964,-0.02828 0.02703,-0.04375 0.03514,-0.07357 0.04754,-0.182194 0.03971,-0.262394 -0.0023,-0.0232 -0.0085,-0.04583 -0.01279,-0.06874 -0.02318,-0.04762 -0.02471,-0.0669 -0.0704,-0.09775 -0.101183,-0.06833 -0.245314,-0.04701 -0.358996,-0.04569 -0.094151,0.0083 -0.1714414,0.01314 -0.2648546,0.0297 -0.093929,0.01665 -0.2112458,0.03757 -0.2764508,0.116548 -0.015765,0.0191 -0.023235,0.04375 -0.034852,0.06562 -0.00608,0.02611 -0.0138,0.05187 -0.018128,0.07832 -0.01632,0.09971 -0.010095,0.201393 -0.0039,0.301631 z" />
  <path
     style="fill:#ffffff;fill-opacity:1;stroke:#ffffff;stroke-width:0.75;stroke-opacity:1"
     id="path111"
     d="m 11.378801,37.064844 c 0.04442,-0.04807 0.09408,-0.09082 0.140619,-0.136771 0.05114,-0.05443 0.08681,-0.120259 0.10168,-0.193687 0.0032,-0.01587 0.0046,-0.03205 0.0069,-0.04807 0.009,-0.1527 -0.05633,-0.22889 -0.150084,-0.34031 -0.0577,-0.05779 -0.111185,-0.134378 -0.186788,-0.17108 -0.009,-0.0044 -0.0188,-0.0069 -0.02819,-0.01031 -0.01205,0.0012 -0.02471,-3.51e-4 -0.03616,0.0036 -0.04135,0.01439 -0.08608,0.05783 -0.112607,0.08591 -0.05938,0.06285 -0.124949,0.148766 -0.163647,0.225204 -0.02546,0.05028 -0.04178,0.104688 -0.06266,0.157032 -0.012,0.05682 -0.02801,0.112944 -0.03601,0.170468 -0.02148,0.154562 -0.01379,0.373314 0.04171,0.52228 0.0089,0.02384 0.02246,0.04566 0.0337,0.06849 0.04393,0.06196 0.0863,0.08956 0.155391,0.115104 0,0 0.0026,-3.18e-4 0.0026,-3.18e-4 v 0 c -0.06914,-0.02545 -0.111562,-0.05299 -0.155601,-0.114896 -0.01127,-0.02282 -0.02489,-0.04462 -0.0338,-0.06844 -0.05575,-0.148944 -0.06364,-0.367544 -0.04216,-0.522178 0.008,-0.05752 0.02402,-0.113623 0.03603,-0.170435 0.02092,-0.05233 0.03726,-0.10673 0.06276,-0.156991 0.0388,-0.07649 0.104435,-0.162322 0.163983,-0.225122 0.02948,-0.0311 0.06989,-0.06975 0.112917,-0.08572 0.0097,-0.0036 0.0206,-0.0025 0.0309,-0.0037 0.0094,0.0035 0.0192,0.0059 0.02821,0.01025 0.07569,0.0366 0.129296,0.113193 0.187028,0.170976 0.0937,0.111328 0.158942,0.187532 0.149914,0.340105 -0.0023,0.01601 -0.0038,0.03219 -0.0069,0.04804 -0.01489,0.07339 -0.05056,0.139164 -0.101703,0.193547 -0.04658,0.04595 -0.09622,0.08877 -0.140798,0.136728 z" />
  <path
     style="fill:#ffffff;fill-opacity:1;stroke:#ffffff;stroke-width:0.00390625;stroke-opacity:1"
     d="m 15.967724,50.242187 c -0.0068,-0.04485 -0.0087,-0.07372 -0.0083,-0.123046 l 5.55e-4,-0.06445 0.0092,0.105469 c 0.01145,0.131027 0.01086,0.163862 -0.0015,0.08203 z"
     id="path112"
     transform="scale(0.75)" />
  <path
     style="fill:#ffffff;fill-opacity:1;stroke:#ffffff;stroke-width:0.00390625;stroke-opacity:1"
     d=""
     id="path113"
     transform="scale(0.75)" />
  <path
     style="fill:#ffffff;fill-opacity:1;stroke:#ffffff;stroke-width:0.00390625;stroke-opacity:1"
     d=""
     id="path114"
     transform="scale(0.75)" />
  <path
     style="fill:#ffffff;fill-opacity:0.99215686;stroke:#ffffff;stroke-width:0.00390625;stroke-opacity:1"
     d="m 15.926707,50.3345 c -0.0078,-0.01328 -0.0089,-0.01982 -0.0021,-0.01302 0.0026,0.0026 0.0079,0.0047 0.01172,0.0047 0.0083,0 0.0089,0.0038 0.0021,0.01307 -0.0045,0.0062 -0.0055,0.0058 -0.01172,-0.0047 z"
     id="path115"
     transform="scale(0.75)" />
  <path
     style="fill:#ffffff;fill-opacity:0.992157;stroke:#ffffff;stroke-width:0.75;stroke-opacity:1"
     id="path119"
     d="m 8.432424,37.888566 c -1.57e-5,-0.0088 -1.05e-4,-0.05525 -8.32e-5,-0.05593 0.00165,-0.05165 0.00615,-0.101096 0.00962,-0.152875 0.0054,-0.08 0.010343,-0.160018 0.015645,-0.240019 0.011843,-0.237877 0.032468,-0.475067 0.055898,-0.712029 0.012833,-0.135877 0.025717,-0.271734 0.033817,-0.407987 0.00158,-0.0114 0.00195,-0.0988 0.028178,-0.09401 0.01917,0.0035 0.067507,0.05314 0.069683,0.05511 0.118704,0.126138 0.2349292,0.255776 0.335367,0.397217 0.016058,0.02261 0.030795,0.04613 0.046193,0.06919 0.038828,0.06361 0.074677,0.131991 0.074565,0.208486 -5.1e-5,0.0351 -0.00667,0.06216 -0.01293,0.09649 -0.02463,0.102515 -0.050055,0.204849 -0.070147,0.308376 -0.00983,0.05584 -0.016267,0.112189 -0.021638,0.168611 0,0 0.00263,2.5e-5 0.00263,2.5e-5 v 0 c 0.00533,-0.05642 0.01167,-0.112753 0.021525,-0.168587 0.020093,-0.103529 0.045495,-0.20587 0.070163,-0.308378 0.0063,-0.0343 0.012907,-0.06149 0.012952,-0.09656 9.97e-5,-0.07657 -0.035872,-0.14498 -0.074782,-0.208603 -0.015427,-0.02306 -0.030195,-0.04658 -0.046275,-0.0692 -0.1005158,-0.141345 -0.216702,-0.270954 -0.335163,-0.397277 -0.015735,-0.01432 -0.046875,-0.05085 -0.074888,-0.05521 -0.026317,-0.0041 -0.026385,0.08248 -0.028012,0.09429 -0.00795,0.136254 -0.020783,0.272105 -0.033533,0.40798 -0.02328,0.236975 -0.043792,0.474169 -0.055717,0.712037 -0.00533,0.08 -0.01038,0.160024 -0.015863,0.240016 -0.00352,0.05098 -0.00815,0.101812 -0.00992,0.152892 -6.45e-4,0.01863 2.97e-4,0.0373 -8.33e-5,0.05593 z" />
  <path
     style="fill:#ffffff;fill-opacity:0.992157;stroke:#ffffff;stroke-width:0.75;stroke-opacity:1"
     id="path120"
     d="m 8.6547008,37.869341 c -2.03e-5,-0.01477 -2.97e-4,-0.02606 0.0015,-0.04165 0.013597,-0.117538 0.04497,-0.232928 0.072075,-0.34777 0.00971,-0.04214 0.019425,-0.08429 0.02913,-0.126431 0,0 -0.0021,-4.8e-5 -0.0021,-4.8e-5 v 0 c -0.00972,0.04214 -0.019433,0.08429 -0.029153,0.12643 -0.02724,0.114864 -0.058718,0.230255 -0.072638,0.347804 -0.00188,0.01561 -0.00157,0.02688 -0.00165,0.04167 z" />
  <path
     style="fill:#ffffff;fill-opacity:0.992157;stroke:#ffffff;stroke-width:0.75;stroke-opacity:1"
     id="path121"
     d="m 8.5138793,37.918941 c 0.023963,-0.106805 0.053393,-0.212244 0.08174,-0.317933 0.00397,-0.01536 0.00792,-0.03072 0.01188,-0.04609 0,0 -0.00255,-6.5e-5 -0.00255,-6.5e-5 v 0 c -0.00398,0.01536 -0.00789,0.03072 -0.011828,0.04609 -0.02829,0.105724 -0.05769,0.211184 -0.081948,0.317936 z" />
  <path
     style="fill:#ffffff;fill-opacity:0.992157;stroke:#ffffff;stroke-width:0.00390625;stroke-opacity:1"
     d=""
     id="path122"
     transform="scale(0.75)" />
  <path
     style="fill:#ffffff;fill-opacity:0.992157;stroke:#ffffff;stroke-width:0.00390625;stroke-opacity:1"
     d="m 10.699764,50.374243 c -0.0043,-0.0043 -0.0028,-0.0077 0.0034,-0.0077 0.0032,0 0.0059,0.0014 0.0059,0.003 0,0.0044 -0.0063,0.0076 -0.0092,0.0047 z"
     id="path123"
     transform="scale(0.75)" />
  <path
     style="fill:#ffffff;fill-opacity:0.992157;stroke:#ffffff;stroke-width:0.00390625;stroke-opacity:1"
     d=""
     id="path124"
     transform="scale(0.75)" />
  <path
     style="fill:#ffffff;fill-opacity:0.992157;stroke:#ffffff;stroke-width:0.00390625;stroke-opacity:1"
     d=""
     id="path125"
     transform="scale(0.75)" />
  <path
     style="fill:#ffffff;fill-opacity:0.992157;stroke:#ffffff;stroke-width:0.00390625;stroke-opacity:1"
     d="m 10.73709,50.054687 c 7.9e-5,-0.0064 9.55e-4,-0.0086 0.0019,-0.0048 9.91e-4,0.0038 9.25e-4,0.0091 -1.45e-4,0.01172 -0.0011,0.0026 -0.0019,-4.65e-4 -0.0018,-0.0069 z"
     id="path126"
     transform="scale(0.75)" />
  <path
     style="fill:#ffffff;fill-opacity:0.992157;stroke:#ffffff;stroke-width:0.00390625;stroke-opacity:1"
     d=""
     id="path127"
     transform="scale(0.75)" />
  <path
     style="fill:#ffffff;fill-opacity:0.992157;stroke:#ffffff;stroke-width:0.00390625;stroke-opacity:1"
     d=""
     id="path128"
     transform="scale(0.75)" />
  <path
     style="fill:#ffffff;fill-opacity:0.992157;stroke:#ffffff;stroke-width:0.00390625;stroke-opacity:1"
     d="m 15.95148,50.183268 c 1.88e-4,-0.0045 0.0011,-0.0055 0.0024,-0.0024 0.0011,0.0028 9.9e-4,0.0062 -3.08e-4,0.0075 -0.0013,0.0013 -0.0022,-10e-4 -0.0021,-0.0051 z"
     id="path129"
     transform="scale(0.75)" />
  <path
     style="fill:#ffffff;fill-opacity:0.992157;stroke:#ffffff;stroke-width:0.00390625;stroke-opacity:1"
     d=""
     id="path130"
     transform="scale(0.75)" />
  <path
     style="fill:#ffffff;fill-opacity:0.992157;stroke:#ffffff;stroke-width:0.00390625;stroke-opacity:1"
     d="m 15.979501,50.3125 c 4.3e-5,-0.0086 8.43e-4,-0.01165 0.0018,-0.0068 9.35e-4,0.0049 8.99e-4,0.01189 -7.8e-5,0.01563 -9.78e-4,0.0037 -0.0017,-2.41e-4 -0.0017,-0.0088 z"
     id="path131"
     transform="scale(0.75)" />
</svg>
