<?xml version="1.0" encoding="UTF-8" standalone="no"?>
<!-- Generator: Gravit.io -->

<svg
   style="isolation:isolate"
   viewBox="0 0 48 48"
   width="48pt"
   height="48pt"
   version="1.1"
   id="svg2"
   sodipodi:docname="joplin.svg"
   inkscape:version="1.3.2 (091e20ef0f, 2023-11-25, custom)"
   xmlns:inkscape="http://www.inkscape.org/namespaces/inkscape"
   xmlns:sodipodi="http://sodipodi.sourceforge.net/DTD/sodipodi-0.dtd"
   xmlns="http://www.w3.org/2000/svg"
   xmlns:svg="http://www.w3.org/2000/svg">
  <defs
     id="defs2" />
  <sodipodi:namedview
     id="namedview2"
     pagecolor="#ffffff"
     bordercolor="#000000"
     borderopacity="0.25"
     inkscape:showpageshadow="2"
     inkscape:pageopacity="0.0"
     inkscape:pagecheckerboard="0"
     inkscape:deskcolor="#d1d1d1"
     inkscape:document-units="pt"
     inkscape:zoom="5.8004853"
     inkscape:cx="26.118504"
     inkscape:cy="33.186878"
     inkscape:window-width="1366"
     inkscape:window-height="713"
     inkscape:window-x="0"
     inkscape:window-y="19"
     inkscape:window-maximized="0"
     inkscape:current-layer="svg2" />
  <linearGradient
     id="_lgradient_0"
     x1="0.9602272727272727"
     y1="0.505681818181818"
     x2="0.011916733708769"
     y2="0.5692880128720834"
     gradientTransform="matrix(-44,0,0,-44,46,46)"
     gradientUnits="userSpaceOnUse">
    <stop
       offset="0%"
       stop-opacity="1"
       style="stop-color:rgb(0,255,255)"
       id="stop1" />
    <stop
       offset="98.26086956521739%"
       stop-opacity="1"
       style="stop-color:rgb(165,83,168)"
       id="stop2" />
  </linearGradient>
  <path
     d="M 23.999999,7.866667 V 2 h 16.133334 v 5.866667 h -2.933334 c 0,0 -1.466666,0 -1.466666,1.466666 v 26.4 C 35.733333,38.666667 34.266666,46 22.533333,46 12.266666,46 7.8666665,37.867333 7.8666665,30.6 c 0,-14.666667 16.1333325,-10.266667 16.1333325,-10.266667 V 28.4 c 0,0 -1.466666,-1.466667 -4.4,-1.466667 -1.762933,0 -4.4,1.466667 -4.4,4.4 0,3.817734 4.4,5.866667 7.333334,5.866667 4.4,0 5.866666,-2.933333 5.866666,-4.4 V 9.333333 c 0,-1.466666 -1.466666,-1.466666 -1.466666,-1.466666 z"
     fill-rule="evenodd"
     fill="url(#_lgradient_0)"
     id="path2"
     sodipodi:nodetypes="ccccccccccccssssccsssssc"
     style="fill:#89b4fa;fill-opacity:1;stroke-width:1.46667" />
</svg>
