<?xml version="1.0" encoding="UTF-8" standalone="no"?>
<svg
   height="16px"
   viewBox="0 0 16 16"
   width="16px"
   version="1.1"
   id="svg3"
   sodipodi:docname="com.system76.CosmicWorkspaces.svg"
   inkscape:version="1.4.3 (0d15f75042, 2025-12-25)"
   xmlns:inkscape="http://www.inkscape.org/namespaces/inkscape"
   xmlns:sodipodi="http://sodipodi.sourceforge.net/DTD/sodipodi-0.dtd"
   xmlns="http://www.w3.org/2000/svg"
   xmlns:svg="http://www.w3.org/2000/svg">
  <defs
     id="defs3" />
  <sodipodi:namedview
     id="namedview3"
     pagecolor="#ffffff"
     bordercolor="#000000"
     borderopacity="0.25"
     inkscape:showpageshadow="2"
     inkscape:pageopacity="0.0"
     inkscape:pagecheckerboard="0"
     inkscape:deskcolor="#d1d1d1"
     inkscape:zoom="21.743534"
     inkscape:cx="8.8991973"
     inkscape:cy="10.07196"
     inkscape:window-width="1360"
     inkscape:window-height="669"
     inkscape:window-x="20"
     inkscape:window-y="20"
     inkscape:window-maximized="0"
     inkscape:current-layer="svg3" />
  <g
     fill="#2e3436"
     id="g3"
     transform="matrix(0.99422009,0,0,0.72979263,-0.45087077,2.161659)"
     style="fill:#e4eaff;fill-opacity:1;stroke-width:1.00023;stroke-dasharray:none">
    <path
       d="m 0.5,3.5 c 0,-1.644531 1.355469,-3 3,-3 h 7 c 1.644531,0 3,1.355469 3,3 v 6 c 0,1.644531 -1.355469,3 -3,3 h -7 c -1.644531,0 -3,-1.355469 -3,-3 z m 2,0 v 6 c 0,0.570312 0.429688,1 1,1 h 7 c 0.570312,0 1,-0.429688 1,-1 v -6 c 0,-0.570312 -0.429688,-1 -1,-1 h -7 c -0.570312,0 -1,0.429688 -1,1 z m 2,11 c 0,-0.550781 0.449219,-1 1,-1 h 8 c 0.550781,0 1,-0.449219 1,-1 v -7 c 0,-0.550781 0.449219,-1 1,-1 0.550781,0 1,0.449219 1,1 v 7 c 0,1.65625 -1.34375,3 -3,3 h -8 c -0.550781,0 -1,-0.449219 -1,-1 z m 0,0"
       id="path2"
       style="fill:#e4eaff;fill-opacity:1;stroke-width:1.00023;stroke-dasharray:none" />
  </g>
</svg>
