<?xml version="1.0" encoding="UTF-8" standalone="no"?>
<svg
   width="128"
   height="128"
   viewBox="0 0 128 128"
   fill="none"
   version="1.1"
   id="svg4"
   sodipodi:docname="com.system76.CosmicVideo.svg"
   inkscape:version="1.4.2 (ebf0e940d0, 2025-05-08)"
   xmlns:inkscape="http://www.inkscape.org/namespaces/inkscape"
   xmlns:sodipodi="http://sodipodi.sourceforge.net/DTD/sodipodi-0.dtd"
   xmlns:xlink="http://www.w3.org/1999/xlink"
   xmlns="http://www.w3.org/2000/svg"
   xmlns:svg="http://www.w3.org/2000/svg">
  <sodipodi:namedview
     id="namedview4"
     pagecolor="#ffffff"
     bordercolor="#000000"
     borderopacity="0.25"
     inkscape:showpageshadow="2"
     inkscape:pageopacity="0.0"
     inkscape:pagecheckerboard="0"
     inkscape:deskcolor="#d1d1d1"
     inkscape:zoom="4.046875"
     inkscape:cx="63.876448"
     inkscape:cy="63.752896"
     inkscape:window-width="1350"
     inkscape:window-height="659"
     inkscape:window-x="20"
     inkscape:window-y="20"
     inkscape:window-maximized="0"
     inkscape:current-layer="svg4" />
  <g
     clip-path="url(#clip0)"
     id="g1"
     style="fill:url(#linearGradient5);stroke:url(#linearGradient6)">
    <path
       d="M50.6908 75.2184L50.9335 74.7812L50.6919 75.219C52.0189 75.9513 53.6689 75.9388 55.0039 75.1025L85.0035 56.3527H85.0036C86.2446 55.5766 87 54.2152 87 52.75C87 51.2848 86.2446 49.9234 85.0036 49.1473H85.0035L55.0049 30.3982C55.0048 30.3981 55.0047 30.398 55.0046 30.398C53.6927 29.572 52.0292 29.534 50.6908 30.2816C49.3385 31.0324 48.5 32.4558 48.5 34V71.5C48.5 73.0442 49.3385 74.4676 50.6908 75.2184ZM19 90.75H29.75V94C29.75 96.3489 31.6511 98.25 34 98.25C36.3489 98.25 38.25 96.3489 38.25 94V90.75H109C111.349 90.75 113.25 88.8489 113.25 86.5C113.25 84.1511 111.349 82.25 109 82.25H38.25V79C38.25 76.6511 36.3489 74.75 34 74.75C31.6511 74.75 29.75 76.6511 29.75 79V82.25H19C16.6511 82.25 14.75 84.1511 14.75 86.5C14.75 88.8489 16.6511 90.75 19 90.75ZM57 63.8304V41.6696L74.7313 52.75L57 63.8304ZM124.25 14.75H3.75C1.40111 14.75 -0.5 16.6511 -0.5 19V109C-0.5 111.349 1.40111 113.25 3.75 113.25H124.25C126.599 113.25 128.5 111.349 128.5 109V19C128.5 16.6511 126.599 14.75 124.25 14.75ZM120 104.75H8V23.25H120V104.75Z"
       fill="url(#paint0_linear)"
       stroke="url(#paint1_linear)"
       id="path1"
       style="fill:url(#linearGradient5);stroke:url(#linearGradient6)" />
  </g>
  <defs
     id="defs4">
    <linearGradient
       id="swatch6"
       inkscape:swatch="solid">
      <stop
         style="stop-color:#b4befe;stop-opacity:1;"
         offset="0"
         id="stop6" />
    </linearGradient>
    <linearGradient
       id="swatch5"
       inkscape:swatch="solid">
      <stop
         style="stop-color:#b4befe;stop-opacity:1;"
         offset="0"
         id="stop5" />
    </linearGradient>
    <linearGradient
       id="paint0_linear"
       x1="64"
       y1="14.75"
       x2="64"
       y2="113.25"
       gradientUnits="userSpaceOnUse">
      <stop
         stop-color="#a78bfa"
         id="stop1" />
      <stop
         offset="1"
         stop-color="#a78bfa"
         id="stop2" />
    </linearGradient>
    <linearGradient
       id="paint1_linear"
       x1="64"
       y1="14.75"
       x2="64"
       y2="113.25"
       gradientUnits="userSpaceOnUse">
      <stop
         stop-color="#a78bfa"
         id="stop3" />
      <stop
         offset="1"
         stop-color="#a78bfa"
         id="stop4" />
    </linearGradient>
    <clipPath
       id="clip0">
      <rect
         width="128"
         height="128"
         fill="white"
         id="rect4" />
    </clipPath>
    <linearGradient
       inkscape:collect="always"
       xlink:href="#swatch6"
       id="linearGradient5"
       x1="0"
       y1="64"
       x2="128"
       y2="64"
       gradientUnits="userSpaceOnUse" />
    <linearGradient
       inkscape:collect="always"
       xlink:href="#swatch6"
       id="linearGradient6"
       x1="0"
       y1="64"
       x2="128"
       y2="64"
       gradientUnits="userSpaceOnUse" />
  </defs>
</svg>
