<?xml version="1.0" encoding="UTF-8" standalone="no"?>
<!-- Generator: Gravit.io -->

<svg
   style="isolation:isolate"
   viewBox="0 0 48 48"
   width="48pt"
   height="48pt"
   version="1.1"
   id="svg2"
   sodipodi:docname="octopi.svg"
   inkscape:version="1.3.2 (091e20ef0f, 2023-11-25, custom)"
   xmlns:inkscape="http://www.inkscape.org/namespaces/inkscape"
   xmlns:sodipodi="http://sodipodi.sourceforge.net/DTD/sodipodi-0.dtd"
   xmlns="http://www.w3.org/2000/svg"
   xmlns:svg="http://www.w3.org/2000/svg">
  <defs
     id="defs2" />
  <sodipodi:namedview
     id="namedview2"
     pagecolor="#ffffff"
     bordercolor="#000000"
     borderopacity="0.25"
     inkscape:showpageshadow="2"
     inkscape:pageopacity="0.0"
     inkscape:pagecheckerboard="0"
     inkscape:deskcolor="#d1d1d1"
     inkscape:document-units="pt"
     inkscape:zoom="45.254834"
     inkscape:cx="11.14798"
     inkscape:cy="54.281494"
     inkscape:window-width="1366"
     inkscape:window-height="713"
     inkscape:window-x="0"
     inkscape:window-y="19"
     inkscape:window-maximized="0"
     inkscape:current-layer="svg2" />
  <linearGradient
     id="_lgradient_9"
     x1="0"
     y1="0.5"
     x2="0.9877902644462152"
     y2="0.3442104192659979"
     gradientTransform="matrix(42.3,0,0,44.833,2.85,1.584)"
     gradientUnits="userSpaceOnUse">
    <stop
       offset="1"
       stop-opacity="1"
       style="stop-color:#ff859d;stop-opacity:1;"
       id="stop1" />
    <stop
       offset="100%"
       stop-opacity="1"
       style="stop-color:rgb(33,214,145)"
       id="stop2" />
  </linearGradient>
  <path
     d="m 7.135,30.964 v 0 c 0.105,1.1 2.1989467,8.886482 1.3212297,9.557467 L 6.0635532,42.350588 C 5.1859097,43.021517 3.255,32.434 3.15,31.334 v 0 C 2.95,29.182 2.85,28.165 2.85,26.002 2.86,24.28 2.96,22.558 3.17,20.846 3.411,18.954 3.801,17.092 4.352,15.28 4.802,13.788 5.413,12.356 6.174,11.005 6.584,10.274 7.045,9.583 7.546,8.912 8.026,8.281 8.547,7.671 9.107,7.11 9.658,6.559 10.249,6.039 10.879,5.568 c 0.631,-0.48 1.292,-0.911 1.993,-1.301 1.512,-0.841 3.124,-1.472 4.806,-1.873 2.062,-0.5 4.164,-0.77 6.287,-0.81 h 0.03 0.811 0.02 c 1.342,0.01 2.663,0.15 3.975,0.4 1.241,0.25 2.463,0.621 3.624,1.131 2.293,1.001 4.325,2.513 5.957,4.406 0.741,0.861 1.402,1.782 1.982,2.753 0.671,1.111 1.242,2.282 1.732,3.484 0.521,1.261 0.952,2.553 1.292,3.864 0.42,1.602 0.761,3.214 1.011,4.846 0.1,0.661 0.19,1.322 0.27,1.973 0.081,0.72 0.151,1.431 0.211,2.152 0.19,2.183 0.27,4.375 0.27,6.558 -0.01,3.033 -0.12,6.057 -0.12,6.057 -0.127,1.663 -0.76,3.538 -1.412,4.185 0,0 -1.381,0.941 -2.903,1.622 -1.182,0.51 -2.463,0.781 -3.755,0.791 -1.291,-0.01 -2.563,-0.281 -3.744,-0.791 -0.711,-0.321 -1.392,-0.691 -2.033,-1.121 -0.71,0.57 -1.471,1.081 -2.272,1.511 -1.222,0.641 -2.563,0.991 -3.945,1.011 -1.361,-0.01 -2.703,-0.37 -3.884,-1.041 -0.741,-0.42 -1.432,-0.921 -2.063,-1.481 -0.561,0.32 -1.151,0.6 -1.752,0.83 -1.151,0.421 -2.363,0.641 -3.584,0.641 -1.252,-0.01 -2.483,-0.22 -3.665,-0.62 C 8.747,44.304 7.536,43.703 6.414,42.972 v 0 C 5.486,42.37 5.221,41.13 5.824,40.204 v 0 c 0.602,-0.925 1.844,-1.188 2.773,-0.586 v 0 c 0.851,0.551 1.762,1.002 2.723,1.332 0.771,0.26 1.572,0.401 2.373,0.411 0.741,0 1.472,-0.131 2.162,-0.391 1.512,-0.571 2.814,-1.572 2.814,-1.572 0.519,-0.724 1.268,-0.594 1.672,0.291 0,0 1.211,1.331 2.723,2.212 0.581,0.321 1.231,0.501 1.892,0.511 0.721,-0.01 1.422,-0.2 2.063,-0.541 1.601,-0.861 2.963,-2.112 2.963,-2.112 0.542,-0.84 1.43,-0.917 1.982,-0.171 0,0 1.322,1.072 2.864,1.752 0.671,0.301 1.401,0.451 2.132,0.461 0.741,-0.01 1.472,-0.16 2.143,-0.461 0.641,-0.28 1.251,-0.63 1.251,-0.63 0.31,-0.232 0.625,-1.436 0.704,-2.687 0.007,-0.117 0.087,-2.489 0.087,-4.872 0,-2.083 -0.08,-4.155 -0.25,-6.228 -0.06,-0.67 -0.13,-1.341 -0.21,-2.012 -0.07,-0.611 -0.15,-1.221 -0.241,-1.832 -0.23,-1.492 -0.54,-2.974 -0.931,-4.435 -0.3,-1.152 -0.67,-2.273 -1.121,-3.374 C 37.982,14.248 37.491,13.267 36.92,12.326 36.46,11.545 35.939,10.814 35.348,10.134 34.107,8.692 32.565,7.551 30.823,6.78 29.922,6.399 28.991,6.109 28.03,5.919 26.969,5.708 25.887,5.598 24.806,5.588 h -0.781 c -1.822,0.04 -3.634,0.271 -5.416,0.701 -1.322,0.31 -2.593,0.811 -3.785,1.472 -0.53,0.3 -1.051,0.641 -1.532,1.001 -0.48,0.36 -0.931,0.751 -1.351,1.181 -0.431,0.431 -0.831,0.891 -1.192,1.382 -0.4,0.521 -0.761,1.071 -1.081,1.642 -0.621,1.101 -1.111,2.263 -1.482,3.474 -0.48,1.592 -0.831,3.234 -1.041,4.896 -0.19,1.552 -0.28,3.104 -0.29,4.665 0,2.043 0.1,2.94 0.28,4.962 z m 7.322,-11.432 c -0.14,-2.579 1.478,-4.767 3.611,-4.882 2.133,-0.116 3.979,1.883 4.119,4.462 0.14,2.579 -1.478,4.767 -3.611,4.883 -2.133,0.116 -3.978,-1.884 -4.119,-4.463 z m 11.356,0 c -0.14,-2.579 1.478,-4.767 3.611,-4.882 2.133,-0.116 3.978,1.883 4.119,4.462 0.14,2.579 -1.478,4.767 -3.611,4.883 -2.133,0.116 -3.979,-1.884 -4.119,-4.463 z"
     fill-rule="evenodd"
     fill="url(#_lgradient_9)"
     id="path2"
     sodipodi:nodetypes="ssssssccccccccccccccccccccccccccccccccccccsssssscccccccccccccccsccccccccccccccccccccsccsscsccss" />
  <path
     style="fill:#ff859d;stroke:#ff859d;stroke-width:0.07425;fill-opacity:1;stroke-opacity:1"
     d="m 8.7993112,39.950272 c -0.037515,-0.09347 -0.1000807,-0.200928 -0.1276905,-0.29765 -0.00442,-0.01548 0.0039,-0.03266 0,-0.04828 -0.0018,-0.0073 -0.013485,-0.0089 -0.01596,-0.01596 -0.016972,-0.04878 0.00405,-0.103493 -0.016163,-0.157377 C 8.5886557,39.295647 8.224738,38.957797 8.106337,38.881682 7.9896527,38.806672 7.9349605,38.783222 7.7992502,38.752383 c -0.1526775,-0.0347 -0.4101954,-0.05353 -0.5656852,-0.03233 -0.087056,0.01187 -0.3044953,0.105911 -0.3717362,0.129299 -0.2952325,0.10269 -0.5239822,0.168235 -0.7612998,0.388601 -0.036398,0.0338 -0.061853,0.07802 -0.096975,0.113138 -0.035122,0.03512 -0.082108,0.05819 -0.1131371,0.09697 -0.1498243,0.187281 -0.1702607,0.42997 -0.2424366,0.646498 -0.042544,0.127634 -0.1224646,0.241203 -0.1616244,0.371736 -0.03836,0.127864 -0.016024,0.248194 -0.032325,0.3782 -0.01532,0.12218 -0.030757,0.253882 -0.00151,0.373153 0.00456,0.0186 -0.00771,0.03992 0,0.05744 0.00167,0.0038 0.010882,-0.0038 0.012417,0 0.00524,0.01312 -0.00551,0.02939 0,0.04241 0.015098,0.03569 0.031025,0.0624 0.044943,0.09848 0.00752,0.01949 0.00761,0.05789 0.015963,0.07455 0.00679,0.01354 0.024344,0.01913 0.032127,0.03213 0.00732,0.01222 0.059599,0.116194 0.064252,0.127491 0.00392,0.0095 -0.00466,0.02173 0,0.03092 0.00688,0.01355 0.023039,0.02015 0.032122,0.03233 0.053622,0.07187 0.092499,0.135044 0.1775871,0.177587 0.2618076,0.130905 0.7879257,0.08124 1.0299807,0.03801 0.2006544,-0.03583 0.4670997,-0.156996 0.6636325,-0.231069 0.081387,-0.03068 0.1684552,-0.04781 0.2457652,-0.08765 0.1639373,-0.0845 0.3211785,-0.27967 0.4257382,-0.424401 0.055785,-0.05959 0.067523,-0.144945 0.1131368,-0.210111 0.017475,-0.02497 0.0444,-0.04187 0.06465,-0.06465 0.08162,-0.09182 0.1558222,-0.190278 0.2262742,-0.290924 0.097975,-0.139964 0.1697895,-0.331919 0.1939493,-0.501036 0.00742,-0.05197 0.00165,-0.117934 0.00427,-0.168877 z"
     id="path3" />
  <path
     style="fill:#ff859d;fill-opacity:1;stroke:#ff859d;stroke-width:0.07425;stroke-opacity:1"
     d="m 8.8737405,39.928481 c -0.052912,-0.01515 -0.031815,-0.08949 -0.056527,-0.115879 -0.00854,-0.0091 -0.01989,-0.0087 -0.030345,-0.02821 -0.00495,-0.0092 0.00457,-0.02563 0,-0.03503 -0.039465,-0.08048 -0.064312,-0.169634 -0.087131,-0.259715 -0.00869,-0.03433 -0.00805,-0.113279 -0.03192,-0.139884 -0.0081,-0.009 -0.063128,0 -0.076639,0"
     id="path4" />
  <path
     style="fill:#ff859d;fill-opacity:1;stroke:#ff859d;stroke-width:0.07425;stroke-opacity:1"
     d="m 5.4407966,41.477839 c 0.078411,0 0.2879516,-0.0018 0.3720054,0.0046 0.019088,0.0015 0.037251,0.0089 0.055953,0.01295 0.012678,0.0028 0.025705,0.004 0.038178,0.0076 0.014873,0.0043 0.028759,0.01159 0.043628,0.01588 0.012159,0.0035 0.024818,0.005 0.037228,0.0074 0.016261,0.0054 0.032317,0.0115 0.048785,0.01626 0.026951,0.0078 0.054272,0.01423 0.081407,0.02135 0.031446,0.0069 0.06336,0.01189 0.094338,0.02064 0.00291,8.25e-4 0.1233797,0.04525 0.131587,0.0491 0.048931,0.02299 0.079994,0.07004 0.1176479,0.106221 0.00592,0.0057 0.065319,0.05416 0.07968,0.07179 0.00497,0.0061 0.00786,0.01364 0.011719,0.0205 0.023944,0.04257 0.034512,0.08075 0.040563,0.13093 0.00683,0.05664 0.024316,0.209056 -0.012965,0.266978 -0.00487,0.0076 -0.014648,0.01074 -0.020508,0.01758 -0.00599,0.007 -0.00794,0.01713 -0.014648,0.02344 -0.032085,0.03017 -0.1104053,0.06016 -0.1535929,0.06892 -0.017038,0.0034 -0.034768,0.0027 -0.051759,0.0064 -0.025217,0.0055 -0.048577,0.0178 -0.073717,0.0236 -0.040856,0.0094 -0.027703,0.0042 -0.067383,0.0058 -0.020402,8.25e-4 -0.051865,0.002 -0.071309,0.01172 -0.00196,9.75e-4 0.00479,0.0046 0.00296,0.0058 -0.00158,10e-4 -0.05509,0.0053 -0.058558,0.0059 -0.014026,0.0023 -0.027425,0.0075 -0.041015,0.01172 -0.010053,0.0031 -0.019223,0.0087 -0.029297,0.01172 -0.025448,0.0076 -0.069785,0.0092 -0.096607,0.0058 -0.00828,-10e-4 -0.01577,-0.0055 -0.023437,-0.0088 -0.00551,-0.0024 -0.014652,-0.0088 -0.017414,-0.01425 -0.00182,-0.0036 -6.962e-4,-0.0084 -0.00293,-0.01172 -0.00383,-0.0058 -0.010029,-0.0095 -0.014648,-0.01465 -0.010615,-0.01179 -0.016709,-0.02602 -0.026328,-0.03805 -0.00259,-0.0032 -0.0063,-0.0055 -0.00879,-0.0088 -0.021342,-0.02846 -0.031424,-0.06278 -0.046839,-0.09368 -0.00318,-0.0064 -0.010321,-0.01836 -0.014575,-0.02301 -0.00127,-0.0014 -0.00325,-0.0019 -0.00488,-0.0028 -0.00195,-0.002 -0.00413,-0.0037 -0.00586,-0.0059 -0.00676,-0.0085 -0.00386,-0.0084 -0.011719,-0.01465 -0.00275,-0.0022 -0.00664,-0.0031 -0.00879,-0.0059 -0.00113,-0.0015 6.02e-4,-0.0038 0,-0.0056 -8.64e-5,-2.54e-4 -0.00541,-0.0052 -0.0056,-0.0056 -0.00473,-0.0085 -0.013549,-0.02035 -0.016937,-0.02994 -0.00128,-0.0036 -6.971e-4,-0.0097 -0.00279,-0.01312 -0.00554,-0.0089 -0.013068,-0.01693 -0.018823,-0.02566 -0.00338,-0.0051 -0.00224,-0.0084 -0.00562,-0.01345 -0.00148,-0.0023 -0.00448,-0.0033 -0.00568,-0.0057 -0.00236,-0.0047 -0.00557,-0.01121 -0.00793,-0.01611 -0.00113,-0.0023 -8.475e-4,-0.0096 -0.00194,-0.01125 -0.00118,-0.0018 -0.00413,-0.0015 -0.00569,-0.0029 -3.921e-4,-3.68e-4 -0.0045,-0.0073 -0.00487,-0.0083 -6.488e-4,-0.0017 4.36e-4,-0.0038 0,-0.0056 -0.00157,-0.0065 -0.00915,-0.01081 -0.011084,-0.0167 -5.942e-4,-0.0018 5.878e-4,-0.0039 0,-0.0057 -0.00315,-0.0097 -0.013805,-0.01794 -0.016462,-0.02862 -0.00592,-0.02377 -9.374e-4,-0.01123 -0.00293,-0.03515 -0.00118,-0.01412 -0.00683,-0.02732 -0.00879,-0.04102 -0.00262,-0.01827 -0.00315,-0.04132 -0.011719,-0.05845 -0.00218,-0.0044 -0.00661,-0.0073 -0.00879,-0.01172 -0.00733,-0.01465 -0.010985,-0.03204 -0.017578,-0.04687 -0.00231,-0.0052 -0.00624,-0.0096 -0.00879,-0.01465 -0.011735,-0.02347 -0.020163,-0.04888 -0.029297,-0.07325 -0.00859,-0.0229 -0.01234,-0.04717 -0.020508,-0.07031 -0.00248,-0.007 -0.00629,-0.01351 -0.00879,-0.0205 -0.00239,-0.0067 -0.00313,-0.01394 -0.00586,-0.0205 -0.00219,-0.0052 -0.00644,-0.0095 -0.00879,-0.01465 -0.00768,-0.0169 -0.012153,-0.03602 -0.020508,-0.05266 -0.010699,-0.02131 -0.017081,-0.02987 -0.022335,-0.05474 z"
     id="path6" />
</svg>
