<?xml version="1.0" encoding="UTF-8" standalone="no"?>
<!-- Generator: Gravit.io -->

<svg
   style="isolation:isolate"
   viewBox="0 0 48 48"
   width="48pt"
   height="48pt"
   version="1.1"
   id="svg3"
   sodipodi:docname="com.system76.Popsicle.svg"
   inkscape:version="1.4.2 (ebf0e940d0, 2025-05-08)"
   xmlns:inkscape="http://www.inkscape.org/namespaces/inkscape"
   xmlns:sodipodi="http://sodipodi.sourceforge.net/DTD/sodipodi-0.dtd"
   xmlns="http://www.w3.org/2000/svg"
   xmlns:svg="http://www.w3.org/2000/svg">
  <defs
     id="defs3" />
  <sodipodi:namedview
     id="namedview3"
     pagecolor="#ffffff"
     bordercolor="#ffffff"
     borderopacity="0.25"
     inkscape:showpageshadow="2"
     inkscape:pageopacity="0.0"
     inkscape:pagecheckerboard="0"
     inkscape:deskcolor="#ffffff"
     inkscape:document-units="pt"
     inkscape:zoom="5.12"
     inkscape:cx="28.222656"
     inkscape:cy="26.367187"
     inkscape:window-width="1350"
     inkscape:window-height="659"
     inkscape:window-x="20"
     inkscape:window-y="20"
     inkscape:window-maximized="0"
     inkscape:current-layer="svg3" />
  <linearGradient
     id="_lgradient_15"
     x1="0.34027777777777773"
     y1="0.036585365853658625"
     x2="1.0087187958883996"
     y2="1.012732351993124"
     gradientTransform="matrix(-32,0,0,-44,40.002854,46)"
     gradientUnits="userSpaceOnUse">
    <stop
       offset="0"
       stop-opacity="1"
       style="stop-color:#a6e3a1;stop-opacity:1;"
       id="stop1" />
    <stop
       offset="0.51304346"
       stop-opacity="1"
       style="stop-color:#a6e3a1;stop-opacity:1;"
       id="stop2" />
    <stop
       offset="0.98695654"
       stop-opacity="1"
       style="stop-color:#a6e3a1;stop-opacity:1;"
       id="stop3" />
  </linearGradient>
  <path
     d="m 12.002854,16 v 0 c 0,1.104 -0.896,2 -2,2 v 0 C 8.8988542,18 8.0028542,17.104 8.0028542,16 v 0 -9 c 0,-2.76 2.2399998,-5 4.9999998,-5 h 22 c 2.76,0 5,2.24 5,5 v 3 0 c 0,1.104 -0.896,2 -2,2 v 0 c -1.104,0 -2,-0.896 -2,-2 v 0 -1 c 0,-1.656 -1.344,-3 -3,-3 h -18 c -1.656,0 -3,1.344 -3,3 z m 15.5,25 h -2 v -4 h 2 z m -5,0 h -2 v -4 h 2 z m 9.5,-5 h -16 v 4 c 0,1.104 0.896,2 2,2 h 12 c 1.104,0 2,-0.896 2,-2 z m 4,-0.1 c 2.281,-0.464 4,-2.483 4,-4.9 v -9 l -0.0086,-11.510146 c 0,-1.104 -0.144912,1.486844 -1.248912,1.486844 l -1.459953,0.117431 c -1.104,0 -1.250791,-2.692362 -1.250791,-1.588362 L 36.003668,9.994272 36.002854,29 c -7.1e-5,1.656 -1.344,3 -3,3 h -18 c -1.656,0 -3,-1.344 -3,-3 v -1 l -0.01275,-12.078035 c -0.0012,-1.104 0.133406,2.272839 -0.964786,2.159748 L 9.2104622,17.894822 c -1.104,0 -1.205012,-2.881309 -1.204051,-1.77731 L 8.0172992,28.632057 8.0028542,31 c -0.01474,2.416955 1.719,4.436 3.9999998,4.9 v 0.1 5 c 0,2.76 2.24,5 5,5 h 14 c 2.76,0 5,-2.24 5,-5 v -5 z m -5.742317,-7.015 h -3.5 v -19 h 3.5 z m -9.5,0 h -3.5 v -19 h 3.5 z"
     fill-rule="evenodd"
     fill="url(#_lgradient_15)"
     id="path3"
     sodipodi:nodetypes="csssscsssscsssscssssccsscccccccscccccsssscccccsscsssscsssscsssscscccccccccc"
     style="fill:url(#_lgradient_15)" />
  <path
     style="fill:#ffffff;fill-opacity:1;stroke:#ffffff;stroke-width:0.015625;stroke-opacity:1"
     d=""
     id="path44"
     transform="scale(0.75)" />
  <path
     style="fill:#ffffff;fill-opacity:1;stroke:#ffffff;stroke-width:0.015625;stroke-opacity:1"
     d=""
     id="path45"
     transform="scale(0.75)" />
  <path
     style="fill:#ffffff;fill-opacity:1;stroke:#ffffff;stroke-width:0.015625;stroke-opacity:1"
     d=""
     id="path46"
     transform="scale(0.75)" />
  <path
     style="fill:#ffffff;fill-opacity:1;stroke:#ffffff;stroke-width:0.015625;stroke-opacity:1"
     d=""
     id="path47"
     transform="scale(0.75)" />
  <path
     style="fill:#ffffff;fill-opacity:1;stroke:#ffffff;stroke-width:0.015625;stroke-opacity:1"
     d=""
     id="path49"
     transform="scale(0.75)" />
  <path
     style="fill:#a6e3a1;fill-opacity:1;stroke:#a6e3a1;stroke-width:0.00612507;stroke-opacity:1"
     d="m 11.999764,15.123148 c 0,0.380838 -0.0022,0.577117 -0.0063,0.577117 -0.0042,0 -0.0059,0.03486 -0.005,0.0952 l 0.0013,0.0952 0.0038,-0.07031 c 0.0024,-0.04371 0.0038,-0.0016 0.0038,0.111322 -8.3e-5,0.151888 -6.59e-4,0.163401 -0.0035,0.07031 -0.0038,-0.126478 -0.0051,-0.120462 -0.02276,0.105463 -0.0152,0.195439 -0.0403,0.39131 -0.05806,0.453037 -0.0177,0.06157 -0.06284,0.178292 -0.09173,0.237206 -0.0106,0.02156 -0.01828,0.03921 -0.01715,0.03921 0.0047,0 0.0385,-0.05016 0.03699,-0.05479 -0.0025,-0.0077 0.05805,-0.152416 0.06651,-0.159066 0.0042,-0.0032 0.01106,-0.02696 0.01545,-0.05273 0.0045,-0.02578 0.01471,-0.07193 0.02294,-0.102533 0.0082,-0.03062 0.0206,-0.08466 0.02752,-0.12011 l 0.01258,-0.06445 6.18e-4,0.556609 c 3.4e-4,0.306136 0.0025,0.829496 0.0047,1.163022 0.0022,0.333527 0.0017,0.77713 -8.2e-4,0.985786 l -0.0048,0.379374 H 10.014209 8.0428063 l 3.2e-5,-1.097109 3.11e-5,-1.097106 0.015547,0.01758 c 0.021302,0.02408 0.035825,0.04635 0.087615,0.134337 0.052347,0.08893 0.1122464,0.174141 0.17123,0.243571 0.046857,0.05516 0.1377041,0.144083 0.1566993,0.153386 0.019687,0.0096 0.00639,-0.0057 -0.036177,-0.04178 -0.020736,-0.01757 -0.060691,-0.05712 -0.088789,-0.08788 -0.087132,-0.09541 -0.2017735,-0.261825 -0.1886507,-0.273832 0.00262,-0.0024 0.035882,0.02587 0.073904,0.06283 0.0647,0.06287 0.1311014,0.118331 0.2103564,0.175685 0.01849,0.01338 0.03362,0.02309 0.03362,0.02156 0,-0.0015 -0.020892,-0.01817 -0.046422,-0.03701 -0.067011,-0.04942 -0.2024127,-0.171167 -0.2690563,-0.241926 -0.042481,-0.04511 -0.065159,-0.0756 -0.087086,-0.117097 l -0.029646,-0.05612 -0.00319,-1.29054 -0.0032,-1.290539 h 1.9801769 1.980176 z m -0.102003,1.533607 c -2.47e-4,0.0024 0.0025,0.0044 0.006,0.0044 0.0035,0 0.0062,-0.0073 0.006,-0.01611 -3.99e-4,-0.01428 -0.0011,-0.01478 -0.006,-0.0044 -0.0031,0.0065 -0.0058,0.0137 -0.006,0.01611 z m -0.0087,0.05273 c -0.0021,0.0122 -0.0011,0.02198 0.0022,0.02198 0.0033,0 0.0061,-0.0047 0.0061,-0.01025 3.8e-5,-0.0056 0.0015,-0.0208 0.0034,-0.03369 0.0042,-0.02965 -0.0062,-0.01017 -0.01169,0.02198 z m -0.01049,0.05273 c -2.47e-4,0.0024 0.0025,0.0044 0.006,0.0044 0.0035,0 0.0062,-0.0073 0.006,-0.01611 -3.98e-4,-0.01428 -0.0011,-0.01478 -0.006,-0.0044 -0.0031,0.0065 -0.0058,0.0137 -0.006,0.01611 z m -0.0055,0.0542 1.19e-4,0.01758 0.0049,-0.01758 c 0.0027,-0.0097 0.0049,-0.02417 0.005,-0.03223 l 1.19e-4,-0.01465 -0.0051,0.01465 c -0.0027,0.0081 -0.005,0.02256 -0.005,0.03223 z m -0.06339,0.279404 c 0.0021,0.0046 0.0035,0.0033 0.0038,-0.0035 2.77e-4,-0.0062 -0.0012,-0.0096 -0.0034,-0.0077 -0.0021,0.002 -0.0024,0.007 -5.06e-4,0.01123 z m -0.0064,0.02344 c 0.0021,0.0047 0.0035,0.0033 0.0038,-0.0035 2.78e-4,-0.0061 -0.0012,-0.0096 -0.0034,-0.0077 -0.0022,0.002 -0.0024,0.007 -5.06e-4,0.01123 z m -0.0064,0.02344 c 0.0021,0.0046 0.0035,0.0033 0.0038,-0.0035 2.77e-4,-0.0062 -0.0012,-0.0096 -0.0034,-0.0077 -0.0022,0.002 -0.0024,0.007 -5.06e-4,0.01123 z m -0.03665,0.107294 c -0.01569,0.04834 -0.03021,0.09315 -0.03226,0.0996 -0.0021,0.0065 6.98e-4,0.003 0.0061,-0.0076 0.0111,-0.0218 0.06107,-0.175255 0.06028,-0.185172 -7.23e-4,-0.0092 -0.0023,-0.0049 -0.03413,0.09316 z M 8.4843246,17.58323 c 0,0.0012 0.00508,0.0059 0.011203,0.01025 0.010152,0.0073 0.010382,0.007 0.00237,-0.0022 -0.00837,-0.0098 -0.013622,-0.01286 -0.013622,-0.008 z m 0.025612,0.01758 c 0,0.0012 0.00508,0.0058 0.011203,0.01025 0.010152,0.0073 0.010382,0.007 0.00237,-0.0022 -0.00837,-0.0098 -0.013622,-0.01286 -0.013622,-0.008 z m 0.025612,0.01758 c 0,0.0012 0.00508,0.0058 0.011203,0.01025 0.010152,0.0073 0.010382,0.007 0.00237,-0.0022 -0.00837,-0.0098 -0.013622,-0.01286 -0.013622,-0.008 z m 0.1216604,0.07668 c 0,0.0015 0.00647,0.0056 0.014409,0.0091 0.013835,0.0061 0.013917,0.006 0.00197,-0.0027 -0.013065,-0.0096 -0.016383,-0.01088 -0.016383,-0.0064 z m 0.1059728,0.17263 c 0.00833,0.0074 0.1074239,0.02528 0.1257387,0.02261 0.00811,-0.0012 -0.015441,-0.0077 -0.052422,-0.01443 -0.082958,-0.01514 -0.080829,-0.01491 -0.073313,-0.0082 z"
     id="path55" />
  <path
     style="fill:#a6e3a1;fill-opacity:1;stroke:#a6e3a1;stroke-width:0.00612507;stroke-opacity:1"
     d="m 11.997176,15.130472 c -0.0015,0.321442 -0.0042,0.605532 -0.0058,0.631313 -0.0021,0.03349 -0.0016,0.03851 0.0017,0.01758 0.0025,-0.01611 0.0045,0.05244 0.0044,0.152335 -2.23e-4,0.124168 -0.0014,0.154752 -0.0038,0.09667 -0.0044,-0.105584 -0.009,-0.08754 -0.02276,0.08788 -0.0057,0.07251 -0.01737,0.188194 -0.02594,0.257083 -0.0085,0.0689 -0.01532,0.129531 -0.01498,0.134758 9.84e-4,0.0147 0.02918,-0.09463 0.04217,-0.163337 l 0.01164,-0.06152 0.0032,0.380838 c 0.0037,0.447517 0.005,2.484679 0.0017,2.614602 l -0.0023,0.08935 h -1.97186 -1.9718512 l 1.721e-4,-1.097108 1.721e-4,-1.097106 0.018785,0.0205 c 0.010338,0.01128 0.038268,0.05267 0.062069,0.09197 0.023801,0.03931 0.044193,0.07063 0.045308,0.06961 0.00115,-10e-4 -0.0014,-0.0088 -0.00566,-0.01729 -0.014523,-0.02917 0.00123,-0.02345 0.047406,0.01717 L 8.257189,17.39646 8.217996,17.35838 C 8.1445672,17.28702 8.1007138,17.233993 8.0732824,17.183366 l -0.0274,-0.05057 -0.00319,-1.293385 -0.0032,-1.293386 h 1.9803016 1.980297 z m -0.09933,1.482362 c -0.0067,0.02015 -0.0098,0.03529 -0.0069,0.03362 0.003,-0.0016 0.0072,-0.0109 0.0095,-0.02053 0.0023,-0.0096 0.0064,-0.01751 0.009,-0.01751 0.0047,0 0.0204,-0.06743 0.01914,-0.08271 -3.67e-4,-0.0044 -0.0047,0.0051 -0.0096,0.02118 -0.0049,0.01611 -0.01446,0.04579 -0.02117,0.06594 z m -0.0049,0.108004 c 0.0021,0.0046 0.0035,0.0033 0.0038,-0.0035 2.77e-4,-0.0062 -0.0012,-0.0096 -0.0034,-0.0077 -0.0021,0.002 -0.0024,0.007 -5.06e-4,0.01123 z m -0.07168,0.07876 c -0.01071,0.02158 -0.0056,0.02289 0.008,0.002 0.0061,-0.0096 0.0086,-0.0174 0.0055,-0.0174 -0.0032,0 -0.0092,0.0069 -0.01341,0.0154 z m -3.5481372,0.617373 c 0.00377,0.0065 0.00829,0.01172 0.010054,0.01172 0.00173,0 1.172e-4,-0.0053 -0.00369,-0.01172 -0.00377,-0.0065 -0.00829,-0.01172 -0.010054,-0.01172 -0.00173,0 -1.172e-4,0.0053 0.00368,0.01172 z m 0.019212,0.0134 c 0,9e-4 0.01513,0.01477 0.03362,0.03076 l 0.03362,0.02908 -0.031776,-0.03076 c -0.029522,-0.02858 -0.035456,-0.03345 -0.035456,-0.02908 z m -0.064035,0.02175 c 0.00377,0.0065 0.00829,0.01172 0.010054,0.01172 0.00173,0 1.173e-4,-0.0053 -0.00369,-0.01172 -0.00377,-0.0065 -0.00829,-0.01172 -0.010054,-0.01172 -0.00173,0 -1.172e-4,0.0052 0.00369,0.01172 z m 0.032014,0.04394 c 0.010906,0.0145 0.021268,0.02637 0.023023,0.02637 0.00172,0 -0.00574,-0.01187 -0.016622,-0.02637 -0.010895,-0.0145 -0.021268,-0.02637 -0.023022,-0.02637 -0.00173,0 0.00574,0.01187 0.016621,0.02637 z m 0.025612,0.03444 c 0,0.0012 0.00508,0.0059 0.011203,0.01025 0.010152,0.0073 0.010382,0.007 0.00237,-0.0022 -0.00837,-0.0098 -0.013622,-0.01286 -0.013622,-0.008 z m 0.042259,0.04906 c 0.042505,0.04811 0.1137791,0.118049 0.1338037,0.131302 0.010578,0.007 -0.0082,-0.01342 -0.041693,-0.04537 -0.033513,-0.03196 -0.072036,-0.07063 -0.085614,-0.08593 -0.013573,-0.01531 -0.026121,-0.02783 -0.027883,-0.02783 -0.00172,0 0.00787,0.01253 0.021384,0.02783 z m 0.4731985,0.297481 c 0.017605,0.0041 0.040661,0.0075 0.051225,0.0074 0.013212,-6.6e-5 0.00821,-0.0024 -0.016008,-0.0076 -0.046078,-0.0098 -0.076862,-0.0097 -0.035218,1.34e-4 z"
     id="path56" />
  <path
     style="fill:#a6e3a1;fill-opacity:1;stroke:#a6e3a1;stroke-width:0.00615328;stroke-opacity:1"
     d="m 11.998317,15.32969 c -8.28e-4,0.431003 -0.0025,0.757306 -0.0035,0.725116 -0.0011,-0.03219 -0.0047,-0.06106 -0.0082,-0.06416 -0.0039,-0.0036 -0.0062,0.0016 -0.0063,0.01459 -2e-5,0.01112 -0.0012,0.04131 -0.0025,0.06709 -0.002,0.03816 -0.0015,0.04088 0.0021,0.01465 l 0.0046,-0.03223 0.0011,0.0359 c 7.79e-4,0.02571 -0.0016,0.03797 -0.0086,0.0432 -0.006,0.0045 -0.0095,0.01651 -0.0091,0.03148 l 6.49e-4,0.02419 0.006,-0.02309 c 0.0091,-0.03491 0.01384,-0.03362 0.0096,0.0025 -0.0021,0.01772 -0.0051,0.05369 -0.0071,0.07993 -0.0017,0.02623 -0.0051,0.05238 -0.0076,0.05809 -0.003,0.0071 -0.002,0.009 0.0032,0.0062 0.0042,-0.0023 0.0081,-0.01001 0.0088,-0.01708 0.0061,-0.06172 0.0098,0.535485 0.0107,1.693601 l 0.0011,1.378335 H 9.9995868 8.0058971 v -1.099639 -1.099624 l 0.026213,0.03182 c 0.014417,0.0175 0.039862,0.05501 0.056546,0.08335 0.016685,0.02835 0.031267,0.04747 0.032418,0.04248 0.00256,-0.01097 0.00845,-0.01147 0.020679,-0.0017 0.010765,0.0086 0.00397,4.94e-4 -0.044592,-0.0533 -0.018479,-0.02045 -0.045842,-0.05869 -0.060814,-0.08496 l -0.027223,-0.0478 -0.00323,-1.296307 -0.00323,-1.296309 h 1.9985289 1.998529 z m -0.03612,0.900823 3.1e-4,0.01758 0.0049,-0.01758 c 0.0027,-0.0097 0.005,-0.02285 0.0051,-0.02929 l 3.1e-4,-0.01172 -0.0055,0.01172 c -0.0031,0.0064 -0.0054,0.01963 -0.0051,0.02929 z m -0.0063,0.06152 c 1.08e-4,0.01316 6.23e-4,0.01286 0.005,-0.0029 0.0027,-0.0097 0.0049,-0.02285 0.005,-0.02929 9.4e-5,-0.0092 -9.92e-4,-0.0085 -0.005,0.0029 -0.0027,0.0081 -0.005,0.02124 -0.005,0.0293 z m -0.0046,0.07908 c 0.0025,0.01838 0.0017,0.02642 -0.0019,0.02154 -0.0038,-0.0052 -0.0075,0.0073 -0.01037,0.03729 -0.0024,0.02478 -0.0033,0.04615 -0.0017,0.04749 0.0027,0.0025 0.02783,-0.101513 0.03343,-0.138533 l 0.0031,-0.0205 -0.0096,0.02344 -0.0096,0.02344 0.0031,-0.02637 c 0.0025,-0.02205 0.002,-0.02397 -0.0035,-0.01173 -0.0036,0.008 -0.0048,0.02782 -0.0026,0.04394 z m -0.04467,0.219723 c -0.003,0.01393 -0.0024,0.01769 0.0017,0.01172 0.0034,-0.0048 0.008,-0.01933 0.01,-0.03223 0.0047,-0.02824 -0.0051,-0.01111 -0.01189,0.0205 z"
     id="path58" />
  <path
     style="fill:#ffffff;fill-opacity:1;stroke:#ffffff;stroke-width:0.00390625;stroke-opacity:1"
     d=""
     id="path60"
     transform="scale(0.75)" />
  <path
     style="fill:#ffffff;fill-opacity:1;stroke:#ffffff;stroke-width:0.00552427;stroke-opacity:1"
     d=""
     id="path66"
     transform="scale(0.75)" />
  <path
     style="fill:#ffffff;fill-opacity:1;stroke:#ffffff;stroke-width:0.00552427;stroke-opacity:1"
     d=""
     id="path67"
     transform="scale(0.75)" />
  <path
     style="fill:#ffffff;fill-opacity:1;stroke:#ffffff;stroke-width:0.00552427;stroke-opacity:1"
     d=""
     id="path68"
     transform="scale(0.75)" />
  <path
     style="fill:#ffffff;fill-opacity:1;stroke:#ffffff;stroke-width:0.00552427;stroke-opacity:1"
     d=""
     id="path70"
     transform="scale(0.75)" />
  <path
     style="fill:#ffffff;fill-opacity:1;stroke:#ffffff;stroke-width:0.00552427;stroke-opacity:1"
     d=""
     id="path71"
     transform="scale(0.75)" />
  <path
     style="fill:#a6e3a1;fill-opacity:0.996078;stroke:#a6e3a1;stroke-width:0.00828638;stroke-opacity:1"
     d="m 36.397496,11.197737 c 0.09831,0.135204 0.259135,0.296763 0.402135,0.403963 0.253868,0.190312 0.540181,0.314235 0.86479,0.374301 0.114543,0.0212 0.430731,0.0303 0.556647,0.01604 0.363834,-0.04123 0.696649,-0.173955 0.989907,-0.394779 0.151347,-0.113964 0.303304,-0.266704 0.401325,-0.403395 0.01552,-0.02164 0.02968,-0.03788 0.03146,-0.0361 0.0055,0.0055 -0.103681,0.217733 -0.152638,0.296876 -0.145385,0.235034 -0.32244,0.40161 -0.499413,0.469858 -0.03721,0.01435 -0.103777,0.03138 -0.147928,0.03785 -0.04415,0.0064 -0.420635,0.03848 -0.83663,0.07114 l -0.756354,0.05939 -0.07608,-0.01392 c -0.277335,-0.05074 -0.51313,-0.273358 -0.71389,-0.673996 -0.05723,-0.114196 -0.12304,-0.266255 -0.11923,-0.275464 0.0013,-0.003 0.02641,0.02768 0.0559,0.06824 z"
     id="path102" />
  <path
     style="fill:#a6e3a1;fill-opacity:0.996078;stroke:#a6e3a1;stroke-width:0.00828638;stroke-opacity:1"
     d="m 36.073089,10.302107 c 0.0094,0.02901 0.03616,0.123592 0.05948,0.210185 0.02332,0.08659 0.0629,0.224041 0.08796,0.305441 0.02506,0.0814 0.04368,0.14988 0.04138,0.152178 -0.0063,0.0063 -0.09817,-0.189326 -0.133183,-0.283604 -0.04645,-0.125084 -0.08732,-0.29328 -0.08717,-0.358744 1.84e-4,-0.08071 0.01086,-0.08933 0.03154,-0.02545 z"
     id="path103" />
  <path
     style="fill:#ffffff;fill-opacity:1;stroke:#ffffff;stroke-width:0.0110485;stroke-opacity:1"
     d=""
     id="path104"
     transform="scale(0.75)" />
  <path
     style="fill:#ffffff;fill-opacity:1;stroke:#ffffff;stroke-width:0.0110485;stroke-opacity:1"
     d=""
     id="path105"
     transform="scale(0.75)" />
  <path
     style="fill:#a6e3a1;fill-opacity:0.996078;stroke:#a6e3a1;stroke-width:0.00828638;stroke-opacity:1"
     d="m 39.980174,10.232371 c 0.01343,0.02173 -0.04272,0.280492 -0.09093,0.419004 -0.04205,0.120816 -0.159533,0.370982 -0.160178,0.34109 -1.03e-4,-0.0048 0.01469,-0.04954 0.03286,-0.09944 0.03887,-0.106693 0.09967,-0.301245 0.153943,-0.492602 0.04036,-0.142293 0.0556,-0.182136 0.06431,-0.168055 z"
     id="path106" />
  <path
     style="fill:#a6e3a1;fill-opacity:0.996078;stroke:#a6e3a1;stroke-width:0.00292969;stroke-opacity:1"
     d="m 39.669358,11.112407 c 0,8.25e-4 -0.0042,0.01128 -0.0093,0.02315 -0.0081,0.0188 -0.0099,0.02118 -0.01433,0.01844 -0.0046,-0.0029 -0.0038,-0.0051 0.0082,-0.02315 0.01248,-0.01877 0.01537,-0.02224 0.01537,-0.01844 z"
     id="path107" />
  <path
     style="fill:#a6e3a1;fill-opacity:0.996078;stroke:#a6e3a1;stroke-width:0.00292969;stroke-opacity:1"
     d="m 39.724943,10.99292 c 4.6e-5,0.0038 0.0019,0.0066 0.0043,0.0066 0.0029,0 -6.03e-4,0.0081 -0.01085,0.0253 -0.0083,0.01391 -0.0155,0.02413 -0.01597,0.0227 -4.68e-4,-0.0014 0.0044,-0.01577 0.01078,-0.03188 0.0064,-0.01611 0.01166,-0.02633 0.01171,-0.0227 z"
     id="path108" />
  <path
     style="fill:#a6e3a1;fill-opacity:0.996078;stroke:#a6e3a1;stroke-width:0.75;stroke-opacity:1"
     id="path109"
     d="m 37.46013,11.011685 c -0.09066,0.112888 -0.156403,0.242042 -0.221672,0.370501 -0.05134,0.112414 -0.09843,0.227553 -0.127559,0.34801 -0.01715,0.07093 -0.02845,0.137149 -0.02443,0.210382 0.0019,0.03443 0.01012,0.06822 0.01518,0.102326 0.01154,0.03325 0.02042,0.06755 0.03463,0.09976 0.05953,0.135025 0.163543,0.252644 0.278026,0.344039 0.02596,0.02072 0.05423,0.03836 0.08135,0.05754 0.02818,0.01402 0.05516,0.03076 0.08453,0.04208 0.08969,0.03458 0.187302,0.04028 0.281905,0.02877 0.08701,-0.01059 0.138572,-0.02819 0.223678,-0.05143 0.22295,-0.06881 0.444393,-0.143756 0.657905,-0.238175 0.07822,-0.0386 0.153666,-0.08264 0.224917,-0.132991 0.04297,-0.03036 0.09325,-0.06727 0.127962,-0.107581 0.01787,-0.02075 0.03131,-0.04494 0.04697,-0.06742 0.0098,-0.0275 0.02371,-0.05388 0.02952,-0.0825 0.03872,-0.190692 -0.07075,-0.390531 -0.172526,-0.542157 -0.04046,-0.06029 -0.08737,-0.115988 -0.131056,-0.173982 -0.05064,-0.05432 -0.09896,-0.110895 -0.151928,-0.162951 -0.157854,-0.155145 -0.344952,-0.298059 -0.537154,-0.408625 -0.02744,-0.01579 -0.05595,-0.02965 -0.08393,-0.04447 -0.04313,-0.01601 -0.09602,-0.04991 -0.145572,-0.03663 -0.0317,0.0085 -0.06684,0.0478 -0.08977,0.06938 -0.04426,0.04234 -0.09308,0.08046 -0.146934,0.109925 -0.03523,0.01928 -0.05298,0.0255 -0.09007,0.04095 -0.03966,0.01612 -0.08104,0.0265 -0.122598,0.03617 0,0 0.0026,3.5e-4 0.0026,3.5e-4 v 0 c 0.04154,-0.0097 0.0829,-0.02009 0.122538,-0.03622 0.0371,-0.01546 0.05485,-0.02169 0.09009,-0.04099 0.05387,-0.02949 0.10269,-0.06764 0.146973,-0.109976 0.02379,-0.02236 0.0572,-0.05974 0.0898,-0.06919 0.04704,-0.01364 0.09995,0.02258 0.140684,0.03647 0.02803,0.01481 0.05659,0.02866 0.08409,0.04444 0.192449,0.110452 0.379761,0.253309 0.537733,0.408536 0.05297,0.05204 0.101265,0.108625 0.151898,0.162937 0.04364,0.05799 0.09052,0.113681 0.130935,0.173969 0.101618,0.1516 0.210729,0.351462 0.171903,0.541986 -0.0059,0.0286 -0.0197,0.05496 -0.02955,0.08244 -0.01565,0.02246 -0.0291,0.04663 -0.04697,0.06737 -0.03472,0.04032 -0.08497,0.07718 -0.127942,0.107543 -0.07123,0.05034 -0.146659,0.09437 -0.224859,0.132957 -0.213456,0.09443 -0.434823,0.169458 -0.657761,0.238159 -0.08707,0.02375 -0.134972,0.04033 -0.22379,0.05137 -0.09311,0.01156 -0.189124,0.0053 -0.277378,-0.02868 -0.02938,-0.01131 -0.05637,-0.02803 -0.08456,-0.04205 -0.02713,-0.01917 -0.05542,-0.03679 -0.0814,-0.05751 -0.114507,-0.09133 -0.218491,-0.208921 -0.278004,-0.343928 -0.01419,-0.0322 -0.02308,-0.06648 -0.03461,-0.09972 -0.005,-0.03409 -0.01328,-0.06787 -0.01518,-0.102284 -0.004,-0.07322 0.0072,-0.139405 0.02435,-0.210328 0.02908,-0.120455 0.07612,-0.2356 0.127529,-0.347972 0.06539,-0.128509 0.131273,-0.257725 0.22234,-0.370438 z" />
  <path
     style="fill:#a6e3a1;fill-opacity:0.996078;stroke:#a6e3a1;stroke-width:0.75;stroke-opacity:1"
     id="path110"
     d="m 38.567283,11.591144 c 0.0064,0.100204 0.0128,0.201885 -0.0035,0.301581 -0.0044,0.02644 -0.0121,0.05219 -0.01816,0.07829 -0.01163,0.02185 -0.01911,0.04648 -0.03488,0.06555 -0.06517,0.07883 -0.182343,0.09975 -0.276154,0.116379 -0.09348,0.01657 -0.170585,0.02135 -0.264807,0.02968 -0.112356,0.0015 -0.254514,0.02184 -0.354502,-0.04566 -0.04561,-0.03079 -0.04717,-0.05006 -0.07035,-0.09759 -0.0043,-0.0229 -0.01055,-0.0455 -0.01283,-0.06869 -0.0079,-0.08019 0.0046,-0.188731 0.03978,-0.262261 0.0074,-0.01546 0.01804,-0.02914 0.02706,-0.0437 0.01393,-0.01166 0.02608,-0.02584 0.04178,-0.03496 0.05232,-0.03037 0.110349,-0.03731 0.16937,-0.04541 0.04746,-0.0065 0.09519,-0.01103 0.142924,-0.01507 0.129142,-0.01094 0.220006,-0.01357 0.350425,-0.01935 0.22821,-0.0071 0.117605,-0.0041 0.33181,-0.009 0,0 -0.002,-3e-4 -0.002,-3e-4 v 0 c -0.214075,0.0049 -0.103521,0.002 -0.33166,0.009 -0.130455,0.0058 -0.221454,0.0084 -0.350642,0.01933 -0.0478,0.004 -0.0956,0.0085 -0.143134,0.01505 -0.05917,0.0081 -0.117257,0.01502 -0.169682,0.0455 -0.01572,0.0091 -0.02787,0.02336 -0.04181,0.03504 -0.009,0.01459 -0.01964,0.02828 -0.02703,0.04375 -0.03514,0.07357 -0.04754,0.182194 -0.03971,0.262394 0.0023,0.0232 0.0085,0.04583 0.01279,0.06874 0.02318,0.04762 0.02471,0.0669 0.0704,0.09775 0.101183,0.06833 0.245314,0.04701 0.358996,0.04569 0.09415,-0.0083 0.171442,-0.01314 0.264855,-0.0297 0.09393,-0.01665 0.211246,-0.03757 0.276451,-0.116548 0.01577,-0.0191 0.02323,-0.04375 0.03485,-0.06562 0.0061,-0.02611 0.0138,-0.05187 0.01813,-0.07832 0.01632,-0.09971 0.0101,-0.201393 0.0039,-0.301631 z" />
  <path
     style="fill:#a6e3a1;fill-opacity:0.996078;stroke:#a6e3a1;stroke-width:0.75;stroke-opacity:1"
     id="path111"
     d="m 36.624053,10.935156 c -0.04442,0.04807 -0.09408,0.09082 -0.140619,0.136771 -0.05114,0.05443 -0.08681,0.120259 -0.10168,0.193687 -0.0032,0.01587 -0.0046,0.03205 -0.0069,0.04807 -0.009,0.1527 0.05633,0.22889 0.150084,0.34031 0.0577,0.05779 0.111185,0.134378 0.186788,0.17108 0.009,0.0044 0.0188,0.0069 0.02819,0.01031 0.01205,-0.0012 0.02471,3.51e-4 0.03616,-0.0036 0.04135,-0.01439 0.08608,-0.05783 0.112607,-0.08591 0.05938,-0.06285 0.124949,-0.148766 0.163647,-0.225204 0.02546,-0.05028 0.04178,-0.104688 0.06266,-0.157032 0.012,-0.05682 0.02801,-0.112944 0.03601,-0.170468 0.02148,-0.154562 0.01379,-0.373314 -0.04171,-0.52228 -0.0089,-0.02384 -0.02246,-0.04566 -0.0337,-0.06849 -0.04393,-0.06196 -0.0863,-0.08956 -0.155391,-0.115104 0,0 -0.0026,3.18e-4 -0.0026,3.18e-4 v 0 c 0.06914,0.02545 0.111562,0.05299 0.155601,0.114896 0.01127,0.02282 0.02489,0.04462 0.0338,0.06844 0.05575,0.148944 0.06364,0.367544 0.04216,0.522178 -0.008,0.05752 -0.02402,0.113623 -0.03603,0.170435 -0.02092,0.05233 -0.03726,0.10673 -0.06276,0.156991 -0.0388,0.07649 -0.104435,0.162322 -0.163983,0.225122 -0.02948,0.0311 -0.06989,0.06975 -0.112917,0.08572 -0.0097,0.0036 -0.0206,0.0025 -0.0309,0.0037 -0.0094,-0.0035 -0.0192,-0.0059 -0.02821,-0.01025 -0.07569,-0.0366 -0.129296,-0.113193 -0.187028,-0.170976 -0.0937,-0.111328 -0.158942,-0.187532 -0.149914,-0.340105 0.0023,-0.01601 0.0038,-0.03219 0.0069,-0.04804 0.01489,-0.07339 0.05056,-0.139164 0.101703,-0.193547 0.04658,-0.04595 0.09622,-0.08877 0.140798,-0.136728 z" />
  <path
     style="fill:#a6e3a1;fill-opacity:0.996078;stroke:#a6e3a1;stroke-width:0.00292969;stroke-opacity:1"
     d="m 36.027061,10.31836 c 0.0051,0.03364 0.0065,0.05529 0.0062,0.09228 l -4.16e-4,0.04834 -0.0069,-0.0791 c -0.0086,-0.09827 -0.0081,-0.122897 0.0011,-0.06152 z"
     id="path112" />
  <path
     style="fill:#ffffff;fill-opacity:1;stroke:#ffffff;stroke-width:0.00390625;stroke-opacity:1"
     d=""
     id="path113"
     transform="scale(0.75)" />
  <path
     style="fill:#ffffff;fill-opacity:1;stroke:#ffffff;stroke-width:0.00390625;stroke-opacity:1"
     d=""
     id="path114"
     transform="scale(0.75)" />
  <path
     style="fill:#a6e3a1;fill-opacity:0.996078;stroke:#a6e3a1;stroke-width:0.00292969;stroke-opacity:1"
     d="m 36.057824,10.249125 c 0.0059,0.01 0.0067,0.01487 0.0016,0.0098 -0.002,-0.0019 -0.0059,-0.0035 -0.0088,-0.0035 -0.0062,0 -0.0067,-0.0028 -0.0016,-0.0098 0.0034,-0.0046 0.0041,-0.0043 0.0088,0.0035 z"
     id="path115" />
  <path
     style="fill:#a6e3a1;fill-opacity:0.996078;stroke:#a6e3a1;stroke-width:0.75;stroke-opacity:1"
     id="path119"
     d="m 39.57043,10.111434 c 1.6e-5,0.0088 1.05e-4,0.05525 8.3e-5,0.05593 -0.0016,0.05165 -0.0061,0.101096 -0.0096,0.152875 -0.0054,0.08 -0.01034,0.160018 -0.01564,0.240019 -0.01184,0.237877 -0.03247,0.475067 -0.0559,0.712029 -0.01283,0.135877 -0.02572,0.271734 -0.03382,0.407987 -0.0016,0.0114 -0.002,0.0988 -0.02818,0.09401 -0.01917,-0.0035 -0.06751,-0.05314 -0.06968,-0.05511 -0.118704,-0.126138 -0.234929,-0.255776 -0.335367,-0.397217 -0.01606,-0.02261 -0.0308,-0.04613 -0.04619,-0.06919 -0.03883,-0.06361 -0.07468,-0.131991 -0.07456,-0.208486 5.1e-5,-0.0351 0.0067,-0.06216 0.01293,-0.09649 0.02463,-0.102515 0.05006,-0.204849 0.07015,-0.308376 0.0098,-0.05584 0.01627,-0.112189 0.02164,-0.168611 0,0 -0.0026,-2.5e-5 -0.0026,-2.5e-5 v 0 c -0.0053,0.05642 -0.01167,0.112753 -0.02153,0.168587 -0.02009,0.103529 -0.0455,0.20587 -0.07016,0.308378 -0.0063,0.0343 -0.01291,0.06149 -0.01295,0.09656 -9.9e-5,0.07657 0.03587,0.14498 0.07478,0.208603 0.01543,0.02306 0.03019,0.04658 0.04628,0.0692 0.100516,0.141345 0.216702,0.270954 0.335163,0.397277 0.01573,0.01432 0.04687,0.05085 0.07489,0.05521 0.02632,0.0041 0.02638,-0.08248 0.02801,-0.09429 0.008,-0.136254 0.02078,-0.272105 0.03353,-0.40798 0.02328,-0.236975 0.04379,-0.474169 0.05572,-0.712037 0.0053,-0.08 0.01038,-0.160024 0.01586,-0.240016 0.0035,-0.05098 0.0082,-0.101812 0.0099,-0.152892 6.45e-4,-0.01863 -2.97e-4,-0.0373 8.4e-5,-0.05593 z" />
  <path
     style="fill:#a6e3a1;fill-opacity:0.996078;stroke:#a6e3a1;stroke-width:0.75;stroke-opacity:1"
     id="path120"
     d="m 39.348153,10.130659 c 2.1e-5,0.01477 2.97e-4,0.02606 -0.0015,0.04165 -0.0136,0.117538 -0.04497,0.232928 -0.07208,0.34777 -0.0097,0.04214 -0.01942,0.08429 -0.02913,0.126431 0,0 0.0021,4.8e-5 0.0021,4.8e-5 v 0 c 0.0097,-0.04214 0.01943,-0.08429 0.02915,-0.12643 0.02724,-0.114864 0.05872,-0.230255 0.07264,-0.347804 0.0019,-0.01561 0.0016,-0.02688 0.0016,-0.04167 z" />
  <path
     style="fill:#a6e3a1;fill-opacity:0.996078;stroke:#a6e3a1;stroke-width:0.75;stroke-opacity:1"
     id="path121"
     d="m 39.488975,10.081059 c -0.02396,0.106805 -0.05339,0.212244 -0.08174,0.317933 -0.004,0.01536 -0.0079,0.03072 -0.01188,0.04609 0,0 0.0025,6.5e-5 0.0025,6.5e-5 v 0 c 0.004,-0.01536 0.0079,-0.03072 0.01183,-0.04609 0.02829,-0.105724 0.05769,-0.211184 0.08195,-0.317936 z" />
  <path
     style="fill:#ffffff;fill-opacity:0.992157;stroke:#ffffff;stroke-width:0.00390625;stroke-opacity:1"
     d=""
     id="path122"
     transform="scale(0.75)" />
  <path
     style="fill:#a6e3a1;fill-opacity:0.996078;stroke:#a6e3a1;stroke-width:0.00292969;stroke-opacity:1"
     d="m 39.978031,10.219318 c 0.0032,0.0032 0.0021,0.0058 -0.0025,0.0058 -0.0024,0 -0.0044,-10e-4 -0.0044,-0.0023 0,-0.0033 0.0047,-0.0057 0.0069,-0.0035 z"
     id="path123" />
  <path
     style="fill:#ffffff;fill-opacity:0.992157;stroke:#ffffff;stroke-width:0.00390625;stroke-opacity:1"
     d=""
     id="path124"
     transform="scale(0.75)" />
  <path
     style="fill:#ffffff;fill-opacity:0.992157;stroke:#ffffff;stroke-width:0.00390625;stroke-opacity:1"
     d=""
     id="path125"
     transform="scale(0.75)" />
  <path
     style="fill:#a6e3a1;fill-opacity:0.996078;stroke:#a6e3a1;stroke-width:0.00292969;stroke-opacity:1"
     d="m 39.950037,10.458985 c -6e-5,0.0048 -7.17e-4,0.0064 -0.0014,0.0036 -7.44e-4,-0.0029 -6.94e-4,-0.0068 1.08e-4,-0.0088 8.25e-4,-0.0019 0.0014,3.49e-4 0.0013,0.0052 z"
     id="path126" />
  <path
     style="fill:#ffffff;fill-opacity:0.992157;stroke:#ffffff;stroke-width:0.00390625;stroke-opacity:1"
     d=""
     id="path127"
     transform="scale(0.75)" />
  <path
     style="fill:#ffffff;fill-opacity:0.992157;stroke:#ffffff;stroke-width:0.00390625;stroke-opacity:1"
     d=""
     id="path128"
     transform="scale(0.75)" />
  <path
     style="fill:#a6e3a1;fill-opacity:0.996078;stroke:#a6e3a1;stroke-width:0.00292969;stroke-opacity:1"
     d="m 36.039244,10.362549 c -1.41e-4,0.0034 -8.25e-4,0.0041 -0.0018,0.0018 -8.25e-4,-0.0021 -7.42e-4,-0.0046 2.31e-4,-0.0056 9.75e-4,-9.75e-4 0.0016,7.5e-4 0.0016,0.0038 z"
     id="path129" />
  <path
     style="fill:#ffffff;fill-opacity:0.992157;stroke:#ffffff;stroke-width:0.00390625;stroke-opacity:1"
     d=""
     id="path130"
     transform="scale(0.75)" />
  <path
     style="fill:#a6e3a1;fill-opacity:0.996078;stroke:#a6e3a1;stroke-width:0.00292969;stroke-opacity:1"
     d="m 36.018228,10.265625 c -3.2e-5,0.0064 -6.32e-4,0.0087 -0.0014,0.0051 -7.01e-4,-0.0037 -6.74e-4,-0.0089 5.9e-5,-0.01172 7.33e-4,-0.0028 0.0013,1.81e-4 0.0013,0.0066 z"
     id="path131" />
</svg>
