<?xml version="1.0" encoding="UTF-8" standalone="no"?>
<!-- Generator: Gravit.io -->

<svg
   style="isolation:isolate"
   viewBox="0 0 48 48"
   width="48pt"
   height="48pt"
   version="1.1"
   id="svg2"
   sodipodi:docname="virtualbox.svg"
   inkscape:version="1.3.2 (091e20ef0f, 2023-11-25, custom)"
   xmlns:inkscape="http://www.inkscape.org/namespaces/inkscape"
   xmlns:sodipodi="http://sodipodi.sourceforge.net/DTD/sodipodi-0.dtd"
   xmlns="http://www.w3.org/2000/svg"
   xmlns:svg="http://www.w3.org/2000/svg">
  <defs
     id="defs2" />
  <sodipodi:namedview
     id="namedview2"
     pagecolor="#ffffff"
     bordercolor="#000000"
     borderopacity="0.25"
     inkscape:showpageshadow="2"
     inkscape:pageopacity="0.0"
     inkscape:pagecheckerboard="0"
     inkscape:deskcolor="#d1d1d1"
     inkscape:document-units="pt"
     inkscape:zoom="6.21875"
     inkscape:cx="32.080402"
     inkscape:cy="31.919598"
     inkscape:window-width="1366"
     inkscape:window-height="713"
     inkscape:window-x="0"
     inkscape:window-y="19"
     inkscape:window-maximized="0"
     inkscape:current-layer="svg2" />
  <linearGradient
     id="_lgradient_3"
     x1="-0.000038208333333289435"
     y1="0.5000000833333331"
     x2="0.9999618333333335"
     y2="0.5000000833333331"
     gradientTransform="matrix(44,0,0,44,2,2)"
     gradientUnits="userSpaceOnUse">
    <stop
       offset="0"
       stop-opacity="1"
       style="stop-color:#89b4fa;stop-opacity:1;"
       id="stop1" />
    <stop
       offset="0.98695654"
       stop-opacity="1"
       style="stop-color:#89b4fa;stop-opacity:1;"
       id="stop2" />
  </linearGradient>
  <path
     d="m 6,11.85 v 0 c 0,1.104 0.3093226,9.372196 -0.4153556,10.205057 L 2.5643777,25.5262 C 1.8396993,26.35906 2,12.954 2,11.85 v 0 V 9 C 2,5.137 5.137,2 9,2 h 30 c 3.863,0 7,3.137 7,7 v 16.41 c 0,2.76 -2.24,5 -5,5 H 35.6 L 30.89,20.29 26.2,29.29 22.05,19.25 14.5,35.98 10.48,22.61 H 8 c -1.104,0 -2,0.896 -2,2 V 37 c 0,2.76 2.24,5 5,5 h 26 c 2.76,0 5,-2.24 5,-5 v -1.83 0 c 0,-1.104 -0.298683,-6.520439 0.311657,-7.440386 l 3.38023,-5.094921 C 46.302227,21.714746 46,34.066 46,35.17 v 0 3.83 c 0,3.863 -3.137,7 -7,7 H 9 C 5.137,46 2,42.863 2,39 V 23.61 c 0,-2.76 2.24,-5 5,-5 h 6.52 l 1.98,7.09 6.45,-15.43 4.85,9.46 4.31,-10.5 7.29,17.18 H 40 c 1.104,0 2,-0.896 2,-2 V 11 C 42,8.24 39.76,6 37,6 H 11 C 8.24,6 6,8.24 6,11 Z"
     fill="url(#_lgradient_3)"
     id="path2"
     sodipodi:nodetypes="csssscssssssccccccsssssscsssscssssssccccccssssssc" />
</svg>
