<?xml version="1.0" encoding="UTF-8" standalone="no"?>
<!-- Generator: Gravit.io -->

<svg
   style="isolation:isolate"
   viewBox="0 0 48 48"
   width="48pt"
   height="48pt"
   version="1.1"
   id="svg2"
   sodipodi:docname="folder-download.svg"
   inkscape:version="1.4.2 (ebf0e940d0, 2025-05-08)"
   xml:space="preserve"
   xmlns:inkscape="http://www.inkscape.org/namespaces/inkscape"
   xmlns:sodipodi="http://sodipodi.sourceforge.net/DTD/sodipodi-0.dtd"
   xmlns:xlink="http://www.w3.org/1999/xlink"
   xmlns="http://www.w3.org/2000/svg"
   xmlns:svg="http://www.w3.org/2000/svg"><defs
     id="defs2"><inkscape:path-effect
       effect="powerstroke"
       message=""
       id="path-effect6"
       is_visible="true"
       lpeversion="1.3"
       scale_width="1.2"
       interpolator_type="CentripetalCatmullRom"
       interpolator_beta="0.2"
       start_linecap_type="zerowidth"
       end_linecap_type="zerowidth"
       offset_points="4,0.5"
       linejoin_type="round"
       miter_limit="4"
       not_jump="false"
       sort_points="true" /><inkscape:path-effect
       effect="powerstroke"
       message=""
       id="path-effect4"
       is_visible="true"
       lpeversion="1.3"
       scale_width="1.2"
       interpolator_type="CentripetalCatmullRom"
       interpolator_beta="0.2"
       start_linecap_type="zerowidth"
       end_linecap_type="zerowidth"
       offset_points="16,0.5 | 41.5,0.5"
       linejoin_type="round"
       miter_limit="4"
       not_jump="false"
       sort_points="true" /><linearGradient
       id="linearGradient4"
       x1="0"
       y1="0.5"
       x2="1"
       y2="0.5"
       gradientTransform="matrix(46.1,0,0,37.1,0.95,9.95)"
       gradientUnits="userSpaceOnUse"><stop
         offset="0"
         stop-opacity="1"
         style="stop-color:#7287fd;stop-opacity:1;"
         id="stop3" /><stop
         offset="98.26086956521739%"
         stop-opacity="1"
         style="stop-color:#7287fd"
         id="stop4" /></linearGradient><inkscape:path-effect
       effect="fill_between_many"
       method="bsplinespiro"
       autoreverse="false"
       close="false"
       join="false"
       linkedpaths="#path2,0,1"
       id="path-effect5" /><inkscape:path-effect
       effect="fill_between_many"
       method="bsplinespiro"
       autoreverse="false"
       close="false"
       join="false"
       linkedpaths="#path2-5,0,1"
       id="path-effect7" /><linearGradient
       id="linearGradient1"
       x1="0"
       y1="0.5"
       x2="1"
       y2="0.5"
       gradientTransform="matrix(46.1,0,0,37.1,0.95,9.95)"
       gradientUnits="userSpaceOnUse"><stop
         offset="0"
         stop-opacity="1"
         style="stop-color:#7287fd;stop-opacity:1;"
         id="stop1-4" /><stop
         offset="98.69565217391305%"
         stop-opacity="1"
         style="stop-color:#7287fd"
         id="stop2-9" /></linearGradient><linearGradient
       inkscape:collect="always"
       xlink:href="#_lgradient_5"
       id="linearGradient2"
       gradientUnits="userSpaceOnUse"
       gradientTransform="matrix(-46.1,0,0,37.1,65.627641,9.939879)"
       x1="0"
       y1="0.5"
       x2="1"
       y2="0.5" /></defs><sodipodi:namedview
     id="namedview2"
     pagecolor="#7287fd"
     bordercolor="#7287fd"
     borderopacity="1"
     inkscape:showpageshadow="0"
     inkscape:pageopacity="0"
     inkscape:pagecheckerboard="0"
     inkscape:deskcolor="#7287fd"
     inkscape:document-units="pt"
     inkscape:zoom="5.4579805"
     inkscape:cx="15.756744"
     inkscape:cy="35.544282"
     inkscape:window-width="1366"
     inkscape:window-height="713"
     inkscape:window-x="0"
     inkscape:window-y="18"
     inkscape:window-maximized="0"
     inkscape:current-layer="svg2" /><linearGradient
     id="_lgradient_5"
     x1="0"
     y1="0.5"
     x2="1"
     y2="0.5"
     gradientTransform="matrix(46.1,0,0,37.1,0.95,9.95)"
     gradientUnits="userSpaceOnUse"><stop
       offset="0"
       stop-opacity="1"
       style="stop-color:#7287fd;stop-opacity:1;"
       id="stop1" /><stop
       offset="98.69565217391305%"
       stop-opacity="1"
       style="stop-color:#7287fd"
       id="stop2" /></linearGradient><path
     d="m 34.155,31.088 v 0 c 0,-0.48 0.39,-0.87 0.869,-0.87 v 0 c 0.48,0 0.87,0.39 0.87,0.87 v 0 3.591 l 2.817,-1.877 c 0.999,-0.666 2.234,-0.329 2.756,0.751 l 0.298,0.617 c 0.523,1.08 0.143,2.507 -0.847,3.185 l -6.197,4.239 c -0.793,0.541 -2.079,0.541 -2.871,0 L 25.653,37.355 C 24.662,36.677 24.282,35.25 24.805,34.17 l 0.298,-0.617 c 0.523,-1.08 1.757,-1.417 2.756,-0.751 l 2.817,1.877 v -8.809 0 c 0,-0.48 0.39,-0.87 0.87,-0.87 v 0 c 0.48,0 0.87,0.39 0.87,0.87 v 0 11.192 c 0,0.48 -0.325,0.653 -0.724,0.387 L 27.33,34.54 c -0.399,-0.266 -0.817,-0.134 -0.932,0.296 v 0 c -0.116,0.429 0.112,0.998 0.509,1.269 l 5.661,3.875 c 0.396,0.271 1.039,0.271 1.435,0 l 5.661,-3.875 c 0.396,-0.271 0.624,-0.84 0.509,-1.269 v 0 C 40.058,34.406 39.64,34.274 39.241,34.54 l -4.363,2.909 c -0.399,0.266 -0.723,0.093 -0.723,-0.387 z"
     fill-rule="evenodd"
     fill="url(#_lgradient_5)"
     id="path2"
     style="display:inline"
     sodipodi:nodetypes="cssssccccccccccccccsssscsccssccccssccsc" /><g
     style="display:inline;isolation:isolate;fill:#7287fd;fill-opacity:1"
     id="g8"
     transform="translate(6.9638889e-5,0.350094)"><path
       id="path5"
       style="fill:#7287fd;fill-opacity:1"
       d="m 3.9506836,9.3500977 c -0.4980899,0 -0.9725069,0.1010156 -1.4018555,0.2827148 C 2.115276,9.8162911 1.728156,10.081414 1.4047852,10.404785 1.0771477,10.732423 0.81397099,11.120757 0.6328125,11.548828 0.44863134,11.984042 0.35009766,12.458859 0.35009766,12.950684 v 9.651855 c 0,0.0111 -3.1261e-4,0.02214 0,0.03369 V 25.000488 33 34.652344 c 0,0.01304 -3.0273e-4,0.02512 0,0.03809 v 9.358886 c 0,0.494243 0.099488,0.968898 0.28271484,1.401856 0.18189162,0.429803 0.4456236,0.817694 0.7719727,1.144043 0.324553,0.324552 0.7118575,0.589073 1.1440429,0.771973 0.4304411,0.18216 0.904925,0.282714 1.4018555,0.282714 H 44.049316 c 0.495483,0 0.970022,-0.09996 1.401856,-0.282714 0.430847,-0.182334 0.818479,-0.446409 1.144043,-0.771973 0.325321,-0.325321 0.589503,-0.712875 0.771973,-1.144043 0.182606,-0.431492 0.282714,-0.90605 0.282714,-1.401856 V 17.950195 c 0,-0.496544 -0.100399,-0.971051 -0.282714,-1.401855 -0.182749,-0.431829 -0.447151,-0.819221 -0.771973,-1.144043 -0.32607,-0.32607 -0.713869,-0.588459 -1.144043,-0.770508 -0.432554,-0.183056 -0.907181,-0.28418 -1.401856,-0.28418 H 24.650391 c -0.184896,0 -0.377459,0.02319 -0.563965,0.05859 -0.189455,0.03596 -0.381559,0.08615 -0.566895,0.147949 -0.187187,0.06242 -0.371967,0.137095 -0.543457,0.221192 -0.172249,0.08447 -0.339743,0.183196 -0.486328,0.292969 l -6.399902,4.800292 c -0.07402,0.05543 -0.173935,0.115225 -0.294434,0.174317 -0.121471,0.05957 -0.255802,0.11357 -0.394043,0.159668 -0.14093,0.04699 -0.281389,0.08368 -0.411621,0.108398 -0.134199,0.02548 -0.249157,0.03662 -0.339844,0.03662 H 9 c -0.2306823,1e-6 -0.4485777,0.04812 -0.6430664,0.130371 -0.2018402,0.08536 -0.3784917,0.207106 -0.5244141,0.353028 -0.1523942,0.152394 -0.2712962,0.331144 -0.3530273,0.524414 -0.086166,0.203758 -0.1289062,0.422319 -0.1289063,0.643066 0,0.233589 0.04784,0.449905 0.1289063,0.641602 0.086763,0.205169 0.2099637,0.38135 0.3530273,0.524414 0.1559074,0.155907 0.3358142,0.273271 0.5244141,0.353027 C 8.5675205,23.608585 8.7868592,23.649902 9,23.649902 h 6.350098 c 0.179418,0 0.370666,-0.02043 0.563965,-0.05713 0.18409,-0.03495 0.37599,-0.08576 0.566894,-0.149414 0.18213,-0.06073 0.367586,-0.134945 0.543457,-0.221191 0.167687,-0.08223 0.335115,-0.179362 0.484863,-0.291504 l 6.401368,-4.800293 c 0.0725,-0.05429 0.170287,-0.115619 0.292968,-0.175781 0.119205,-0.05846 0.254671,-0.112705 0.395508,-0.159668 0.138348,-0.04613 0.277459,-0.08321 0.410156,-0.108399 0.131853,-0.02503 0.248751,-0.03662 0.341309,-0.03662 h 18.099609 c 0.124667,0 0.242787,0.0249 0.350098,0.07031 0.106851,0.04522 0.203398,0.111113 0.285645,0.193359 0.08168,0.08168 0.147832,0.179531 0.193359,0.28711 0.04509,0.106544 0.07031,0.223147 0.07031,0.348632 v 24.900879 c 0,0.125129 -0.02508,0.24322 -0.07031,0.350098 -0.04539,0.107253 -0.111427,0.203712 -0.193359,0.285645 -0.08199,0.08199 -0.178461,0.147999 -0.285645,0.193359 -0.106952,0.04526 -0.225046,0.07031 -0.350098,0.07031 H 4.5498047 c -0.1255739,0 -0.2436361,-0.02526 -0.3500977,-0.07031 C 4.0920467,44.233735 3.9956772,44.167552 3.9140625,44.085938 3.8317495,44.003624 3.7658852,43.907056 3.7207031,43.800293 3.6752486,43.692886 3.6503906,43.57476 3.6503906,43.450195 V 33 c 0,-0.01302 -0.00116,-0.02658 -0.00146,-0.03955 v -7.921875 c 3.048e-4,-0.01304 0.00146,-0.02517 0.00146,-0.03809 v -11.45068 c 0,-0.121358 0.023608,-0.239738 0.070312,-0.350098 0.044253,-0.104568 0.1093602,-0.201645 0.1933594,-0.285644 0.080289,-0.08029 0.1763014,-0.147086 0.2856445,-0.19336 0.1050767,-0.04447 0.2230616,-0.07031 0.3500977,-0.07031 H 16.321289 l 1.168945,1.168945 1.346192,1.344727 c 0.155831,0.155831 0.340363,0.279018 0.544922,0.361816 0.194216,0.07861 0.403428,0.120117 0.618164,0.120117 0.206119,0 0.417292,-0.03822 0.619629,-0.120117 0.195675,-0.0792 0.382411,-0.199306 0.544922,-0.361816 0.157858,-0.157859 0.280093,-0.343019 0.361816,-0.544922 0.07945,-0.196294 0.120117,-0.407129 0.120117,-0.619629 0,-0.207959 -0.03891,-0.417537 -0.120117,-0.618164 -0.07983,-0.197236 -0.200458,-0.383564 -0.361816,-0.544922 l -2.603028,-2.60303 C 18.425023,10.097386 18.266095,9.9762709 18.101074,9.8730469 17.935865,9.769705 17.756926,9.6794025 17.57373,9.6035156 17.391102,9.5278638 17.200273,9.4643027 17.009766,9.4204102 16.820663,9.3768414 16.622675,9.3500977 16.429688,9.3500977 Z" /></g><path
     d="m 32.422641,31.077879 v 0 c 0,-0.48 -0.39,-0.87 -0.869,-0.87 v 0 c -0.48,0 -0.87,0.39 -0.87,0.87 v 0 3.591 l -2.817,-1.877 c -0.999,-0.666 -2.234,-0.329 -2.756,0.751 l -0.298,0.617 c -0.523,1.08 -0.143,2.507 0.847,3.185 l 6.197,4.239 c 0.793,0.541 2.079,0.541 2.871,0 l 6.197,-4.239 c 0.991,-0.678 1.371,-2.105 0.848,-3.185 l -0.298,-0.617 c -0.523,-1.08 -1.757,-1.417 -2.756,-0.751 l -2.817,1.877 v -8.809 0 c 0,-0.48 -0.39,-0.87 -0.87,-0.87 v 0 c -0.48,0 -0.87,0.39 -0.87,0.87 v 0 11.192 c 0,0.48 0.325,0.653 0.724,0.387 l 4.362,-2.909 c 0.399,-0.266 0.817,-0.134 0.932,0.296 v 0 c 0.116,0.429 -0.112,0.998 -0.509,1.269 l -5.661,3.875 c -0.396,0.271 -1.039,0.271 -1.435,0 l -5.661,-3.875 c -0.396,-0.271 -0.624,-0.84 -0.509,-1.269 v 0 c 0.115,-0.43 0.533,-0.562 0.932,-0.296 l 4.363,2.909 c 0.399,0.266 0.723,0.093 0.723,-0.387 z"
     fill-rule="evenodd"
     fill="url(#_lgradient_5)"
     id="path2-0"
     style="display:inline;isolation:isolate;fill:url(#linearGradient2)"
     sodipodi:nodetypes="cssssccccccccccccccsssscsccssccccssccsc" /></svg>
