<?xml version="1.0" encoding="UTF-8" standalone="no"?>
<!-- Generator: Gravit.io -->

<svg
   style="isolation:isolate"
   viewBox="0 0 48 48"
   width="48pt"
   height="48pt"
   version="1.1"
   id="svg2"
   sodipodi:docname="folder-pictures.svg"
   inkscape:version="1.4.2 (ebf0e940d0, 2025-05-08)"
   xml:space="preserve"
   xmlns:inkscape="http://www.inkscape.org/namespaces/inkscape"
   xmlns:sodipodi="http://sodipodi.sourceforge.net/DTD/sodipodi-0.dtd"
   xmlns="http://www.w3.org/2000/svg"
   xmlns:svg="http://www.w3.org/2000/svg"><defs
     id="defs2"><inkscape:path-effect
       effect="powerstroke"
       message=""
       id="path-effect6"
       is_visible="true"
       lpeversion="1.3"
       scale_width="1.2"
       interpolator_type="CentripetalCatmullRom"
       interpolator_beta="0.2"
       start_linecap_type="zerowidth"
       end_linecap_type="zerowidth"
       offset_points="4,0.5"
       linejoin_type="round"
       miter_limit="4"
       not_jump="false"
       sort_points="true" /><inkscape:path-effect
       effect="powerstroke"
       message=""
       id="path-effect4"
       is_visible="true"
       lpeversion="1.3"
       scale_width="1.2"
       interpolator_type="CentripetalCatmullRom"
       interpolator_beta="0.2"
       start_linecap_type="zerowidth"
       end_linecap_type="zerowidth"
       offset_points="16,0.5 | 41.5,0.5"
       linejoin_type="round"
       miter_limit="4"
       not_jump="false"
       sort_points="true" /><linearGradient
       id="linearGradient4"
       x1="0"
       y1="0.5"
       x2="1"
       y2="0.5"
       gradientTransform="matrix(46.1,0,0,37.1,0.95,9.95)"
       gradientUnits="userSpaceOnUse"><stop
         offset="0"
         stop-opacity="1"
         style="stop-color:#7287fd;stop-opacity:1;"
         id="stop3" /><stop
         offset="98.26086956521739%"
         stop-opacity="1"
         style="stop-color:#7287fd"
         id="stop4" /></linearGradient><inkscape:path-effect
       effect="fill_between_many"
       method="bsplinespiro"
       autoreverse="false"
       close="false"
       join="false"
       linkedpaths="#path2,0,1"
       id="path-effect5" /><inkscape:path-effect
       effect="fill_between_many"
       method="bsplinespiro"
       autoreverse="false"
       close="false"
       join="false"
       linkedpaths="#path2-5,0,1"
       id="path-effect7" /></defs><sodipodi:namedview
     id="namedview2"
     pagecolor="#7287fd"
     bordercolor="#7287fd"
     borderopacity="1"
     inkscape:showpageshadow="0"
     inkscape:pageopacity="0"
     inkscape:pagecheckerboard="0"
     inkscape:deskcolor="#7287fd"
     inkscape:document-units="pt"
     inkscape:zoom="5.4579805"
     inkscape:cx="7.420327"
     inkscape:cy="43.605872"
     inkscape:window-width="1366"
     inkscape:window-height="713"
     inkscape:window-x="0"
     inkscape:window-y="18"
     inkscape:window-maximized="0"
     inkscape:current-layer="svg2" /><linearGradient
     id="_lgradient_4"
     x1="0"
     y1="0.5"
     x2="1"
     y2="0.5"
     gradientTransform="matrix(46.1,0,0,37.1,0.95,9.95)"
     gradientUnits="userSpaceOnUse"><stop
       offset="0"
       stop-opacity="1"
       style="stop-color:#7287fd;stop-opacity:1;"
       id="stop1" /><stop
       offset="100%"
       stop-opacity="1"
       style="stop-color:#7287fd"
       id="stop2" /></linearGradient><path
     d="m 24.507,39.194 c 0.051,0.503 0.476,0.896 0.993,0.896 H 39 c 0.552,0 1,-0.448 1,-1 v -4.517 l -4.542,3.11 c -0.683,0.467 -1.713,0.372 -2.299,-0.214 L 30.604,34.914 C 30.408,34.718 30.077,34.702 29.863,34.876 L 24.78,39.03 v 0 c -0.079,0.079 -0.172,0.137 -0.273,0.164 z M 28.275,28 H 24 c -0.828,0 -1.5,0.672 -1.5,1.5 v 11.09 c 0,0.828 0.672,1.5 1.5,1.5 h 16.5 c 0.828,0 1.5,-0.672 1.5,-1.5 V 29.5 C 42,28.672 41.328,28 40.5,28 h -8.045 m 0,2 H 39 c 0.552,0 1,0.448 1,1 v 1.792 c -0.09,0.032 -0.175,0.081 -0.25,0.148 v 0 l -5.05,3.259 c -0.232,0.15 -0.578,0.113 -0.774,-0.083 l -2.615,-2.615 c -0.586,-0.586 -1.574,-0.627 -2.206,-0.092 l -4.605,3.9 V 31 c 0,-0.552 0.448,-1 1,-1 h 2.775 m 6.975,2.333 c 0,-0.69 0.56,-1.25 1.25,-1.25 0.69,0 1.25,0.56 1.25,1.25 0,0.69 -0.56,1.25 -1.25,1.25 -0.69,0 -1.25,-0.56 -1.25,-1.25 z"
     fill-rule="evenodd"
     fill="url(#_lgradient_4)"
     id="path2"
     sodipodi:nodetypes="csssccssccsccssssssssccsscsccssccsscsssss" /><g
     style="display:inline;isolation:isolate;fill:#7287fd;fill-opacity:1"
     id="g1"
     transform="translate(6.9638889e-5)"><path
       id="path5"
       style="fill:#7287fd;fill-opacity:1"
       d="m 3.9506836,9.7001957 c -0.4980899,0 -0.9725069,0.1010156 -1.4018555,0.2827148 C 2.115276,10.166389 1.728156,10.431512 1.4047852,10.754883 1.0771477,11.082521 0.81397099,11.470855 0.6328125,11.898926 0.44863134,12.33414 0.35009766,12.808957 0.35009766,13.300782 v 9.651855 c 0,0.0111 -3.1261e-4,0.02215 0,0.03369 v 2.364258 7.999512 1.652344 c 0,0.01304 -3.0273e-4,0.02512 0,0.03809 v 9.358886 c 0,0.494243 0.099488,0.968898 0.28271484,1.401856 0.18189162,0.429803 0.4456236,0.817694 0.7719727,1.144043 0.324553,0.324552 0.7118575,0.589073 1.1440429,0.771973 C 2.9792692,47.899446 3.4537531,48 3.9506836,48 H 44.049316 c 0.495483,0 0.970022,-0.09996 1.401856,-0.282714 0.430847,-0.182334 0.818479,-0.446409 1.144043,-0.771973 0.325321,-0.325321 0.589503,-0.712875 0.771973,-1.144043 0.182606,-0.431492 0.282714,-0.90605 0.282714,-1.401856 V 18.300293 c 0,-0.496544 -0.100399,-0.971051 -0.282714,-1.401855 -0.182749,-0.431829 -0.447151,-0.819221 -0.771973,-1.144043 -0.32607,-0.32607 -0.713869,-0.588459 -1.144043,-0.770508 -0.432554,-0.183056 -0.907181,-0.28418 -1.401856,-0.28418 H 24.650391 c -0.184896,0 -0.377459,0.02319 -0.563965,0.05859 -0.189455,0.03596 -0.381559,0.08615 -0.566895,0.147949 -0.187187,0.06242 -0.371967,0.137095 -0.543457,0.221192 -0.172249,0.08447 -0.339743,0.183196 -0.486328,0.292969 l -6.399902,4.800292 c -0.07402,0.05543 -0.173935,0.115225 -0.294434,0.174317 -0.121471,0.05957 -0.255802,0.11357 -0.394043,0.159668 -0.14093,0.047 -0.281389,0.08368 -0.411621,0.108398 -0.134199,0.02548 -0.249157,0.03662 -0.339844,0.03662 H 9 c -0.2306823,1e-6 -0.4485777,0.04812 -0.6430664,0.130371 -0.2018402,0.08536 -0.3784917,0.207106 -0.5244141,0.353028 -0.1523942,0.152394 -0.2712962,0.331144 -0.3530273,0.524414 -0.086166,0.203758 -0.1289062,0.422319 -0.1289063,0.643066 0,0.233589 0.04784,0.449905 0.1289063,0.641602 0.086763,0.205169 0.2099637,0.38135 0.3530273,0.524414 0.1559074,0.155907 0.3358142,0.273271 0.5244141,0.353027 C 8.5675205,23.958683 8.7868592,24 9,24 h 6.350098 c 0.179418,0 0.370666,-0.02043 0.563965,-0.05713 0.18409,-0.03495 0.37599,-0.08575 0.566894,-0.149414 0.18213,-0.06073 0.367586,-0.134945 0.543457,-0.221191 0.167687,-0.08223 0.335115,-0.179362 0.484863,-0.291504 l 6.401368,-4.800293 c 0.0725,-0.05429 0.170287,-0.115619 0.292968,-0.175781 0.119205,-0.05846 0.254671,-0.112705 0.395508,-0.159668 0.138348,-0.04613 0.277459,-0.08321 0.410156,-0.108399 C 25.14113,18.011592 25.258028,18 25.350586,18 h 18.099609 c 0.124667,0 0.242787,0.0249 0.350098,0.07031 0.106851,0.04522 0.203398,0.111113 0.285645,0.193359 0.08168,0.08168 0.147832,0.179531 0.193359,0.28711 0.04509,0.106544 0.07031,0.223147 0.07031,0.348632 V 43.80029 c 0,0.125129 -0.02508,0.24322 -0.07031,0.350098 -0.04539,0.107253 -0.111427,0.203712 -0.193359,0.285645 -0.08199,0.08198 -0.178461,0.147999 -0.285645,0.193359 -0.106952,0.04526 -0.225046,0.07031 -0.350098,0.07031 H 4.5498047 c -0.1255739,0 -0.2436361,-0.02526 -0.3500977,-0.07031 C 4.0920467,44.583833 3.9956772,44.51765 3.9140625,44.436036 3.8317495,44.353722 3.7658852,44.257154 3.7207031,44.150391 3.6752486,44.042984 3.6503906,43.924858 3.6503906,43.800293 V 33.350098 c 0,-0.01302 -0.00116,-0.02658 -0.00146,-0.03955 v -7.921875 c 3.048e-4,-0.01304 0.00146,-0.02517 0.00146,-0.03809 v -11.45068 c 0,-0.121358 0.023608,-0.239738 0.070312,-0.350098 0.044253,-0.104568 0.1093602,-0.201645 0.1933594,-0.285644 0.080289,-0.08029 0.1763014,-0.147086 0.2856445,-0.19336 0.1050767,-0.04447 0.2230616,-0.07031 0.3500977,-0.07031 H 16.321289 l 1.168945,1.168945 1.346192,1.344727 c 0.155831,0.155831 0.340363,0.279018 0.544922,0.361816 0.194216,0.07861 0.403428,0.120117 0.618164,0.120117 0.206119,0 0.417292,-0.03822 0.619629,-0.120117 0.195675,-0.0792 0.382411,-0.199306 0.544922,-0.361816 0.157858,-0.157859 0.280093,-0.343019 0.361816,-0.544922 0.07945,-0.196294 0.120117,-0.407129 0.120117,-0.619629 0,-0.207959 -0.03891,-0.417537 -0.120117,-0.618164 -0.07983,-0.197236 -0.200458,-0.383564 -0.361816,-0.544922 l -2.603028,-2.60303 C 18.425023,10.447484 18.266095,10.326369 18.101074,10.223145 17.935865,10.119803 17.756926,10.029501 17.57373,9.9536136 17.391102,9.8779618 17.200273,9.8144007 17.009766,9.7705082 16.820663,9.7269394 16.622675,9.7001957 16.429688,9.7001957 Z" /></g></svg>
