<?xml version="1.0" encoding="UTF-8" standalone="no"?>
<!-- Generator: Gravit.io -->

<svg
   style="isolation:isolate"
   viewBox="0 0 48 48"
   width="48pt"
   height="48pt"
   version="1.1"
   id="svg2"
   sodipodi:docname="user-desktop (Cópia).svg"
   inkscape:version="1.4.2 (ebf0e940d0, 2025-05-08)"
   xml:space="preserve"
   xmlns:inkscape="http://www.inkscape.org/namespaces/inkscape"
   xmlns:sodipodi="http://sodipodi.sourceforge.net/DTD/sodipodi-0.dtd"
   xmlns="http://www.w3.org/2000/svg"
   xmlns:svg="http://www.w3.org/2000/svg"><defs
     id="defs2"><inkscape:path-effect
       effect="powerstroke"
       message=""
       id="path-effect17"
       is_visible="true"
       lpeversion="1.3"
       scale_width="1"
       interpolator_type="CentripetalCatmullRom"
       interpolator_beta="0.2"
       start_linecap_type="zerowidth"
       end_linecap_type="zerowidth"
       offset_points="2.5,0.5 | 7.5,0.5"
       linejoin_type="round"
       miter_limit="4"
       not_jump="false"
       sort_points="true" /><inkscape:path-effect
       effect="powerstroke"
       message=""
       id="path-effect15"
       is_visible="true"
       lpeversion="1.3"
       scale_width="1"
       interpolator_type="CentripetalCatmullRom"
       interpolator_beta="0.2"
       start_linecap_type="zerowidth"
       end_linecap_type="zerowidth"
       offset_points="6,0.5 | 22,0.5"
       linejoin_type="round"
       miter_limit="4"
       not_jump="false"
       sort_points="true" /><inkscape:path-effect
       effect="powerstroke"
       message=""
       id="path-effect13"
       is_visible="true"
       lpeversion="1.3"
       scale_width="1"
       interpolator_type="CentripetalCatmullRom"
       interpolator_beta="0.2"
       start_linecap_type="zerowidth"
       end_linecap_type="zerowidth"
       offset_points="0,0.5"
       linejoin_type="round"
       miter_limit="4"
       not_jump="false"
       sort_points="true" /><inkscape:path-effect
       effect="powerstroke"
       message=""
       id="path-effect6"
       is_visible="true"
       lpeversion="1.3"
       scale_width="1.2"
       interpolator_type="CentripetalCatmullRom"
       interpolator_beta="0.2"
       start_linecap_type="zerowidth"
       end_linecap_type="zerowidth"
       offset_points="4,0.5"
       linejoin_type="round"
       miter_limit="4"
       not_jump="false"
       sort_points="true" /><inkscape:path-effect
       effect="powerstroke"
       message=""
       id="path-effect4"
       is_visible="true"
       lpeversion="1.3"
       scale_width="1.2"
       interpolator_type="CentripetalCatmullRom"
       interpolator_beta="0.2"
       start_linecap_type="zerowidth"
       end_linecap_type="zerowidth"
       offset_points="16,0.5 | 41.5,0.5"
       linejoin_type="round"
       miter_limit="4"
       not_jump="false"
       sort_points="true" /><linearGradient
       id="linearGradient4"
       x1="0"
       y1="0.5"
       x2="1"
       y2="0.5"
       gradientTransform="matrix(46.1,0,0,37.1,0.95,9.95)"
       gradientUnits="userSpaceOnUse"><stop
         offset="0"
         stop-opacity="1"
         style="stop-color:#7287fd;stop-opacity:1;"
         id="stop3" /><stop
         offset="98.26086956521739%"
         stop-opacity="1"
         style="stop-color:#7287fd"
         id="stop4" /></linearGradient><inkscape:path-effect
       effect="fill_between_many"
       method="bsplinespiro"
       autoreverse="false"
       close="false"
       join="false"
       linkedpaths="#path2,0,1"
       id="path-effect5" /><inkscape:path-effect
       effect="fill_between_many"
       method="bsplinespiro"
       autoreverse="false"
       close="false"
       join="false"
       linkedpaths="#path2-5,0,1"
       id="path-effect7" /><inkscape:path-effect
       effect="fill_between_many"
       method="bsplinespiro"
       autoreverse="false"
       close="false"
       join="false"
       linkedpaths="#path9,0,1"
       id="path-effect14" /><inkscape:path-effect
       effect="fill_between_many"
       method="d"
       autoreverse="false"
       close="false"
       join="false"
       linkedpaths="#path3,0,1"
       id="path-effect16" /><inkscape:path-effect
       effect="fill_between_many"
       method="d"
       autoreverse="false"
       close="false"
       join="false"
       linkedpaths="#path6,0,1"
       id="path-effect18" /></defs><sodipodi:namedview
     id="namedview2"
     pagecolor="#7287fd"
     bordercolor="#7287fd"
     borderopacity="1"
     inkscape:showpageshadow="0"
     inkscape:pageopacity="0"
     inkscape:pagecheckerboard="0"
     inkscape:deskcolor="#7287fd"
     inkscape:document-units="pt"
     inkscape:zoom="5.6568543"
     inkscape:cx="40.393475"
     inkscape:cy="44.194174"
     inkscape:window-width="1366"
     inkscape:window-height="713"
     inkscape:window-x="0"
     inkscape:window-y="18"
     inkscape:window-maximized="0"
     inkscape:current-layer="g3" /><linearGradient
     id="_lgradient_8"
     x1="0.031182562838213412"
     y1="0.10866627890091946"
     x2="0.9583795358695032"
     y2="0.9751947012019755"
     gradientTransform="matrix(46.1,0,0,37.1,0.95,9.95)"
     gradientUnits="userSpaceOnUse"><stop
       offset="0"
       stop-opacity="1"
       style="stop-color:#7287fd;stop-opacity:1;"
       id="stop1" /><stop
       offset="97.5%"
       stop-opacity="1"
       style="stop-color:#7287fd"
       id="stop2" /></linearGradient><path
     d="M 42,29.091 V 27.932 C 42,26.866 41.134,26 40.068,26 H 26.932 C 25.866,26 25,26.866 25,27.932 v 7.727 c 0,1.066 0.866,1.932 1.932,1.932 H 31.5 v 3.091 h 1.545 V 37.591 H 34 v 3.091 h 1.545 v -3.091 h 4.523 c 1.066,0 1.932,-0.866 1.932,-1.932 v -3.091 m -1.545,0 v 3.091 c 0,0.213 -0.174,0.386 -0.387,0.386 h -4.523 v 0 H 34 v 0 0 h -0.955 v 0 H 31.5 v 0 0 0 h -4.568 c -0.213,0 -0.387,-0.173 -0.387,-0.386 v -7.727 c 0,-0.213 0.174,-0.387 0.387,-0.387 h 13.136 c 0.213,0 0.387,0.174 0.387,0.387 v 1.159 M 28.477,40.682 h 10.046 c 0.426,0 0.772,0.346 0.772,0.773 v 0 c 0,0.426 -0.346,0.772 -0.772,0.772 H 28.477 c -0.426,0 -0.772,-0.346 -0.772,-0.772 v 0 c 0,-0.427 0.346,-0.773 0.772,-0.773 z"
     fill-rule="evenodd"
     fill="url(#_lgradient_8)"
     id="path2"
     sodipodi:nodetypes="cssssssccccccccssccsscccccccccccsssssscsssssssss"
     style="display:none;fill:url(#_lgradient_8)"
     transform="translate(-18,0.65625)" /><g
     style="display:inline;isolation:isolate;fill:#7287fd;fill-opacity:1"
     id="g1"
     transform="translate(6.9638889e-5)"><path
       id="path5"
       style="fill:#7287fd;fill-opacity:1"
       d="m 3.9506836,9.7001957 c -0.4980899,0 -0.9725069,0.1010156 -1.4018555,0.2827148 C 2.115276,10.166389 1.728156,10.431512 1.4047852,10.754883 1.0771477,11.082521 0.81397099,11.470855 0.6328125,11.898926 0.44863134,12.33414 0.35009766,12.808957 0.35009766,13.300782 v 9.651855 c 0,0.0111 -3.1261e-4,0.02215 0,0.03369 v 2.364258 7.999512 1.652344 c 0,0.01304 -3.0273e-4,0.02512 0,0.03809 v 9.358886 c 0,0.494243 0.099488,0.968898 0.28271484,1.401856 0.18189162,0.429803 0.4456236,0.817694 0.7719727,1.144043 0.324553,0.324552 0.7118575,0.589073 1.1440429,0.771973 C 2.9792692,47.899446 3.4537531,48 3.9506836,48 H 44.049316 c 0.495483,0 0.970022,-0.09996 1.401856,-0.282714 0.430847,-0.182334 0.818479,-0.446409 1.144043,-0.771973 0.325321,-0.325321 0.589503,-0.712875 0.771973,-1.144043 0.182606,-0.431492 0.282714,-0.90605 0.282714,-1.401856 V 18.300293 c 0,-0.496544 -0.100399,-0.971051 -0.282714,-1.401855 -0.182749,-0.431829 -0.447151,-0.819221 -0.771973,-1.144043 -0.32607,-0.32607 -0.713869,-0.588459 -1.144043,-0.770508 -0.432554,-0.183056 -0.907181,-0.28418 -1.401856,-0.28418 H 24.650391 c -0.184896,0 -0.377459,0.02319 -0.563965,0.05859 -0.189455,0.03596 -0.381559,0.08615 -0.566895,0.147949 -0.187187,0.06242 -0.371967,0.137095 -0.543457,0.221192 -0.172249,0.08447 -0.339743,0.183196 -0.486328,0.292969 l -6.399902,4.800292 c -0.07402,0.05543 -0.173935,0.115225 -0.294434,0.174317 -0.121471,0.05957 -0.255802,0.11357 -0.394043,0.159668 -0.14093,0.047 -0.281389,0.08368 -0.411621,0.108398 -0.134199,0.02548 -0.249157,0.03662 -0.339844,0.03662 H 9 c -0.2306823,1e-6 -0.4485777,0.04812 -0.6430664,0.130371 -0.2018402,0.08536 -0.3784917,0.207106 -0.5244141,0.353028 -0.1523942,0.152394 -0.2712962,0.331144 -0.3530273,0.524414 -0.086166,0.203758 -0.1289062,0.422319 -0.1289063,0.643066 0,0.233589 0.04784,0.449905 0.1289063,0.641602 0.086763,0.205169 0.2099637,0.38135 0.3530273,0.524414 0.1559074,0.155907 0.3358142,0.273271 0.5244141,0.353027 C 8.5675205,23.958683 8.7868592,24 9,24 h 6.350098 c 0.179418,0 0.370666,-0.02043 0.563965,-0.05713 0.18409,-0.03495 0.37599,-0.08575 0.566894,-0.149414 0.18213,-0.06073 0.367586,-0.134945 0.543457,-0.221191 0.167687,-0.08223 0.335115,-0.179362 0.484863,-0.291504 l 6.401368,-4.800293 c 0.0725,-0.05429 0.170287,-0.115619 0.292968,-0.175781 0.119205,-0.05846 0.254671,-0.112705 0.395508,-0.159668 0.138348,-0.04613 0.277459,-0.08321 0.410156,-0.108399 C 25.14113,18.011592 25.258028,18 25.350586,18 h 18.099609 c 0.124667,0 0.242787,0.0249 0.350098,0.07031 0.106851,0.04522 0.203398,0.111113 0.285645,0.193359 0.08168,0.08168 0.147832,0.179531 0.193359,0.28711 0.04509,0.106544 0.07031,0.223147 0.07031,0.348632 V 43.80029 c 0,0.125129 -0.02508,0.24322 -0.07031,0.350098 -0.04539,0.107253 -0.111427,0.203712 -0.193359,0.285645 -0.08199,0.08198 -0.178461,0.147999 -0.285645,0.193359 -0.106952,0.04526 -0.225046,0.07031 -0.350098,0.07031 H 4.5498047 c -0.1255739,0 -0.2436361,-0.02526 -0.3500977,-0.07031 C 4.0920467,44.583833 3.9956772,44.51765 3.9140625,44.436036 3.8317495,44.353722 3.7658852,44.257154 3.7207031,44.150391 3.6752486,44.042984 3.6503906,43.924858 3.6503906,43.800293 V 33.350098 c 0,-0.01302 -0.00116,-0.02658 -0.00146,-0.03955 v -7.921875 c 3.048e-4,-0.01304 0.00146,-0.02517 0.00146,-0.03809 v -11.45068 c 0,-0.121358 0.023608,-0.239738 0.070312,-0.350098 0.044253,-0.104568 0.1093602,-0.201645 0.1933594,-0.285644 0.080289,-0.08029 0.1763014,-0.147086 0.2856445,-0.19336 0.1050767,-0.04447 0.2230616,-0.07031 0.3500977,-0.07031 H 16.321289 l 1.168945,1.168945 1.346192,1.344727 c 0.155831,0.155831 0.340363,0.279018 0.544922,0.361816 0.194216,0.07861 0.403428,0.120117 0.618164,0.120117 0.206119,0 0.417292,-0.03822 0.619629,-0.120117 0.195675,-0.0792 0.382411,-0.199306 0.544922,-0.361816 0.157858,-0.157859 0.280093,-0.343019 0.361816,-0.544922 0.07945,-0.196294 0.120117,-0.407129 0.120117,-0.619629 0,-0.207959 -0.03891,-0.417537 -0.120117,-0.618164 -0.07983,-0.197236 -0.200458,-0.383564 -0.361816,-0.544922 l -2.603028,-2.60303 C 18.425023,10.447484 18.266095,10.326369 18.101074,10.223145 17.935865,10.119803 17.756926,10.029501 17.57373,9.9536136 17.391102,9.8779618 17.200273,9.8144007 17.009766,9.7705082 16.820663,9.7269394 16.622675,9.7001957 16.429688,9.7001957 Z" /></g><g
     style="isolation:isolate;fill:#7287fd"
     id="g3"
     transform="translate(0.03378654,0.7876894)"><path
       d="m 33.45,25 c -4.709,0 -8.5,3.791 -8.5,8.5 0,3.796 2.465,6.991 5.887,8.089 v -1.766 c -2.151,0.475 -2.604,-0.946 -2.604,-0.946 -0.352,-0.908 -0.859,-1.15 -0.859,-1.15 -0.703,-0.487 0.052,-0.479 0.052,-0.479 0.776,0.055 1.185,0.811 1.185,0.811 0.69,1.201 1.811,0.855 2.251,0.654 0.071,-0.508 0.271,-0.856 0.492,-1.052 -1.717,-0.199 -3.206,-1.297 -3.206,-4.309 0,-0.858 0.623,-1.984 1.118,-2.533 -0.08,-0.199 -0.347,-1.423 0.075,-2.505 0,0 0.04,-0.013 0.124,-0.017 0.252,-0.011 0.818,0.466 1.926,1.229 0.669,-0.192 1.525,-0.282 2.059,-0.286 0.603,-0.005 1.3,0.098 1.929,0.286 1.108,-0.763 1.816,-1.242 2.067,-1.231 h 0.002 c 0.084,0.004 0.125,0.017 0.125,0.017 0.422,1.082 0.156,2.308 0.076,2.507 0.496,0.549 1.114,1.675 1.114,2.533 0,3.02 -1.808,4.108 -3.53,4.303 0.277,0.242 0.346,0.723 0.346,1.456 0,0.886 -0.002,1.461 -0.004,1.827 v 0.786 c 3.673,-0.94 6.375,-4.25 6.375,-8.224 0,-4.709 -3.791,-8.5 -8.5,-8.5 z"
       fill-rule="evenodd"
       fill="url(#_lgradient_1)"
       id="path2-7"
       style="fill:#7287fd;fill-opacity:1"
       sodipodi:nodetypes="ssccccccccsccccccccccscsccss" /></g></svg>
